<svg width="1440" height="1024" viewBox="0 0 1440 1024" fill="none" xmlns="http://www.w3.org/2000/svg">
<g clip-path="url(#clip0_2_62)">
<rect width="1440" height="1024" fill="white"/>
<circle cx="89" cy="52" r="25" fill="#D9D9D9"/>
<path d="M144.818 63V39.7273H152.955C154.576 39.7273 155.913 40.0076 156.966 40.5682C158.019 41.1212 158.803 41.8674 159.318 42.8068C159.833 43.7386 160.091 44.7727 160.091 45.9091C160.091 46.9091 159.913 47.7348 159.557 48.3864C159.208 49.0379 158.746 49.553 158.17 49.9318C157.602 50.3106 156.985 50.5909 156.318 50.7727V51C157.03 51.0455 157.746 51.2955 158.466 51.75C159.186 52.2045 159.788 52.8561 160.273 53.7045C160.758 54.553 161 55.5909 161 56.8182C161 57.9848 160.735 59.0341 160.205 59.9659C159.674 60.8977 158.837 61.6364 157.693 62.1818C156.549 62.7273 155.061 63 153.227 63H144.818ZM147.636 60.5H153.227C155.068 60.5 156.375 60.1439 157.148 59.4318C157.928 58.7121 158.318 57.8409 158.318 56.8182C158.318 56.0303 158.117 55.303 157.716 54.6364C157.314 53.9621 156.742 53.4242 156 53.0227C155.258 52.6136 154.379 52.4091 153.364 52.4091H147.636V60.5ZM147.636 49.9545H152.864C153.712 49.9545 154.477 49.7879 155.159 49.4545C155.848 49.1212 156.394 48.6515 156.795 48.0455C157.205 47.4394 157.409 46.7273 157.409 45.9091C157.409 44.8864 157.053 44.0189 156.341 43.3068C155.629 42.5871 154.5 42.2273 152.955 42.2273H147.636V49.9545ZM170.403 63.4091C169.297 63.4091 168.294 63.2008 167.392 62.7841C166.491 62.3598 165.775 61.75 165.244 60.9545C164.714 60.1515 164.449 59.1818 164.449 58.0455C164.449 57.0455 164.646 56.2348 165.04 55.6136C165.434 54.9848 165.96 54.4924 166.619 54.1364C167.278 53.7803 168.006 53.5152 168.801 53.3409C169.604 53.1591 170.411 53.0152 171.222 52.9091C172.282 52.7727 173.142 52.6705 173.801 52.6023C174.468 52.5265 174.953 52.4015 175.256 52.2273C175.566 52.053 175.722 51.75 175.722 51.3182V51.2273C175.722 50.1061 175.415 49.2348 174.801 48.6136C174.195 47.9924 173.275 47.6818 172.04 47.6818C170.759 47.6818 169.756 47.9621 169.028 48.5227C168.301 49.0833 167.79 49.6818 167.494 50.3182L164.949 49.4091C165.403 48.3485 166.009 47.5227 166.767 46.9318C167.532 46.3333 168.366 45.9167 169.267 45.6818C170.176 45.4394 171.07 45.3182 171.949 45.3182C172.509 45.3182 173.153 45.3864 173.881 45.5227C174.616 45.6515 175.324 45.9205 176.006 46.3295C176.695 46.7386 177.267 47.3561 177.722 48.1818C178.176 49.0076 178.403 50.1136 178.403 51.5V63H175.722V60.6364H175.585C175.403 61.0152 175.1 61.4205 174.676 61.8523C174.252 62.2841 173.688 62.6515 172.983 62.9545C172.278 63.2576 171.419 63.4091 170.403 63.4091ZM170.812 61C171.873 61 172.767 60.7917 173.494 60.375C174.229 59.9583 174.782 59.4205 175.153 58.7614C175.532 58.1023 175.722 57.4091 175.722 56.6818V54.2273C175.608 54.3636 175.358 54.4886 174.972 54.6023C174.593 54.7083 174.153 54.803 173.653 54.8864C173.161 54.9621 172.68 55.0303 172.21 55.0909C171.748 55.1439 171.373 55.1894 171.085 55.2273C170.388 55.3182 169.737 55.4659 169.131 55.6705C168.532 55.8674 168.047 56.1667 167.676 56.5682C167.313 56.9621 167.131 57.5 167.131 58.1818C167.131 59.1136 167.475 59.8182 168.165 60.2955C168.862 60.7652 169.744 61 170.812 61ZM185.98 52.5V63H183.298V45.5455H185.889V48.2727H186.116C186.526 47.3864 187.147 46.6742 187.98 46.1364C188.813 45.5909 189.889 45.3182 191.207 45.3182C192.389 45.3182 193.423 45.5606 194.31 46.0455C195.196 46.5227 195.885 47.25 196.378 48.2273C196.87 49.197 197.116 50.4242 197.116 51.9091V63H194.435V52.0909C194.435 50.7197 194.079 49.6515 193.366 48.8864C192.654 48.1136 191.677 47.7273 190.435 47.7273C189.579 47.7273 188.813 47.9129 188.139 48.2841C187.473 48.6553 186.946 49.197 186.56 49.9091C186.173 50.6212 185.98 51.4848 185.98 52.5ZM204.517 56.6364L204.472 53.3182H205.017L212.653 45.5455H215.972L207.835 53.7727H207.608L204.517 56.6364ZM202.017 63V39.7273H204.699V63H202.017ZM213.108 63L206.29 54.3636L208.199 52.5L216.517 63H213.108ZM219.787 63V39.7273H227.651C229.469 39.7273 230.961 40.0379 232.128 40.6591C233.295 41.2727 234.158 42.1174 234.719 43.1932C235.279 44.2689 235.56 45.4924 235.56 46.8636C235.56 48.2348 235.279 49.4508 234.719 50.5114C234.158 51.572 233.298 52.4053 232.139 53.0114C230.98 53.6098 229.499 53.9091 227.696 53.9091H221.332V51.3636H227.605C228.848 51.3636 229.848 51.1818 230.605 50.8182C231.37 50.4545 231.923 49.9394 232.264 49.2727C232.613 48.5985 232.787 47.7955 232.787 46.8636C232.787 45.9318 232.613 45.1174 232.264 44.4205C231.916 43.7235 231.359 43.1856 230.594 42.8068C229.829 42.4205 228.817 42.2273 227.56 42.2273H222.605V63H219.787ZM230.741 52.5455L236.469 63H233.196L227.56 52.5455H230.741ZM246.795 63.3636C245.22 63.3636 243.837 62.9886 242.648 62.2386C241.466 61.4886 240.542 60.4394 239.875 59.0909C239.216 57.7424 238.886 56.1667 238.886 54.3636C238.886 52.5455 239.216 50.9583 239.875 49.6023C240.542 48.2462 241.466 47.1932 242.648 46.4432C243.837 45.6932 245.22 45.3182 246.795 45.3182C248.371 45.3182 249.75 45.6932 250.932 46.4432C252.121 47.1932 253.045 48.2462 253.705 49.6023C254.371 50.9583 254.705 52.5455 254.705 54.3636C254.705 56.1667 254.371 57.7424 253.705 59.0909C253.045 60.4394 252.121 61.4886 250.932 62.2386C249.75 62.9886 248.371 63.3636 246.795 63.3636ZM246.795 60.9545C247.992 60.9545 248.977 60.6477 249.75 60.0341C250.523 59.4205 251.095 58.6136 251.466 57.6136C251.837 56.6136 252.023 55.5303 252.023 54.3636C252.023 53.197 251.837 52.1098 251.466 51.1023C251.095 50.0947 250.523 49.2803 249.75 48.6591C248.977 48.0379 247.992 47.7273 246.795 47.7273C245.598 47.7273 244.614 48.0379 243.841 48.6591C243.068 49.2803 242.496 50.0947 242.125 51.1023C241.754 52.1098 241.568 53.197 241.568 54.3636C241.568 55.5303 241.754 56.6136 242.125 57.6136C242.496 58.6136 243.068 59.4205 243.841 60.0341C244.614 60.6477 245.598 60.9545 246.795 60.9545ZM265.889 63.3636C264.313 63.3636 262.931 62.9886 261.741 62.2386C260.56 61.4886 259.635 60.4394 258.969 59.0909C258.31 57.7424 257.98 56.1667 257.98 54.3636C257.98 52.5455 258.31 50.9583 258.969 49.6023C259.635 48.2462 260.56 47.1932 261.741 46.4432C262.931 45.6932 264.313 45.3182 265.889 45.3182C267.465 45.3182 268.844 45.6932 270.026 46.4432C271.215 47.1932 272.139 48.2462 272.798 49.6023C273.465 50.9583 273.798 52.5455 273.798 54.3636C273.798 56.1667 273.465 57.7424 272.798 59.0909C272.139 60.4394 271.215 61.4886 270.026 62.2386C268.844 62.9886 267.465 63.3636 265.889 63.3636ZM265.889 60.9545C267.086 60.9545 268.071 60.6477 268.844 60.0341C269.616 59.4205 270.188 58.6136 270.56 57.6136C270.931 56.6136 271.116 55.5303 271.116 54.3636C271.116 53.197 270.931 52.1098 270.56 51.1023C270.188 50.0947 269.616 49.2803 268.844 48.6591C268.071 48.0379 267.086 47.7273 265.889 47.7273C264.692 47.7273 263.707 48.0379 262.935 48.6591C262.162 49.2803 261.59 50.0947 261.219 51.1023C260.848 52.1098 260.662 53.197 260.662 54.3636C260.662 55.5303 260.848 56.6136 261.219 57.6136C261.59 58.6136 262.162 59.4205 262.935 60.0341C263.707 60.6477 264.692 60.9545 265.889 60.9545ZM285.483 45.5455V47.8182H276.438V45.5455H285.483ZM279.074 41.3636H281.756V58C281.756 58.7576 281.866 59.3258 282.085 59.7045C282.313 60.0758 282.6 60.3258 282.949 60.4545C283.305 60.5758 283.68 60.6364 284.074 60.6364C284.369 60.6364 284.612 60.6212 284.801 60.5909C284.991 60.553 285.142 60.5227 285.256 60.5L285.801 62.9091C285.619 62.9773 285.366 63.0455 285.04 63.1136C284.714 63.1894 284.301 63.2273 283.801 63.2273C283.044 63.2273 282.301 63.0644 281.574 62.7386C280.854 62.4129 280.256 61.9167 279.778 61.25C279.309 60.5833 279.074 59.7424 279.074 58.7273V41.3636Z" fill="black"/>
<line x1="-0.0140381" y1="95" x2="1440.01" y2="95" stroke="black"/>
<path d="M869.5 61H864.114V43.5455H869.739C871.432 43.5455 872.881 43.8949 874.085 44.5938C875.29 45.2869 876.213 46.2841 876.855 47.5852C877.497 48.8807 877.818 50.4318 877.818 52.2386C877.818 54.0568 877.494 55.6222 876.847 56.9347C876.199 58.2415 875.256 59.2472 874.017 59.9517C872.778 60.6506 871.273 61 869.5 61ZM866.227 59.125H869.364C870.807 59.125 872.003 58.8466 872.952 58.2898C873.901 57.733 874.608 56.9403 875.074 55.9119C875.54 54.8835 875.773 53.6591 875.773 52.2386C875.773 50.8295 875.543 49.6165 875.082 48.5994C874.622 47.5767 873.935 46.7926 873.02 46.2472C872.105 45.696 870.966 45.4205 869.602 45.4205H866.227V59.125ZM884.943 61.3068C884.114 61.3068 883.361 61.1506 882.685 60.8381C882.009 60.5199 881.472 60.0625 881.074 59.4659C880.676 58.8636 880.477 58.1364 880.477 57.2841C880.477 56.5341 880.625 55.9261 880.92 55.4602C881.216 54.9886 881.611 54.6193 882.105 54.3523C882.599 54.0852 883.145 53.8864 883.741 53.7557C884.344 53.6193 884.949 53.5114 885.557 53.4318C886.352 53.3295 886.997 53.2528 887.491 53.2017C887.991 53.1449 888.355 53.0511 888.582 52.9205C888.815 52.7898 888.932 52.5625 888.932 52.2386V52.1705C888.932 51.3295 888.702 50.6761 888.241 50.2102C887.787 49.7443 887.097 49.5114 886.17 49.5114C885.21 49.5114 884.457 49.7216 883.912 50.142C883.366 50.5625 882.983 51.0114 882.761 51.4886L880.852 50.8068C881.193 50.0114 881.648 49.392 882.216 48.9489C882.79 48.5 883.415 48.1875 884.091 48.0114C884.773 47.8295 885.443 47.7386 886.102 47.7386C886.523 47.7386 887.006 47.7898 887.551 47.892C888.102 47.9886 888.634 48.1903 889.145 48.4972C889.662 48.804 890.091 49.267 890.432 49.8864C890.773 50.5057 890.943 51.3352 890.943 52.375V61H888.932V59.2273H888.83C888.693 59.5114 888.466 59.8153 888.148 60.1392C887.83 60.4631 887.406 60.7386 886.878 60.9659C886.349 61.1932 885.705 61.3068 884.943 61.3068ZM885.25 59.5C886.045 59.5 886.716 59.3438 887.261 59.0312C887.813 58.7188 888.227 58.3153 888.506 57.821C888.79 57.3267 888.932 56.8068 888.932 56.2614V54.4205C888.847 54.5227 888.659 54.6165 888.369 54.7017C888.085 54.7812 887.756 54.8523 887.381 54.9148C887.011 54.9716 886.651 55.0227 886.298 55.0682C885.952 55.108 885.67 55.142 885.455 55.1705C884.932 55.2386 884.443 55.3494 883.989 55.5028C883.54 55.6506 883.176 55.875 882.898 56.1761C882.625 56.4716 882.489 56.875 882.489 57.3864C882.489 58.0852 882.747 58.6136 883.264 58.9716C883.787 59.3239 884.449 59.5 885.25 59.5ZM903.887 50.8409L902.08 51.3523C901.967 51.0511 901.799 50.7585 901.577 50.4744C901.362 50.1847 901.066 49.946 900.691 49.7585C900.316 49.571 899.836 49.4773 899.251 49.4773C898.45 49.4773 897.782 49.6619 897.248 50.0312C896.719 50.3949 896.455 50.858 896.455 51.4205C896.455 51.9205 896.637 52.3153 897.001 52.6051C897.364 52.8949 897.933 53.1364 898.705 53.3295L900.648 53.8068C901.819 54.0909 902.691 54.5256 903.265 55.1108C903.839 55.6903 904.126 56.4375 904.126 57.3523C904.126 58.1023 903.91 58.7727 903.478 59.3636C903.052 59.9545 902.455 60.4205 901.688 60.7614C900.921 61.1023 900.029 61.2727 899.012 61.2727C897.677 61.2727 896.572 60.983 895.697 60.4034C894.822 59.8239 894.268 58.9773 894.035 57.8636L895.944 57.3864C896.126 58.0909 896.469 58.6193 896.975 58.9716C897.487 59.3239 898.154 59.5 898.978 59.5C899.915 59.5 900.66 59.3011 901.211 58.9034C901.768 58.5 902.046 58.017 902.046 57.4545C902.046 57 901.887 56.6193 901.569 56.3125C901.251 56 900.762 55.767 900.103 55.6136L897.921 55.1023C896.722 54.8182 895.842 54.3778 895.279 53.7812C894.722 53.179 894.444 52.4261 894.444 51.5227C894.444 50.7841 894.651 50.1307 895.066 49.5625C895.487 48.9943 896.058 48.5483 896.779 48.2244C897.506 47.9006 898.33 47.7386 899.251 47.7386C900.546 47.7386 901.563 48.0227 902.302 48.5909C903.046 49.1591 903.575 49.9091 903.887 50.8409ZM909.165 53.125V61H907.153V43.5455H909.165V49.9545H909.335C909.642 49.2784 910.102 48.7415 910.716 48.3438C911.335 47.9403 912.159 47.7386 913.188 47.7386C914.08 47.7386 914.861 47.9176 915.531 48.2756C916.202 48.6278 916.722 49.1705 917.091 49.9034C917.466 50.6307 917.653 51.5568 917.653 52.6818V61H915.642V52.8182C915.642 51.7784 915.372 50.9744 914.832 50.4062C914.298 49.8324 913.557 49.5455 912.608 49.5455C911.949 49.5455 911.358 49.6847 910.835 49.9631C910.318 50.2415 909.909 50.6477 909.608 51.1818C909.313 51.7159 909.165 52.3636 909.165 53.125ZM921.606 61V43.5455H923.617V49.9886H923.788C923.935 49.7614 924.14 49.4716 924.401 49.1193C924.668 48.7614 925.049 48.4432 925.543 48.1648C926.043 47.8807 926.719 47.7386 927.572 47.7386C928.674 47.7386 929.646 48.0142 930.487 48.5653C931.327 49.1165 931.984 49.8977 932.455 50.9091C932.927 51.9205 933.163 53.1136 933.163 54.4886C933.163 55.875 932.927 57.0767 932.455 58.0938C931.984 59.1051 931.33 59.8892 930.495 60.446C929.66 60.9972 928.697 61.2727 927.606 61.2727C926.765 61.2727 926.092 61.1335 925.586 60.8551C925.08 60.571 924.691 60.25 924.418 59.892C924.146 59.5284 923.935 59.2273 923.788 58.9886H923.549V61H921.606ZM923.583 54.4545C923.583 55.4432 923.728 56.3153 924.018 57.071C924.308 57.821 924.731 58.4091 925.288 58.8352C925.844 59.2557 926.526 59.4659 927.333 59.4659C928.174 59.4659 928.876 59.2443 929.438 58.8011C930.006 58.3523 930.433 57.75 930.717 56.9943C931.006 56.233 931.151 55.3864 931.151 54.4545C931.151 53.5341 931.009 52.7045 930.725 51.9659C930.447 51.2216 930.023 50.6335 929.455 50.2017C928.893 49.7642 928.185 49.5455 927.333 49.5455C926.515 49.5455 925.827 49.7528 925.271 50.1676C924.714 50.5767 924.293 51.1506 924.009 51.8892C923.725 52.6222 923.583 53.4773 923.583 54.4545ZM941.558 61.2727C940.376 61.2727 939.339 60.9915 938.447 60.429C937.56 59.8665 936.867 59.0795 936.367 58.0682C935.873 57.0568 935.626 55.875 935.626 54.5227C935.626 53.1591 935.873 51.9687 936.367 50.9517C936.867 49.9347 937.56 49.1449 938.447 48.5824C939.339 48.0199 940.376 47.7386 941.558 47.7386C942.739 47.7386 943.773 48.0199 944.66 48.5824C945.552 49.1449 946.245 49.9347 946.739 50.9517C947.239 51.9687 947.489 53.1591 947.489 54.5227C947.489 55.875 947.239 57.0568 946.739 58.0682C946.245 59.0795 945.552 59.8665 944.66 60.429C943.773 60.9915 942.739 61.2727 941.558 61.2727ZM941.558 59.4659C942.455 59.4659 943.194 59.2358 943.773 58.7756C944.353 58.3153 944.782 57.7102 945.06 56.9602C945.339 56.2102 945.478 55.3977 945.478 54.5227C945.478 53.6477 945.339 52.8324 945.06 52.0767C944.782 51.321 944.353 50.7102 943.773 50.2443C943.194 49.7784 942.455 49.5455 941.558 49.5455C940.66 49.5455 939.921 49.7784 939.342 50.2443C938.762 50.7102 938.333 51.321 938.055 52.0767C937.776 52.8324 937.637 53.6477 937.637 54.5227C937.637 55.3977 937.776 56.2102 938.055 56.9602C938.333 57.7102 938.762 58.3153 939.342 58.7756C939.921 59.2358 940.66 59.4659 941.558 59.4659ZM954.412 61.3068C953.582 61.3068 952.83 61.1506 952.153 60.8381C951.477 60.5199 950.94 60.0625 950.543 59.4659C950.145 58.8636 949.946 58.1364 949.946 57.2841C949.946 56.5341 950.094 55.9261 950.389 55.4602C950.685 54.9886 951.08 54.6193 951.574 54.3523C952.068 54.0852 952.614 53.8864 953.21 53.7557C953.813 53.6193 954.418 53.5114 955.026 53.4318C955.821 53.3295 956.466 53.2528 956.96 53.2017C957.46 53.1449 957.824 53.0511 958.051 52.9205C958.284 52.7898 958.401 52.5625 958.401 52.2386V52.1705C958.401 51.3295 958.17 50.6761 957.71 50.2102C957.256 49.7443 956.565 49.5114 955.639 49.5114C954.679 49.5114 953.926 49.7216 953.381 50.142C952.835 50.5625 952.452 51.0114 952.23 51.4886L950.321 50.8068C950.662 50.0114 951.116 49.392 951.685 48.9489C952.259 48.5 952.884 48.1875 953.56 48.0114C954.241 47.8295 954.912 47.7386 955.571 47.7386C955.991 47.7386 956.474 47.7898 957.02 47.892C957.571 47.9886 958.102 48.1903 958.614 48.4972C959.131 48.804 959.56 49.267 959.901 49.8864C960.241 50.5057 960.412 51.3352 960.412 52.375V61H958.401V59.2273H958.298C958.162 59.5114 957.935 59.8153 957.616 60.1392C957.298 60.4631 956.875 60.7386 956.347 60.9659C955.818 61.1932 955.173 61.3068 954.412 61.3068ZM954.719 59.5C955.514 59.5 956.185 59.3438 956.73 59.0312C957.281 58.7188 957.696 58.3153 957.974 57.821C958.259 57.3267 958.401 56.8068 958.401 56.2614V54.4205C958.315 54.5227 958.128 54.6165 957.838 54.7017C957.554 54.7812 957.224 54.8523 956.849 54.9148C956.48 54.9716 956.119 55.0227 955.767 55.0682C955.42 55.108 955.139 55.142 954.923 55.1705C954.401 55.2386 953.912 55.3494 953.457 55.5028C953.009 55.6506 952.645 55.875 952.366 56.1761C952.094 56.4716 951.957 56.875 951.957 57.3864C951.957 58.0852 952.216 58.6136 952.733 58.9716C953.256 59.3239 953.918 59.5 954.719 59.5ZM964.083 61V47.9091H966.026V49.8864H966.163C966.401 49.2386 966.833 48.7131 967.458 48.3097C968.083 47.9062 968.788 47.7045 969.572 47.7045C969.719 47.7045 969.904 47.7074 970.126 47.7131C970.347 47.7187 970.515 47.7273 970.629 47.7386V49.7841C970.56 49.767 970.404 49.7415 970.16 49.7074C969.921 49.6676 969.668 49.6477 969.401 49.6477C968.765 49.6477 968.197 49.7812 967.697 50.0483C967.202 50.3097 966.81 50.6733 966.521 51.1392C966.237 51.5994 966.094 52.125 966.094 52.7159V61H964.083ZM977.558 61.2727C976.467 61.2727 975.504 60.9972 974.668 60.446C973.833 59.8892 973.18 59.1051 972.708 58.0938C972.237 57.0767 972.001 55.875 972.001 54.4886C972.001 53.1136 972.237 51.9205 972.708 50.9091C973.18 49.8977 973.836 49.1165 974.677 48.5653C975.518 48.0142 976.489 47.7386 977.592 47.7386C978.444 47.7386 979.117 47.8807 979.612 48.1648C980.112 48.4432 980.492 48.7614 980.754 49.1193C981.021 49.4716 981.228 49.7614 981.376 49.9886H981.546V43.5455H983.558V61H981.614V58.9886H981.376C981.228 59.2273 981.018 59.5284 980.745 59.892C980.472 60.25 980.083 60.571 979.577 60.8551C979.072 61.1335 978.398 61.2727 977.558 61.2727ZM977.83 59.4659C978.637 59.4659 979.319 59.2557 979.876 58.8352C980.433 58.4091 980.856 57.821 981.146 57.071C981.435 56.3153 981.58 55.4432 981.58 54.4545C981.58 53.4773 981.438 52.6222 981.154 51.8892C980.87 51.1506 980.45 50.5767 979.893 50.1676C979.336 49.7528 978.648 49.5455 977.83 49.5455C976.978 49.5455 976.268 49.7642 975.7 50.2017C975.137 50.6335 974.714 51.2216 974.43 51.9659C974.151 52.7045 974.012 53.5341 974.012 54.4545C974.012 55.3864 974.154 56.233 974.438 56.9943C974.728 57.75 975.154 58.3523 975.717 58.8011C976.285 59.2443 976.989 59.4659 977.83 59.4659Z" fill="black"/>
<rect x="1227" y="32" width="167" height="44" fill="#D9D9D9"/>
<path d="M1268.16 49H1266.05C1265.92 48.392 1265.7 47.858 1265.39 47.3977C1265.08 46.9375 1264.71 46.5511 1264.26 46.2386C1263.83 45.9205 1263.34 45.6818 1262.81 45.5227C1262.27 45.3636 1261.72 45.2841 1261.14 45.2841C1260.08 45.2841 1259.12 45.5511 1258.26 46.0852C1257.41 46.6193 1256.73 47.4062 1256.23 48.446C1255.73 49.4858 1255.48 50.7614 1255.48 52.2727C1255.48 53.7841 1255.73 55.0597 1256.23 56.0994C1256.73 57.1392 1257.41 57.9261 1258.26 58.4602C1259.12 58.9943 1260.08 59.2614 1261.14 59.2614C1261.72 59.2614 1262.27 59.1818 1262.81 59.0227C1263.34 58.8636 1263.83 58.6278 1264.26 58.3153C1264.71 57.9972 1265.08 57.608 1265.39 57.1477C1265.7 56.6818 1265.92 56.1477 1266.05 55.5455H1268.16C1268 56.4375 1267.71 57.2358 1267.29 57.9403C1266.87 58.6449 1266.35 59.2443 1265.72 59.7386C1265.1 60.2273 1264.39 60.5994 1263.62 60.8551C1262.84 61.1108 1262.02 61.2386 1261.14 61.2386C1259.65 61.2386 1258.32 60.875 1257.16 60.1477C1256.01 59.4205 1255.09 58.3864 1254.43 57.0455C1253.76 55.7045 1253.43 54.1136 1253.43 52.2727C1253.43 50.4318 1253.76 48.8409 1254.43 47.5C1255.09 46.1591 1256.01 45.125 1257.16 44.3977C1258.32 43.6705 1259.65 43.3068 1261.14 43.3068C1262.02 43.3068 1262.84 43.4347 1263.62 43.6903C1264.39 43.946 1265.1 44.321 1265.72 44.8153C1266.35 45.304 1266.87 45.9006 1267.29 46.6051C1267.71 47.304 1268 48.1023 1268.16 49ZM1276.62 61.2727C1275.44 61.2727 1274.4 60.9915 1273.51 60.429C1272.62 59.8665 1271.93 59.0795 1271.43 58.0682C1270.94 57.0568 1270.69 55.875 1270.69 54.5227C1270.69 53.1591 1270.94 51.9687 1271.43 50.9517C1271.93 49.9347 1272.62 49.1449 1273.51 48.5824C1274.4 48.0199 1275.44 47.7386 1276.62 47.7386C1277.8 47.7386 1278.84 48.0199 1279.72 48.5824C1280.61 49.1449 1281.31 49.9347 1281.8 50.9517C1282.3 51.9687 1282.55 53.1591 1282.55 54.5227C1282.55 55.875 1282.3 57.0568 1281.8 58.0682C1281.31 59.0795 1280.61 59.8665 1279.72 60.429C1278.84 60.9915 1277.8 61.2727 1276.62 61.2727ZM1276.62 59.4659C1277.52 59.4659 1278.26 59.2358 1278.84 58.7756C1279.42 58.3153 1279.84 57.7102 1280.12 56.9602C1280.4 56.2102 1280.54 55.3977 1280.54 54.5227C1280.54 53.6477 1280.4 52.8324 1280.12 52.0767C1279.84 51.321 1279.42 50.7102 1278.84 50.2443C1278.26 49.7784 1277.52 49.5455 1276.62 49.5455C1275.72 49.5455 1274.98 49.7784 1274.4 50.2443C1273.82 50.7102 1273.4 51.321 1273.12 52.0767C1272.84 52.8324 1272.7 53.6477 1272.7 54.5227C1272.7 55.3977 1272.84 56.2102 1273.12 56.9602C1273.4 57.7102 1273.82 58.3153 1274.4 58.7756C1274.98 59.2358 1275.72 59.4659 1276.62 59.4659ZM1287.63 53.125V61H1285.62V47.9091H1287.57V49.9545H1287.74C1288.04 49.2898 1288.51 48.7557 1289.13 48.3523C1289.76 47.9432 1290.57 47.7386 1291.55 47.7386C1292.44 47.7386 1293.22 47.9205 1293.88 48.2841C1294.55 48.642 1295.06 49.1875 1295.43 49.9205C1295.8 50.6477 1295.99 51.5682 1295.99 52.6818V61H1293.97V52.8182C1293.97 51.7898 1293.71 50.9886 1293.17 50.4148C1292.64 49.8352 1291.91 49.5455 1290.97 49.5455C1290.33 49.5455 1289.76 49.6847 1289.25 49.9631C1288.75 50.2415 1288.36 50.6477 1288.07 51.1818C1287.78 51.7159 1287.63 52.3636 1287.63 53.125ZM1301.67 53.125V61H1299.66V47.9091H1301.6V49.9545H1301.77C1302.08 49.2898 1302.55 48.7557 1303.17 48.3523C1303.8 47.9432 1304.6 47.7386 1305.59 47.7386C1306.48 47.7386 1307.25 47.9205 1307.92 48.2841C1308.58 48.642 1309.1 49.1875 1309.47 49.9205C1309.84 50.6477 1310.02 51.5682 1310.02 52.6818V61H1308.01V52.8182C1308.01 51.7898 1307.75 50.9886 1307.21 50.4148C1306.68 49.8352 1305.95 49.5455 1305.01 49.5455C1304.37 49.5455 1303.8 49.6847 1303.29 49.9631C1302.79 50.2415 1302.4 50.6477 1302.11 51.1818C1301.82 51.7159 1301.67 52.3636 1301.67 53.125ZM1319.19 61.2727C1317.93 61.2727 1316.84 60.9943 1315.92 60.4375C1315.02 59.875 1314.31 59.0909 1313.82 58.0852C1313.33 57.0739 1313.09 55.8977 1313.09 54.5568C1313.09 53.2159 1313.33 52.0341 1313.82 51.0114C1314.31 49.983 1315 49.1818 1315.88 48.608C1316.77 48.0284 1317.8 47.7386 1318.98 47.7386C1319.67 47.7386 1320.34 47.8523 1321 48.0795C1321.67 48.3068 1322.27 48.6761 1322.82 49.1875C1323.37 49.6932 1323.8 50.3636 1324.12 51.1989C1324.45 52.0341 1324.61 53.0625 1324.61 54.2841V55.1364H1314.52V53.3977H1322.56C1322.56 52.6591 1322.42 52 1322.12 51.4205C1321.83 50.8409 1321.42 50.3835 1320.88 50.0483C1320.34 49.7131 1319.71 49.5455 1318.98 49.5455C1318.18 49.5455 1317.49 49.7443 1316.9 50.142C1316.33 50.5341 1315.88 51.0455 1315.57 51.6761C1315.25 52.3068 1315.1 52.983 1315.1 53.7045V54.8636C1315.1 55.8523 1315.27 56.6903 1315.61 57.3778C1315.96 58.0597 1316.44 58.5795 1317.05 58.9375C1317.66 59.2898 1318.38 59.4659 1319.19 59.4659C1319.72 59.4659 1320.19 59.392 1320.62 59.2443C1321.05 59.0909 1321.42 58.8636 1321.74 58.5625C1322.05 58.2557 1322.29 57.875 1322.46 57.4205L1324.4 57.9659C1324.2 58.625 1323.86 59.2045 1323.37 59.7045C1322.89 60.1989 1322.29 60.5852 1321.58 60.8636C1320.87 61.1364 1320.08 61.2727 1319.19 61.2727ZM1328.82 47.9091L1331.95 53.2614L1335.09 47.9091H1337.41L1333.18 54.4545L1337.41 61H1335.09L1331.95 55.9205L1328.82 61H1326.5L1330.66 54.4545L1326.5 47.9091H1328.82ZM1340.28 61V47.9091H1342.29V61H1340.28ZM1341.3 45.7273C1340.91 45.7273 1340.57 45.5938 1340.29 45.3267C1340.01 45.0597 1339.87 44.7386 1339.87 44.3636C1339.87 43.9886 1340.01 43.6676 1340.29 43.4006C1340.57 43.1335 1340.91 43 1341.3 43C1341.69 43 1342.03 43.1335 1342.31 43.4006C1342.59 43.6676 1342.73 43.9886 1342.73 44.3636C1342.73 44.7386 1342.59 45.0597 1342.31 45.3267C1342.03 45.5938 1341.69 45.7273 1341.3 45.7273ZM1351.29 61.2727C1350.11 61.2727 1349.07 60.9915 1348.18 60.429C1347.29 59.8665 1346.6 59.0795 1346.1 58.0682C1345.61 57.0568 1345.36 55.875 1345.36 54.5227C1345.36 53.1591 1345.61 51.9687 1346.1 50.9517C1346.6 49.9347 1347.29 49.1449 1348.18 48.5824C1349.07 48.0199 1350.11 47.7386 1351.29 47.7386C1352.47 47.7386 1353.51 48.0199 1354.39 48.5824C1355.29 49.1449 1355.98 49.9347 1356.47 50.9517C1356.97 51.9687 1357.22 53.1591 1357.22 54.5227C1357.22 55.875 1356.97 57.0568 1356.47 58.0682C1355.98 59.0795 1355.29 59.8665 1354.39 60.429C1353.51 60.9915 1352.47 61.2727 1351.29 61.2727ZM1351.29 59.4659C1352.19 59.4659 1352.93 59.2358 1353.51 58.7756C1354.09 58.3153 1354.52 57.7102 1354.79 56.9602C1355.07 56.2102 1355.21 55.3977 1355.21 54.5227C1355.21 53.6477 1355.07 52.8324 1354.79 52.0767C1354.52 51.321 1354.09 50.7102 1353.51 50.2443C1352.93 49.7784 1352.19 49.5455 1351.29 49.5455C1350.39 49.5455 1349.66 49.7784 1349.08 50.2443C1348.5 50.7102 1348.07 51.321 1347.79 52.0767C1347.51 52.8324 1347.37 53.6477 1347.37 54.5227C1347.37 55.3977 1347.51 56.2102 1347.79 56.9602C1348.07 57.7102 1348.5 58.3153 1349.08 58.7756C1349.66 59.2358 1350.39 59.4659 1351.29 59.4659ZM1362.31 53.125V61H1360.29V47.9091H1362.24V49.9545H1362.41C1362.71 49.2898 1363.18 48.7557 1363.81 48.3523C1364.43 47.9432 1365.24 47.7386 1366.23 47.7386C1367.11 47.7386 1367.89 47.9205 1368.55 48.2841C1369.22 48.642 1369.73 49.1875 1370.1 49.9205C1370.47 50.6477 1370.66 51.5682 1370.66 52.6818V61H1368.65V52.8182C1368.65 51.7898 1368.38 50.9886 1367.85 50.4148C1367.31 49.8352 1366.58 49.5455 1365.65 49.5455C1365 49.5455 1364.43 49.6847 1363.92 49.9631C1363.42 50.2415 1363.03 50.6477 1362.74 51.1818C1362.45 51.7159 1362.31 52.3636 1362.31 53.125Z" fill="black"/>
<rect x="1029" y="32" width="167" height="44" fill="#D9D9D9"/>
<path d="M1058.23 43.5455V61H1056.11V43.5455H1058.23ZM1064.2 53.125V61H1062.19V47.9091H1064.14V49.9545H1064.31C1064.61 49.2898 1065.08 48.7557 1065.7 48.3523C1066.33 47.9432 1067.14 47.7386 1068.12 47.7386C1069.01 47.7386 1069.79 47.9205 1070.45 48.2841C1071.12 48.642 1071.63 49.1875 1072 49.9205C1072.37 50.6477 1072.56 51.5682 1072.56 52.6818V61H1070.54V52.8182C1070.54 51.7898 1070.28 50.9886 1069.74 50.4148C1069.21 49.8352 1068.48 49.5455 1067.54 49.5455C1066.9 49.5455 1066.33 49.6847 1065.82 49.9631C1065.32 50.2415 1064.93 50.6477 1064.64 51.1818C1064.35 51.7159 1064.2 52.3636 1064.2 53.125ZM1085.5 50.8409L1083.7 51.3523C1083.58 51.0511 1083.42 50.7585 1083.19 50.4744C1082.98 50.1847 1082.68 49.946 1082.31 49.7585C1081.93 49.571 1081.45 49.4773 1080.87 49.4773C1080.07 49.4773 1079.4 49.6619 1078.87 50.0312C1078.34 50.3949 1078.07 50.858 1078.07 51.4205C1078.07 51.9205 1078.25 52.3153 1078.62 52.6051C1078.98 52.8949 1079.55 53.1364 1080.32 53.3295L1082.27 53.8068C1083.44 54.0909 1084.31 54.5256 1084.88 55.1108C1085.46 55.6903 1085.74 56.4375 1085.74 57.3523C1085.74 58.1023 1085.53 58.7727 1085.1 59.3636C1084.67 59.9545 1084.07 60.4205 1083.31 60.7614C1082.54 61.1023 1081.65 61.2727 1080.63 61.2727C1079.29 61.2727 1078.19 60.983 1077.31 60.4034C1076.44 59.8239 1075.88 58.9773 1075.65 57.8636L1077.56 57.3864C1077.74 58.0909 1078.09 58.6193 1078.59 58.9716C1079.1 59.3239 1079.77 59.5 1080.6 59.5C1081.53 59.5 1082.28 59.3011 1082.83 58.9034C1083.38 58.5 1083.66 58.017 1083.66 57.4545C1083.66 57 1083.5 56.6193 1083.19 56.3125C1082.87 56 1082.38 55.767 1081.72 55.6136L1079.54 55.1023C1078.34 54.8182 1077.46 54.3778 1076.9 53.7812C1076.34 53.179 1076.06 52.4261 1076.06 51.5227C1076.06 50.7841 1076.27 50.1307 1076.68 49.5625C1077.1 48.9943 1077.67 48.5483 1078.4 48.2244C1079.12 47.9006 1079.95 47.7386 1080.87 47.7386C1082.16 47.7386 1083.18 48.0227 1083.92 48.5909C1084.66 49.1591 1085.19 49.9091 1085.5 50.8409ZM1094.09 61.2727C1092.86 61.2727 1091.8 60.983 1090.92 60.4034C1090.03 59.8239 1089.35 59.0256 1088.87 58.0085C1088.4 56.9915 1088.16 55.8295 1088.16 54.5227C1088.16 53.1932 1088.4 52.0199 1088.89 51.0028C1089.38 49.9801 1090.07 49.1818 1090.95 48.608C1091.84 48.0284 1092.87 47.7386 1094.05 47.7386C1094.98 47.7386 1095.8 47.9091 1096.54 48.25C1097.28 48.5909 1097.89 49.0682 1098.36 49.6818C1098.83 50.2955 1099.12 51.0114 1099.24 51.8295H1097.23C1097.07 51.233 1096.73 50.7045 1096.2 50.2443C1095.68 49.7784 1094.98 49.5455 1094.09 49.5455C1093.3 49.5455 1092.62 49.75 1092.03 50.1591C1091.44 50.5625 1090.98 51.1335 1090.65 51.8722C1090.33 52.6051 1090.17 53.4659 1090.17 54.4545C1090.17 55.4659 1090.33 56.3466 1090.65 57.0966C1090.97 57.8466 1091.42 58.429 1092.01 58.8438C1092.6 59.2585 1093.29 59.4659 1094.09 59.4659C1094.61 59.4659 1095.09 59.375 1095.51 59.1932C1095.94 59.0114 1096.3 58.75 1096.59 58.4091C1096.89 58.0682 1097.1 57.6591 1097.23 57.1818H1099.24C1099.12 57.9545 1098.84 58.6506 1098.39 59.2699C1097.95 59.8835 1097.36 60.3722 1096.63 60.7358C1095.9 61.0938 1095.05 61.2727 1094.09 61.2727ZM1102.18 61V47.9091H1104.12V49.8864H1104.26C1104.5 49.2386 1104.93 48.7131 1105.55 48.3097C1106.18 47.9062 1106.88 47.7045 1107.67 47.7045C1107.81 47.7045 1108 47.7074 1108.22 47.7131C1108.44 47.7187 1108.61 47.7273 1108.72 47.7386V49.7841C1108.65 49.767 1108.5 49.7415 1108.25 49.7074C1108.01 49.6676 1107.76 49.6477 1107.5 49.6477C1106.86 49.6477 1106.29 49.7812 1105.79 50.0483C1105.3 50.3097 1104.9 50.6733 1104.61 51.1392C1104.33 51.5994 1104.19 52.125 1104.19 52.7159V61H1102.18ZM1111.11 61V47.9091H1113.12V61H1111.11ZM1112.13 45.7273C1111.74 45.7273 1111.4 45.5938 1111.12 45.3267C1110.84 45.0597 1110.7 44.7386 1110.7 44.3636C1110.7 43.9886 1110.84 43.6676 1111.12 43.4006C1111.4 43.1335 1111.74 43 1112.13 43C1112.52 43 1112.86 43.1335 1113.13 43.4006C1113.42 43.6676 1113.56 43.9886 1113.56 44.3636C1113.56 44.7386 1113.42 45.0597 1113.13 45.3267C1112.86 45.5938 1112.52 45.7273 1112.13 45.7273ZM1116.8 65.9091V47.9091H1118.75V49.9886H1118.98C1119.13 49.7614 1119.34 49.4716 1119.6 49.1193C1119.86 48.7614 1120.25 48.4432 1120.74 48.1648C1121.24 47.8807 1121.92 47.7386 1122.77 47.7386C1123.87 47.7386 1124.84 48.0142 1125.68 48.5653C1126.52 49.1165 1127.18 49.8977 1127.65 50.9091C1128.12 51.9205 1128.36 53.1136 1128.36 54.4886C1128.36 55.875 1128.12 57.0767 1127.65 58.0938C1127.18 59.1051 1126.53 59.8892 1125.69 60.446C1124.86 60.9972 1123.89 61.2727 1122.8 61.2727C1121.96 61.2727 1121.29 61.1335 1120.78 60.8551C1120.28 60.571 1119.89 60.25 1119.61 59.892C1119.34 59.5284 1119.13 59.2273 1118.98 58.9886H1118.81V65.9091H1116.8ZM1118.78 54.4545C1118.78 55.4432 1118.92 56.3153 1119.21 57.071C1119.5 57.821 1119.93 58.4091 1120.48 58.8352C1121.04 59.2557 1121.72 59.4659 1122.53 59.4659C1123.37 59.4659 1124.07 59.2443 1124.63 58.8011C1125.2 58.3523 1125.63 57.75 1125.91 56.9943C1126.2 56.233 1126.35 55.3864 1126.35 54.4545C1126.35 53.5341 1126.21 52.7045 1125.92 51.9659C1125.64 51.2216 1125.22 50.6335 1124.65 50.2017C1124.09 49.7642 1123.38 49.5455 1122.53 49.5455C1121.71 49.5455 1121.02 49.7528 1120.47 50.1676C1119.91 50.5767 1119.49 51.1506 1119.21 51.8892C1118.92 52.6222 1118.78 53.4773 1118.78 54.4545ZM1137.12 47.9091V49.6136H1130.34V47.9091H1137.12ZM1132.31 44.7727H1134.32V57.25C1134.32 57.8182 1134.41 58.2443 1134.57 58.5284C1134.74 58.8068 1134.96 58.9943 1135.22 59.0909C1135.49 59.1818 1135.77 59.2273 1136.06 59.2273C1136.28 59.2273 1136.47 59.2159 1136.61 59.1932C1136.75 59.1648 1136.86 59.142 1136.95 59.125L1137.36 60.9318C1137.22 60.983 1137.03 61.0341 1136.79 61.0852C1136.54 61.142 1136.23 61.1705 1135.86 61.1705C1135.29 61.1705 1134.73 61.0483 1134.19 60.804C1133.65 60.5597 1133.2 60.1875 1132.84 59.6875C1132.49 59.1875 1132.31 58.5568 1132.31 57.7955V44.7727ZM1140.15 61V47.9091H1142.16V61H1140.15ZM1141.17 45.7273C1140.78 45.7273 1140.44 45.5938 1140.15 45.3267C1139.88 45.0597 1139.74 44.7386 1139.74 44.3636C1139.74 43.9886 1139.88 43.6676 1140.15 43.4006C1140.44 43.1335 1140.78 43 1141.17 43C1141.56 43 1141.9 43.1335 1142.17 43.4006C1142.46 43.6676 1142.6 43.9886 1142.6 44.3636C1142.6 44.7386 1142.46 45.0597 1142.17 45.3267C1141.9 45.5938 1141.56 45.7273 1141.17 45.7273ZM1151.16 61.2727C1149.98 61.2727 1148.94 60.9915 1148.05 60.429C1147.16 59.8665 1146.47 59.0795 1145.97 58.0682C1145.47 57.0568 1145.23 55.875 1145.23 54.5227C1145.23 53.1591 1145.47 51.9687 1145.97 50.9517C1146.47 49.9347 1147.16 49.1449 1148.05 48.5824C1148.94 48.0199 1149.98 47.7386 1151.16 47.7386C1152.34 47.7386 1153.38 48.0199 1154.26 48.5824C1155.15 49.1449 1155.85 49.9347 1156.34 50.9517C1156.84 51.9687 1157.09 53.1591 1157.09 54.5227C1157.09 55.875 1156.84 57.0568 1156.34 58.0682C1155.85 59.0795 1155.15 59.8665 1154.26 60.429C1153.38 60.9915 1152.34 61.2727 1151.16 61.2727ZM1151.16 59.4659C1152.06 59.4659 1152.8 59.2358 1153.38 58.7756C1153.95 58.3153 1154.38 57.7102 1154.66 56.9602C1154.94 56.2102 1155.08 55.3977 1155.08 54.5227C1155.08 53.6477 1154.94 52.8324 1154.66 52.0767C1154.38 51.321 1153.95 50.7102 1153.38 50.2443C1152.8 49.7784 1152.06 49.5455 1151.16 49.5455C1150.26 49.5455 1149.52 49.7784 1148.94 50.2443C1148.36 50.7102 1147.93 51.321 1147.66 52.0767C1147.38 52.8324 1147.24 53.6477 1147.24 54.5227C1147.24 55.3977 1147.38 56.2102 1147.66 56.9602C1147.93 57.7102 1148.36 58.3153 1148.94 58.7756C1149.52 59.2358 1150.26 59.4659 1151.16 59.4659ZM1162.17 53.125V61H1160.16V47.9091H1162.1V49.9545H1162.27C1162.58 49.2898 1163.05 48.7557 1163.67 48.3523C1164.3 47.9432 1165.1 47.7386 1166.09 47.7386C1166.98 47.7386 1167.75 47.9205 1168.42 48.2841C1169.08 48.642 1169.6 49.1875 1169.97 49.9205C1170.34 50.6477 1170.52 51.5682 1170.52 52.6818V61H1168.51V52.8182C1168.51 51.7898 1168.25 50.9886 1167.71 50.4148C1167.18 49.8352 1166.45 49.5455 1165.51 49.5455C1164.87 49.5455 1164.3 49.6847 1163.79 49.9631C1163.29 50.2415 1162.9 50.6477 1162.61 51.1818C1162.32 51.7159 1162.17 52.3636 1162.17 53.125Z" fill="black"/>
<path d="M690.47 399.565C690.402 398.878 690.109 398.344 689.592 397.963C689.075 397.582 688.374 397.392 687.487 397.392C686.885 397.392 686.376 397.477 685.962 397.648C685.547 397.812 685.229 398.043 685.007 398.338C684.791 398.634 684.683 398.969 684.683 399.344C684.672 399.656 684.737 399.929 684.879 400.162C685.027 400.395 685.229 400.597 685.484 400.767C685.74 400.932 686.036 401.077 686.371 401.202C686.706 401.321 687.064 401.423 687.445 401.509L689.013 401.884C689.774 402.054 690.473 402.281 691.109 402.565C691.746 402.849 692.297 403.199 692.763 403.614C693.229 404.028 693.589 404.517 693.845 405.08C694.107 405.642 694.24 406.287 694.246 407.014C694.24 408.082 693.967 409.009 693.428 409.793C692.893 410.571 692.121 411.176 691.109 411.608C690.104 412.034 688.891 412.247 687.47 412.247C686.061 412.247 684.834 412.031 683.788 411.599C682.749 411.168 681.936 410.528 681.351 409.682C680.771 408.83 680.467 407.776 680.439 406.52H684.01C684.05 407.105 684.217 407.594 684.513 407.986C684.814 408.372 685.214 408.665 685.714 408.864C686.22 409.057 686.791 409.153 687.428 409.153C688.053 409.153 688.595 409.062 689.055 408.881C689.521 408.699 689.882 408.446 690.138 408.122C690.393 407.798 690.521 407.426 690.521 407.006C690.521 406.614 690.405 406.284 690.172 406.017C689.945 405.75 689.609 405.523 689.166 405.335C688.729 405.148 688.192 404.977 687.555 404.824L685.655 404.347C684.183 403.989 683.021 403.429 682.169 402.668C681.317 401.906 680.893 400.881 680.899 399.591C680.893 398.534 681.175 397.611 681.743 396.821C682.317 396.031 683.104 395.415 684.104 394.972C685.104 394.528 686.24 394.307 687.513 394.307C688.808 394.307 689.939 394.528 690.905 394.972C691.876 395.415 692.632 396.031 693.172 396.821C693.712 397.611 693.99 398.526 694.007 399.565H690.47ZM702.626 412.256C701.279 412.256 700.12 411.983 699.148 411.438C698.183 410.886 697.438 410.108 696.915 409.102C696.393 408.091 696.131 406.895 696.131 405.514C696.131 404.168 696.393 402.986 696.915 401.969C697.438 400.952 698.174 400.159 699.123 399.591C700.077 399.023 701.197 398.739 702.481 398.739C703.344 398.739 704.148 398.878 704.893 399.156C705.643 399.429 706.296 399.841 706.853 400.392C707.415 400.943 707.853 401.636 708.165 402.472C708.478 403.301 708.634 404.273 708.634 405.386V406.384H697.58V404.134H705.217C705.217 403.611 705.103 403.148 704.876 402.744C704.648 402.341 704.333 402.026 703.93 401.798C703.532 401.565 703.069 401.449 702.54 401.449C701.989 401.449 701.501 401.577 701.075 401.832C700.654 402.082 700.325 402.42 700.086 402.847C699.847 403.267 699.725 403.736 699.719 404.253V406.392C699.719 407.04 699.839 407.599 700.077 408.071C700.322 408.543 700.665 408.906 701.109 409.162C701.552 409.418 702.077 409.545 702.685 409.545C703.089 409.545 703.458 409.489 703.793 409.375C704.129 409.261 704.415 409.091 704.654 408.864C704.893 408.636 705.075 408.358 705.2 408.028L708.558 408.25C708.387 409.057 708.038 409.761 707.509 410.364C706.987 410.96 706.31 411.426 705.481 411.761C704.657 412.091 703.705 412.256 702.626 412.256ZM732.027 400.656H728.294C728.226 400.173 728.087 399.744 727.876 399.369C727.666 398.989 727.396 398.665 727.067 398.398C726.737 398.131 726.357 397.926 725.925 397.784C725.499 397.642 725.036 397.571 724.536 397.571C723.632 397.571 722.845 397.795 722.175 398.244C721.504 398.687 720.984 399.335 720.615 400.188C720.246 401.034 720.061 402.062 720.061 403.273C720.061 404.517 720.246 405.562 720.615 406.409C720.99 407.256 721.513 407.895 722.183 408.327C722.854 408.759 723.629 408.974 724.51 408.974C725.004 408.974 725.462 408.909 725.882 408.778C726.308 408.648 726.686 408.457 727.016 408.207C727.345 407.952 727.618 407.642 727.834 407.278C728.055 406.915 728.209 406.5 728.294 406.034L732.027 406.051C731.93 406.852 731.689 407.625 731.303 408.369C730.922 409.108 730.408 409.77 729.76 410.355C729.118 410.935 728.351 411.395 727.459 411.736C726.572 412.071 725.57 412.239 724.45 412.239C722.893 412.239 721.501 411.886 720.274 411.182C719.053 410.477 718.087 409.457 717.376 408.122C716.672 406.787 716.32 405.17 716.32 403.273C716.32 401.369 716.678 399.75 717.393 398.415C718.109 397.08 719.081 396.062 720.308 395.364C721.536 394.659 722.916 394.307 724.45 394.307C725.462 394.307 726.399 394.449 727.263 394.733C728.132 395.017 728.902 395.432 729.572 395.977C730.243 396.517 730.788 397.179 731.209 397.963C731.635 398.747 731.908 399.645 732.027 400.656ZM740.52 412.256C739.196 412.256 738.051 411.974 737.085 411.412C736.125 410.844 735.384 410.054 734.861 409.043C734.338 408.026 734.077 406.847 734.077 405.506C734.077 404.153 734.338 402.972 734.861 401.96C735.384 400.943 736.125 400.153 737.085 399.591C738.051 399.023 739.196 398.739 740.52 398.739C741.844 398.739 742.986 399.023 743.946 399.591C744.912 400.153 745.656 400.943 746.179 401.96C746.702 402.972 746.963 404.153 746.963 405.506C746.963 406.847 746.702 408.026 746.179 409.043C745.656 410.054 744.912 410.844 743.946 411.412C742.986 411.974 741.844 412.256 740.52 412.256ZM740.537 409.443C741.139 409.443 741.642 409.273 742.045 408.932C742.449 408.585 742.753 408.114 742.957 407.517C743.168 406.92 743.273 406.241 743.273 405.48C743.273 404.719 743.168 404.04 742.957 403.443C742.753 402.847 742.449 402.375 742.045 402.028C741.642 401.682 741.139 401.509 740.537 401.509C739.929 401.509 739.418 401.682 739.003 402.028C738.594 402.375 738.284 402.847 738.074 403.443C737.869 404.04 737.767 404.719 737.767 405.48C737.767 406.241 737.869 406.92 738.074 407.517C738.284 408.114 738.594 408.585 739.003 408.932C739.418 409.273 739.929 409.443 740.537 409.443ZM752.955 404.432V412H749.324V398.909H752.784V401.219H752.938C753.227 400.457 753.713 399.855 754.395 399.412C755.077 398.963 755.903 398.739 756.875 398.739C757.784 398.739 758.577 398.938 759.253 399.335C759.929 399.733 760.455 400.301 760.83 401.04C761.205 401.773 761.392 402.648 761.392 403.665V412H757.761V404.312C757.767 403.511 757.563 402.886 757.148 402.438C756.733 401.983 756.162 401.756 755.435 401.756C754.946 401.756 754.514 401.861 754.139 402.071C753.77 402.281 753.48 402.588 753.27 402.991C753.065 403.389 752.96 403.869 752.955 404.432ZM767.884 404.432V412H764.254V398.909H767.714V401.219H767.867C768.157 400.457 768.643 399.855 769.325 399.412C770.006 398.963 770.833 398.739 771.805 398.739C772.714 398.739 773.506 398.938 774.183 399.335C774.859 399.733 775.384 400.301 775.759 401.04C776.134 401.773 776.322 402.648 776.322 403.665V412H772.691V404.312C772.697 403.511 772.492 402.886 772.077 402.438C771.663 401.983 771.092 401.756 770.364 401.756C769.876 401.756 769.444 401.861 769.069 402.071C768.7 402.281 768.41 402.588 768.2 402.991C767.995 403.389 767.89 403.869 767.884 404.432ZM785.149 412.256C783.803 412.256 782.643 411.983 781.672 411.438C780.706 410.886 779.962 410.108 779.439 409.102C778.916 408.091 778.655 406.895 778.655 405.514C778.655 404.168 778.916 402.986 779.439 401.969C779.962 400.952 780.697 400.159 781.646 399.591C782.601 399.023 783.72 398.739 785.004 398.739C785.868 398.739 786.672 398.878 787.416 399.156C788.166 399.429 788.82 399.841 789.376 400.392C789.939 400.943 790.376 401.636 790.689 402.472C791.001 403.301 791.158 404.273 791.158 405.386V406.384H780.104V404.134H787.74C787.74 403.611 787.626 403.148 787.399 402.744C787.172 402.341 786.857 402.026 786.453 401.798C786.055 401.565 785.592 401.449 785.064 401.449C784.513 401.449 784.024 401.577 783.598 401.832C783.178 402.082 782.848 402.42 782.609 402.847C782.371 403.267 782.249 403.736 782.243 404.253V406.392C782.243 407.04 782.362 407.599 782.601 408.071C782.845 408.543 783.189 408.906 783.632 409.162C784.075 409.418 784.601 409.545 785.209 409.545C785.612 409.545 785.982 409.489 786.317 409.375C786.652 409.261 786.939 409.091 787.178 408.864C787.416 408.636 787.598 408.358 787.723 408.028L791.081 408.25C790.911 409.057 790.561 409.761 790.033 410.364C789.51 410.96 788.834 411.426 788.004 411.761C787.18 412.091 786.229 412.256 785.149 412.256ZM799.442 412.256C798.101 412.256 796.947 411.972 795.982 411.403C795.021 410.83 794.283 410.034 793.766 409.017C793.254 408 792.999 406.83 792.999 405.506C792.999 404.165 793.257 402.989 793.774 401.977C794.297 400.96 795.038 400.168 795.999 399.599C796.959 399.026 798.101 398.739 799.425 398.739C800.567 398.739 801.567 398.946 802.425 399.361C803.283 399.776 803.962 400.358 804.462 401.108C804.962 401.858 805.237 402.739 805.288 403.75H801.862C801.766 403.097 801.51 402.571 801.095 402.173C800.686 401.77 800.149 401.568 799.484 401.568C798.922 401.568 798.43 401.722 798.01 402.028C797.595 402.33 797.271 402.77 797.038 403.349C796.805 403.929 796.689 404.631 796.689 405.455C796.689 406.29 796.803 407 797.03 407.585C797.263 408.17 797.589 408.616 798.01 408.923C798.43 409.23 798.922 409.384 799.484 409.384C799.899 409.384 800.271 409.298 800.601 409.128C800.936 408.957 801.212 408.71 801.428 408.386C801.649 408.057 801.794 407.662 801.862 407.202H805.288C805.232 408.202 804.959 409.082 804.47 409.844C803.987 410.599 803.32 411.19 802.467 411.616C801.615 412.043 800.607 412.256 799.442 412.256ZM814.576 398.909V401.636H806.692V398.909H814.576ZM808.482 395.773H812.113V407.977C812.113 408.312 812.164 408.574 812.266 408.761C812.369 408.943 812.511 409.071 812.692 409.145C812.88 409.219 813.096 409.256 813.34 409.256C813.511 409.256 813.681 409.241 813.852 409.213C814.022 409.179 814.153 409.153 814.244 409.136L814.815 411.838C814.633 411.895 814.377 411.96 814.048 412.034C813.718 412.114 813.317 412.162 812.846 412.179C811.971 412.213 811.204 412.097 810.545 411.83C809.891 411.562 809.383 411.148 809.019 410.585C808.656 410.023 808.477 409.312 808.482 408.455V395.773ZM822.766 412.256C821.42 412.256 820.261 411.983 819.289 411.438C818.323 410.886 817.579 410.108 817.056 409.102C816.533 408.091 816.272 406.895 816.272 405.514C816.272 404.168 816.533 402.986 817.056 401.969C817.579 400.952 818.315 400.159 819.263 399.591C820.218 399.023 821.337 398.739 822.621 398.739C823.485 398.739 824.289 398.878 825.033 399.156C825.783 399.429 826.437 399.841 826.994 400.392C827.556 400.943 827.994 401.636 828.306 402.472C828.619 403.301 828.775 404.273 828.775 405.386V406.384H817.721V404.134H825.357C825.357 403.611 825.244 403.148 825.016 402.744C824.789 402.341 824.474 402.026 824.07 401.798C823.673 401.565 823.21 401.449 822.681 401.449C822.13 401.449 821.641 401.577 821.215 401.832C820.795 402.082 820.465 402.42 820.227 402.847C819.988 403.267 819.866 403.736 819.86 404.253V406.392C819.86 407.04 819.979 407.599 820.218 408.071C820.462 408.543 820.806 408.906 821.249 409.162C821.692 409.418 822.218 409.545 822.826 409.545C823.229 409.545 823.599 409.489 823.934 409.375C824.269 409.261 824.556 409.091 824.795 408.864C825.033 408.636 825.215 408.358 825.34 408.028L828.698 408.25C828.528 409.057 828.178 409.761 827.65 410.364C827.127 410.96 826.451 411.426 825.621 411.761C824.798 412.091 823.846 412.256 822.766 412.256ZM831.144 412V398.909H834.664V401.193H834.8C835.039 400.381 835.44 399.767 836.002 399.352C836.565 398.932 837.212 398.722 837.945 398.722C838.127 398.722 838.323 398.733 838.533 398.756C838.744 398.778 838.928 398.81 839.087 398.849V402.071C838.917 402.02 838.681 401.974 838.38 401.935C838.079 401.895 837.803 401.875 837.553 401.875C837.019 401.875 836.542 401.991 836.121 402.224C835.707 402.452 835.377 402.77 835.133 403.179C834.894 403.588 834.775 404.06 834.775 404.594V412H831.144Z" fill="black"/>
<rect x="424.5" y="561.475" width="665.627" height="48.6148" rx="6.5" fill="#FCFCFC" stroke="black"/>
<path d="M499.261 577.207H501.783L507.715 591.696H507.92L513.852 577.207H516.374V594.661H514.397V581.4H514.227L508.772 594.661H506.863L501.408 581.4H501.238V594.661H499.261V577.207ZM525.658 594.934C524.476 594.934 523.439 594.653 522.547 594.09C521.661 593.528 520.967 592.741 520.467 591.73C519.973 590.718 519.726 589.536 519.726 588.184C519.726 586.821 519.973 585.63 520.467 584.613C520.967 583.596 521.661 582.806 522.547 582.244C523.439 581.681 524.476 581.4 525.658 581.4C526.84 581.4 527.874 581.681 528.76 582.244C529.652 582.806 530.345 583.596 530.84 584.613C531.34 585.63 531.59 586.821 531.59 588.184C531.59 589.536 531.34 590.718 530.84 591.73C530.345 592.741 529.652 593.528 528.76 594.09C527.874 594.653 526.84 594.934 525.658 594.934ZM525.658 593.127C526.555 593.127 527.294 592.897 527.874 592.437C528.453 591.977 528.882 591.372 529.161 590.622C529.439 589.872 529.578 589.059 529.578 588.184C529.578 587.309 529.439 586.494 529.161 585.738C528.882 584.983 528.453 584.372 527.874 583.906C527.294 583.44 526.555 583.207 525.658 583.207C524.76 583.207 524.021 583.44 523.442 583.906C522.862 584.372 522.433 584.983 522.155 585.738C521.876 586.494 521.737 587.309 521.737 588.184C521.737 589.059 521.876 589.872 522.155 590.622C522.433 591.372 522.862 591.977 523.442 592.437C524.021 592.897 524.76 593.127 525.658 593.127ZM540.353 581.571V583.275H533.569V581.571H540.353ZM535.546 578.434H537.558V590.911C537.558 591.48 537.64 591.906 537.805 592.19C537.975 592.468 538.191 592.656 538.452 592.752C538.72 592.843 539.001 592.889 539.296 592.889C539.518 592.889 539.7 592.877 539.842 592.855C539.984 592.826 540.097 592.804 540.183 592.786L540.592 594.593C540.455 594.644 540.265 594.696 540.021 594.747C539.776 594.804 539.467 594.832 539.092 594.832C538.524 594.832 537.967 594.71 537.421 594.465C536.881 594.221 536.433 593.849 536.075 593.349C535.722 592.849 535.546 592.218 535.546 591.457V578.434ZM555.072 594.934C553.981 594.934 553.018 594.659 552.183 594.108C551.347 593.551 550.694 592.767 550.222 591.755C549.751 590.738 549.515 589.536 549.515 588.15C549.515 586.775 549.751 585.582 550.222 584.571C550.694 583.559 551.35 582.778 552.191 582.227C553.032 581.676 554.004 581.4 555.106 581.4C555.958 581.4 556.631 581.542 557.126 581.826C557.626 582.105 558.006 582.423 558.268 582.781C558.535 583.133 558.742 583.423 558.89 583.65H559.06V577.207H561.072V594.661H559.129V592.65H558.89C558.742 592.889 558.532 593.19 558.259 593.554C557.987 593.911 557.597 594.233 557.092 594.517C556.586 594.795 555.913 594.934 555.072 594.934ZM555.345 593.127C556.151 593.127 556.833 592.917 557.39 592.497C557.947 592.071 558.37 591.483 558.66 590.733C558.95 589.977 559.095 589.105 559.095 588.116C559.095 587.139 558.952 586.284 558.668 585.551C558.384 584.812 557.964 584.238 557.407 583.829C556.85 583.414 556.163 583.207 555.345 583.207C554.492 583.207 553.782 583.426 553.214 583.863C552.651 584.295 552.228 584.883 551.944 585.627C551.666 586.366 551.526 587.196 551.526 588.116C551.526 589.048 551.668 589.894 551.952 590.656C552.242 591.411 552.668 592.014 553.231 592.463C553.799 592.906 554.504 593.127 555.345 593.127ZM570.524 594.934C569.262 594.934 568.174 594.656 567.259 594.099C566.35 593.536 565.649 592.752 565.154 591.747C564.666 590.735 564.421 589.559 564.421 588.218C564.421 586.877 564.666 585.696 565.154 584.673C565.649 583.644 566.336 582.843 567.217 582.269C568.103 581.69 569.137 581.4 570.319 581.4C571.001 581.4 571.674 581.514 572.339 581.741C573.004 581.968 573.609 582.338 574.154 582.849C574.7 583.355 575.134 584.025 575.458 584.86C575.782 585.696 575.944 586.724 575.944 587.946V588.798H565.853V587.059H573.899C573.899 586.321 573.751 585.661 573.455 585.082C573.166 584.502 572.751 584.045 572.211 583.71C571.677 583.375 571.046 583.207 570.319 583.207C569.518 583.207 568.825 583.406 568.239 583.804C567.66 584.196 567.214 584.707 566.901 585.338C566.589 585.968 566.433 586.644 566.433 587.366V588.525C566.433 589.514 566.603 590.352 566.944 591.039C567.291 591.721 567.771 592.241 568.384 592.599C568.998 592.951 569.711 593.127 570.524 593.127C571.052 593.127 571.529 593.054 571.955 592.906C572.387 592.752 572.759 592.525 573.072 592.224C573.384 591.917 573.626 591.536 573.796 591.082L575.739 591.627C575.535 592.286 575.191 592.866 574.708 593.366C574.225 593.86 573.629 594.247 572.918 594.525C572.208 594.798 571.41 594.934 570.524 594.934ZM585.754 599.571V581.571H587.697V583.65H587.935C588.083 583.423 588.288 583.133 588.549 582.781C588.816 582.423 589.197 582.105 589.691 581.826C590.191 581.542 590.867 581.4 591.72 581.4C592.822 581.4 593.793 581.676 594.634 582.227C595.475 582.778 596.131 583.559 596.603 584.571C597.075 585.582 597.31 586.775 597.31 588.15C597.31 589.536 597.075 590.738 596.603 591.755C596.131 592.767 595.478 593.551 594.643 594.108C593.808 594.659 592.845 594.934 591.754 594.934C590.913 594.934 590.239 594.795 589.734 594.517C589.228 594.233 588.839 593.911 588.566 593.554C588.293 593.19 588.083 592.889 587.935 592.65H587.765V599.571H585.754ZM587.731 588.116C587.731 589.105 587.876 589.977 588.166 590.733C588.455 591.483 588.879 592.071 589.435 592.497C589.992 592.917 590.674 593.127 591.481 593.127C592.322 593.127 593.024 592.906 593.586 592.463C594.154 592.014 594.58 591.411 594.864 590.656C595.154 589.894 595.299 589.048 595.299 588.116C595.299 587.196 595.157 586.366 594.873 585.627C594.595 584.883 594.171 584.295 593.603 583.863C593.041 583.426 592.333 583.207 591.481 583.207C590.663 583.207 589.975 583.414 589.418 583.829C588.862 584.238 588.441 584.812 588.157 585.551C587.873 586.284 587.731 587.139 587.731 588.116ZM604.231 594.968C603.401 594.968 602.649 594.812 601.972 594.5C601.296 594.181 600.759 593.724 600.362 593.127C599.964 592.525 599.765 591.798 599.765 590.946C599.765 590.196 599.913 589.588 600.208 589.122C600.504 588.65 600.899 588.281 601.393 588.014C601.887 587.747 602.433 587.548 603.029 587.417C603.631 587.281 604.237 587.173 604.845 587.093C605.64 586.991 606.285 586.914 606.779 586.863C607.279 586.806 607.643 586.713 607.87 586.582C608.103 586.451 608.22 586.224 608.22 585.9V585.832C608.22 584.991 607.989 584.338 607.529 583.872C607.075 583.406 606.384 583.173 605.458 583.173C604.498 583.173 603.745 583.383 603.2 583.804C602.654 584.224 602.271 584.673 602.049 585.15L600.14 584.468C600.481 583.673 600.935 583.054 601.504 582.61C602.077 582.161 602.702 581.849 603.379 581.673C604.06 581.491 604.731 581.4 605.39 581.4C605.81 581.4 606.293 581.451 606.839 581.554C607.39 581.65 607.921 581.852 608.433 582.159C608.95 582.465 609.379 582.929 609.72 583.548C610.06 584.167 610.231 584.997 610.231 586.036V594.661H608.22V592.889H608.117C607.981 593.173 607.754 593.477 607.435 593.801C607.117 594.125 606.694 594.4 606.166 594.627C605.637 594.855 604.992 594.968 604.231 594.968ZM604.538 593.161C605.333 593.161 606.004 593.005 606.549 592.693C607.1 592.38 607.515 591.977 607.793 591.483C608.077 590.988 608.22 590.468 608.22 589.923V588.082C608.134 588.184 607.947 588.278 607.657 588.363C607.373 588.443 607.043 588.514 606.668 588.576C606.299 588.633 605.938 588.684 605.586 588.73C605.239 588.769 604.958 588.804 604.742 588.832C604.22 588.9 603.731 589.011 603.276 589.164C602.827 589.312 602.464 589.536 602.185 589.838C601.913 590.133 601.776 590.536 601.776 591.048C601.776 591.747 602.035 592.275 602.552 592.633C603.075 592.985 603.737 593.161 604.538 593.161ZM623.175 584.502L621.368 585.014C621.254 584.713 621.087 584.42 620.865 584.136C620.649 583.846 620.354 583.608 619.979 583.42C619.604 583.233 619.124 583.139 618.538 583.139C617.737 583.139 617.07 583.323 616.536 583.693C616.007 584.056 615.743 584.519 615.743 585.082C615.743 585.582 615.925 585.977 616.288 586.267C616.652 586.556 617.22 586.798 617.993 586.991L619.936 587.468C621.107 587.752 621.979 588.187 622.553 588.772C623.126 589.352 623.413 590.099 623.413 591.014C623.413 591.764 623.198 592.434 622.766 593.025C622.34 593.616 621.743 594.082 620.976 594.423C620.209 594.764 619.317 594.934 618.3 594.934C616.965 594.934 615.859 594.644 614.984 594.065C614.109 593.485 613.555 592.639 613.323 591.525L615.232 591.048C615.413 591.752 615.757 592.281 616.263 592.633C616.774 592.985 617.442 593.161 618.266 593.161C619.203 593.161 619.948 592.963 620.499 592.565C621.055 592.161 621.334 591.679 621.334 591.116C621.334 590.661 621.175 590.281 620.857 589.974C620.538 589.661 620.05 589.429 619.391 589.275L617.209 588.764C616.01 588.48 615.129 588.039 614.567 587.443C614.01 586.84 613.732 586.088 613.732 585.184C613.732 584.446 613.939 583.792 614.354 583.224C614.774 582.656 615.345 582.21 616.067 581.886C616.794 581.562 617.618 581.4 618.538 581.4C619.834 581.4 620.851 581.684 621.59 582.252C622.334 582.821 622.862 583.571 623.175 584.502ZM635.714 584.502L633.907 585.014C633.793 584.713 633.626 584.42 633.404 584.136C633.188 583.846 632.893 583.608 632.518 583.42C632.143 583.233 631.663 583.139 631.077 583.139C630.276 583.139 629.609 583.323 629.075 583.693C628.546 584.056 628.282 584.519 628.282 585.082C628.282 585.582 628.464 585.977 628.827 586.267C629.191 586.556 629.759 586.798 630.532 586.991L632.475 587.468C633.646 587.752 634.518 588.187 635.092 588.772C635.666 589.352 635.952 590.099 635.952 591.014C635.952 591.764 635.737 592.434 635.305 593.025C634.879 593.616 634.282 594.082 633.515 594.423C632.748 594.764 631.856 594.934 630.839 594.934C629.504 594.934 628.399 594.644 627.524 594.065C626.649 593.485 626.095 592.639 625.862 591.525L627.771 591.048C627.952 591.752 628.296 592.281 628.802 592.633C629.313 592.985 629.981 593.161 630.805 593.161C631.742 593.161 632.487 592.963 633.038 592.565C633.595 592.161 633.873 591.679 633.873 591.116C633.873 590.661 633.714 590.281 633.396 589.974C633.077 589.661 632.589 589.429 631.93 589.275L629.748 588.764C628.549 588.48 627.668 588.039 627.106 587.443C626.549 586.84 626.271 586.088 626.271 585.184C626.271 584.446 626.478 583.792 626.893 583.224C627.313 582.656 627.884 582.21 628.606 581.886C629.333 581.562 630.157 581.4 631.077 581.4C632.373 581.4 633.39 581.684 634.129 582.252C634.873 582.821 635.401 583.571 635.714 584.502ZM644.469 594.934C643.207 594.934 642.119 594.656 641.205 594.099C640.296 593.536 639.594 592.752 639.1 591.747C638.611 590.735 638.367 589.559 638.367 588.218C638.367 586.877 638.611 585.696 639.1 584.673C639.594 583.644 640.281 582.843 641.162 582.269C642.048 581.69 643.082 581.4 644.264 581.4C644.946 581.4 645.619 581.514 646.284 581.741C646.949 581.968 647.554 582.338 648.1 582.849C648.645 583.355 649.08 584.025 649.403 584.86C649.727 585.696 649.889 586.724 649.889 587.946V588.798H639.798V587.059H647.844C647.844 586.321 647.696 585.661 647.401 585.082C647.111 584.502 646.696 584.045 646.156 583.71C645.622 583.375 644.992 583.207 644.264 583.207C643.463 583.207 642.77 583.406 642.185 583.804C641.605 584.196 641.159 584.707 640.847 585.338C640.534 585.968 640.378 586.644 640.378 587.366V588.525C640.378 589.514 640.548 590.352 640.889 591.039C641.236 591.721 641.716 592.241 642.33 592.599C642.943 592.951 643.656 593.127 644.469 593.127C644.997 593.127 645.475 593.054 645.901 592.906C646.332 592.752 646.705 592.525 647.017 592.224C647.33 591.917 647.571 591.536 647.742 591.082L649.685 591.627C649.48 592.286 649.136 592.866 648.653 593.366C648.171 593.86 647.574 594.247 646.864 594.525C646.153 594.798 645.355 594.934 644.469 594.934Z" fill="black"/>
<rect x="424.5" y="485.68" width="665.627" height="48.6148" rx="6.5" fill="#FCFCFC" stroke="black"/>
<path d="M499.261 518.866V501.412H509.795V503.287H501.374V509.185H509.249V511.06H501.374V516.991H509.931V518.866H499.261ZM513.332 518.866V505.776H515.275V507.821H515.445C515.718 507.122 516.158 506.58 516.766 506.193C517.374 505.801 518.104 505.605 518.957 505.605C519.82 505.605 520.539 505.801 521.113 506.193C521.693 506.58 522.144 507.122 522.468 507.821H522.604C522.94 507.145 523.443 506.608 524.113 506.21C524.783 505.807 525.587 505.605 526.525 505.605C527.695 505.605 528.653 505.972 529.397 506.705C530.141 507.432 530.514 508.565 530.514 510.105V518.866H528.502V510.105C528.502 509.139 528.238 508.449 527.71 508.034C527.181 507.619 526.559 507.412 525.843 507.412C524.923 507.412 524.21 507.69 523.704 508.247C523.198 508.798 522.945 509.497 522.945 510.344V518.866H520.9V509.901C520.9 509.156 520.658 508.557 520.176 508.102C519.693 507.642 519.07 507.412 518.309 507.412C517.786 507.412 517.298 507.551 516.843 507.83C516.394 508.108 516.031 508.494 515.752 508.989C515.479 509.477 515.343 510.043 515.343 510.685V518.866H513.332ZM538.043 519.173C537.214 519.173 536.461 519.017 535.785 518.705C535.109 518.386 534.572 517.929 534.174 517.332C533.776 516.73 533.577 516.003 533.577 515.151C533.577 514.401 533.725 513.793 534.021 513.327C534.316 512.855 534.711 512.486 535.205 512.219C535.7 511.952 536.245 511.753 536.842 511.622C537.444 511.486 538.049 511.378 538.657 511.298C539.452 511.196 540.097 511.119 540.592 511.068C541.092 511.011 541.455 510.918 541.683 510.787C541.916 510.656 542.032 510.429 542.032 510.105V510.037C542.032 509.196 541.802 508.543 541.342 508.077C540.887 507.611 540.197 507.378 539.271 507.378C538.31 507.378 537.558 507.588 537.012 508.009C536.467 508.429 536.083 508.878 535.862 509.355L533.952 508.673C534.293 507.878 534.748 507.259 535.316 506.815C535.89 506.366 536.515 506.054 537.191 505.878C537.873 505.696 538.543 505.605 539.202 505.605C539.623 505.605 540.106 505.656 540.651 505.758C541.202 505.855 541.734 506.057 542.245 506.364C542.762 506.67 543.191 507.134 543.532 507.753C543.873 508.372 544.043 509.202 544.043 510.241V518.866H542.032V517.094H541.93C541.793 517.378 541.566 517.682 541.248 518.006C540.93 518.33 540.506 518.605 539.978 518.832C539.45 519.06 538.805 519.173 538.043 519.173ZM538.35 517.366C539.146 517.366 539.816 517.21 540.362 516.898C540.913 516.585 541.327 516.182 541.606 515.687C541.89 515.193 542.032 514.673 542.032 514.128V512.287C541.947 512.389 541.759 512.483 541.47 512.568C541.185 512.648 540.856 512.719 540.481 512.781C540.112 512.838 539.751 512.889 539.399 512.935C539.052 512.974 538.771 513.009 538.555 513.037C538.032 513.105 537.543 513.216 537.089 513.369C536.64 513.517 536.276 513.741 535.998 514.043C535.725 514.338 535.589 514.741 535.589 515.253C535.589 515.952 535.847 516.48 536.364 516.838C536.887 517.19 537.549 517.366 538.35 517.366ZM547.715 518.866V505.776H549.726V518.866H547.715ZM548.737 503.594C548.345 503.594 548.007 503.46 547.723 503.193C547.445 502.926 547.305 502.605 547.305 502.23C547.305 501.855 547.445 501.534 547.723 501.267C548.007 501 548.345 500.866 548.737 500.866C549.129 500.866 549.465 501 549.743 501.267C550.027 501.534 550.169 501.855 550.169 502.23C550.169 502.605 550.027 502.926 549.743 503.193C549.465 503.46 549.129 503.594 548.737 503.594ZM555.421 501.412V518.866H553.41V501.412H555.421Z" fill="black"/>
<rect width="664.627" height="47.6148" transform="translate(427.186 637.77)" fill="#0F0E0E"/>
<rect x="426.686" y="637.27" width="665.627" height="48.6148" rx="6.5" fill="#150101" stroke="black"/>
<path d="M712.134 659.459H710.02C709.895 658.851 709.676 658.317 709.364 657.857C709.057 657.397 708.682 657.01 708.239 656.698C707.801 656.38 707.315 656.141 706.781 655.982C706.247 655.823 705.69 655.743 705.111 655.743C704.054 655.743 703.097 656.01 702.239 656.545C701.386 657.079 700.708 657.866 700.202 658.905C699.702 659.945 699.452 661.221 699.452 662.732C699.452 664.243 699.702 665.519 700.202 666.559C700.708 667.599 701.386 668.385 702.239 668.92C703.097 669.454 704.054 669.721 705.111 669.721C705.69 669.721 706.247 669.641 706.781 669.482C707.315 669.323 707.801 669.087 708.239 668.775C708.682 668.457 709.057 668.067 709.364 667.607C709.676 667.141 709.895 666.607 710.02 666.005H712.134C711.975 666.897 711.685 667.695 711.264 668.4C710.844 669.104 710.321 669.704 709.696 670.198C709.071 670.687 708.369 671.059 707.591 671.314C706.818 671.57 705.992 671.698 705.111 671.698C703.622 671.698 702.298 671.334 701.139 670.607C699.98 669.88 699.068 668.846 698.404 667.505C697.739 666.164 697.406 664.573 697.406 662.732C697.406 660.891 697.739 659.3 698.404 657.959C699.068 656.618 699.98 655.584 701.139 654.857C702.298 654.13 703.622 653.766 705.111 653.766C705.992 653.766 706.818 653.894 707.591 654.15C708.369 654.405 709.071 654.78 709.696 655.275C710.321 655.763 710.844 656.36 711.264 657.064C711.685 657.763 711.975 658.562 712.134 659.459ZM720.595 671.732C719.413 671.732 718.376 671.451 717.484 670.888C716.597 670.326 715.904 669.539 715.404 668.528C714.91 667.516 714.663 666.334 714.663 664.982C714.663 663.618 714.91 662.428 715.404 661.411C715.904 660.394 716.597 659.604 717.484 659.042C718.376 658.479 719.413 658.198 720.595 658.198C721.776 658.198 722.81 658.479 723.697 659.042C724.589 659.604 725.282 660.394 725.776 661.411C726.276 662.428 726.526 663.618 726.526 664.982C726.526 666.334 726.276 667.516 725.776 668.528C725.282 669.539 724.589 670.326 723.697 670.888C722.81 671.451 721.776 671.732 720.595 671.732ZM720.595 669.925C721.492 669.925 722.231 669.695 722.81 669.235C723.39 668.775 723.819 668.17 724.097 667.42C724.376 666.67 724.515 665.857 724.515 664.982C724.515 664.107 724.376 663.292 724.097 662.536C723.819 661.78 723.39 661.17 722.81 660.704C722.231 660.238 721.492 660.005 720.595 660.005C719.697 660.005 718.958 660.238 718.379 660.704C717.799 661.17 717.37 661.78 717.092 662.536C716.813 663.292 716.674 664.107 716.674 664.982C716.674 665.857 716.813 666.67 717.092 667.42C717.37 668.17 717.799 668.775 718.379 669.235C718.958 669.695 719.697 669.925 720.595 669.925ZM731.608 663.584V671.459H729.597V658.368H731.54V660.414H731.71C732.017 659.749 732.483 659.215 733.108 658.812C733.733 658.403 734.54 658.198 735.529 658.198C736.415 658.198 737.19 658.38 737.855 658.743C738.52 659.101 739.037 659.647 739.406 660.38C739.776 661.107 739.96 662.028 739.96 663.141V671.459H737.949V663.278C737.949 662.249 737.682 661.448 737.148 660.874C736.614 660.295 735.881 660.005 734.949 660.005C734.307 660.005 733.733 660.144 733.227 660.422C732.727 660.701 732.333 661.107 732.043 661.641C731.753 662.175 731.608 662.823 731.608 663.584ZM745.647 663.584V671.459H743.636V658.368H745.579V660.414H745.749C746.056 659.749 746.522 659.215 747.147 658.812C747.772 658.403 748.579 658.198 749.568 658.198C750.454 658.198 751.23 658.38 751.894 658.743C752.559 659.101 753.076 659.647 753.445 660.38C753.815 661.107 753.999 662.028 753.999 663.141V671.459H751.988V663.278C751.988 662.249 751.721 661.448 751.187 660.874C750.653 660.295 749.92 660.005 748.988 660.005C748.346 660.005 747.772 660.144 747.266 660.422C746.766 660.701 746.372 661.107 746.082 661.641C745.792 662.175 745.647 662.823 745.647 663.584ZM763.163 671.732C761.902 671.732 760.814 671.454 759.899 670.897C758.99 670.334 758.288 669.55 757.794 668.545C757.306 667.533 757.061 666.357 757.061 665.016C757.061 663.675 757.306 662.493 757.794 661.471C758.288 660.442 758.976 659.641 759.857 659.067C760.743 658.488 761.777 658.198 762.959 658.198C763.641 658.198 764.314 658.312 764.979 658.539C765.644 658.766 766.249 659.135 766.794 659.647C767.34 660.153 767.774 660.823 768.098 661.658C768.422 662.493 768.584 663.522 768.584 664.743V665.596H758.493V663.857H766.538C766.538 663.118 766.391 662.459 766.095 661.88C765.806 661.3 765.391 660.843 764.851 660.508C764.317 660.172 763.686 660.005 762.959 660.005C762.158 660.005 761.465 660.204 760.879 660.601C760.3 660.993 759.854 661.505 759.541 662.135C759.229 662.766 759.073 663.442 759.073 664.164V665.323C759.073 666.312 759.243 667.15 759.584 667.837C759.931 668.519 760.411 669.039 761.024 669.397C761.638 669.749 762.351 669.925 763.163 669.925C763.692 669.925 764.169 669.851 764.595 669.704C765.027 669.55 765.399 669.323 765.712 669.022C766.024 668.715 766.266 668.334 766.436 667.88L768.379 668.425C768.175 669.084 767.831 669.664 767.348 670.164C766.865 670.658 766.269 671.045 765.558 671.323C764.848 671.596 764.05 671.732 763.163 671.732ZM772.792 658.368L775.928 663.721L779.065 658.368H781.383L777.156 664.914L781.383 671.459H779.065L775.928 666.38L772.792 671.459H770.474L774.633 664.914L770.474 658.368H772.792ZM784.253 671.459V658.368H786.264V671.459H784.253ZM785.276 656.187C784.884 656.187 784.546 656.053 784.261 655.786C783.983 655.519 783.844 655.198 783.844 654.823C783.844 654.448 783.983 654.127 784.261 653.86C784.546 653.593 784.884 653.459 785.276 653.459C785.668 653.459 786.003 653.593 786.281 653.86C786.565 654.127 786.708 654.448 786.708 654.823C786.708 655.198 786.565 655.519 786.281 655.786C786.003 656.053 785.668 656.187 785.276 656.187ZM795.266 671.732C794.085 671.732 793.048 671.451 792.156 670.888C791.269 670.326 790.576 669.539 790.076 668.528C789.582 667.516 789.335 666.334 789.335 664.982C789.335 663.618 789.582 662.428 790.076 661.411C790.576 660.394 791.269 659.604 792.156 659.042C793.048 658.479 794.085 658.198 795.266 658.198C796.448 658.198 797.482 658.479 798.369 659.042C799.261 659.604 799.954 660.394 800.448 661.411C800.948 662.428 801.198 663.618 801.198 664.982C801.198 666.334 800.948 667.516 800.448 668.528C799.954 669.539 799.261 670.326 798.369 670.888C797.482 671.451 796.448 671.732 795.266 671.732ZM795.266 669.925C796.164 669.925 796.903 669.695 797.482 669.235C798.062 668.775 798.491 668.17 798.769 667.42C799.048 666.67 799.187 665.857 799.187 664.982C799.187 664.107 799.048 663.292 798.769 662.536C798.491 661.78 798.062 661.17 797.482 660.704C796.903 660.238 796.164 660.005 795.266 660.005C794.369 660.005 793.63 660.238 793.051 660.704C792.471 661.17 792.042 661.78 791.764 662.536C791.485 663.292 791.346 664.107 791.346 664.982C791.346 665.857 791.485 666.67 791.764 667.42C792.042 668.17 792.471 668.775 793.051 669.235C793.63 669.695 794.369 669.925 795.266 669.925ZM806.28 663.584V671.459H804.269V658.368H806.212V660.414H806.382C806.689 659.749 807.155 659.215 807.78 658.812C808.405 658.403 809.212 658.198 810.2 658.198C811.087 658.198 811.862 658.38 812.527 658.743C813.192 659.101 813.709 659.647 814.078 660.38C814.448 661.107 814.632 662.028 814.632 663.141V671.459H812.621V663.278C812.621 662.249 812.354 661.448 811.82 660.874C811.286 660.295 810.553 660.005 809.621 660.005C808.979 660.005 808.405 660.144 807.899 660.422C807.399 660.701 807.004 661.107 806.715 661.641C806.425 662.175 806.28 662.823 806.28 663.584Z" fill="white"/>
<rect x="401.5" y="332.5" width="716" height="427" rx="5.5" stroke="black"/>
</g>
<defs>
<clipPath id="clip0_2_62">
<rect width="1440" height="1024" fill="white"/>
</clipPath>
</defs>
</svg>
