<svg width="1440" height="1024" viewBox="0 0 1440 1024" fill="none" xmlns="http://www.w3.org/2000/svg">
<g clip-path="url(#clip0_2_20)">
<rect width="1440" height="1024" fill="white"/>
<circle cx="89" cy="52" r="25" fill="#D9D9D9"/>
<path d="M144.818 63V39.7273H152.955C154.576 39.7273 155.913 40.0076 156.966 40.5682C158.019 41.1212 158.803 41.8674 159.318 42.8068C159.833 43.7386 160.091 44.7727 160.091 45.9091C160.091 46.9091 159.913 47.7348 159.557 48.3864C159.208 49.0379 158.746 49.553 158.17 49.9318C157.602 50.3106 156.985 50.5909 156.318 50.7727V51C157.03 51.0455 157.746 51.2955 158.466 51.75C159.186 52.2045 159.788 52.8561 160.273 53.7045C160.758 54.553 161 55.5909 161 56.8182C161 57.9848 160.735 59.0341 160.205 59.9659C159.674 60.8977 158.837 61.6364 157.693 62.1818C156.549 62.7273 155.061 63 153.227 63H144.818ZM147.636 60.5H153.227C155.068 60.5 156.375 60.1439 157.148 59.4318C157.928 58.7121 158.318 57.8409 158.318 56.8182C158.318 56.0303 158.117 55.303 157.716 54.6364C157.314 53.9621 156.742 53.4242 156 53.0227C155.258 52.6136 154.379 52.4091 153.364 52.4091H147.636V60.5ZM147.636 49.9545H152.864C153.712 49.9545 154.477 49.7879 155.159 49.4545C155.848 49.1212 156.394 48.6515 156.795 48.0455C157.205 47.4394 157.409 46.7273 157.409 45.9091C157.409 44.8864 157.053 44.0189 156.341 43.3068C155.629 42.5871 154.5 42.2273 152.955 42.2273H147.636V49.9545ZM170.403 63.4091C169.297 63.4091 168.294 63.2008 167.392 62.7841C166.491 62.3598 165.775 61.75 165.244 60.9545C164.714 60.1515 164.449 59.1818 164.449 58.0455C164.449 57.0455 164.646 56.2348 165.04 55.6136C165.434 54.9848 165.96 54.4924 166.619 54.1364C167.278 53.7803 168.006 53.5152 168.801 53.3409C169.604 53.1591 170.411 53.0152 171.222 52.9091C172.282 52.7727 173.142 52.6705 173.801 52.6023C174.468 52.5265 174.953 52.4015 175.256 52.2273C175.566 52.053 175.722 51.75 175.722 51.3182V51.2273C175.722 50.1061 175.415 49.2348 174.801 48.6136C174.195 47.9924 173.275 47.6818 172.04 47.6818C170.759 47.6818 169.756 47.9621 169.028 48.5227C168.301 49.0833 167.79 49.6818 167.494 50.3182L164.949 49.4091C165.403 48.3485 166.009 47.5227 166.767 46.9318C167.532 46.3333 168.366 45.9167 169.267 45.6818C170.176 45.4394 171.07 45.3182 171.949 45.3182C172.509 45.3182 173.153 45.3864 173.881 45.5227C174.616 45.6515 175.324 45.9205 176.006 46.3295C176.695 46.7386 177.267 47.3561 177.722 48.1818C178.176 49.0076 178.403 50.1136 178.403 51.5V63H175.722V60.6364H175.585C175.403 61.0152 175.1 61.4205 174.676 61.8523C174.252 62.2841 173.688 62.6515 172.983 62.9545C172.278 63.2576 171.419 63.4091 170.403 63.4091ZM170.812 61C171.873 61 172.767 60.7917 173.494 60.375C174.229 59.9583 174.782 59.4205 175.153 58.7614C175.532 58.1023 175.722 57.4091 175.722 56.6818V54.2273C175.608 54.3636 175.358 54.4886 174.972 54.6023C174.593 54.7083 174.153 54.803 173.653 54.8864C173.161 54.9621 172.68 55.0303 172.21 55.0909C171.748 55.1439 171.373 55.1894 171.085 55.2273C170.388 55.3182 169.737 55.4659 169.131 55.6705C168.532 55.8674 168.047 56.1667 167.676 56.5682C167.313 56.9621 167.131 57.5 167.131 58.1818C167.131 59.1136 167.475 59.8182 168.165 60.2955C168.862 60.7652 169.744 61 170.812 61ZM185.98 52.5V63H183.298V45.5455H185.889V48.2727H186.116C186.526 47.3864 187.147 46.6742 187.98 46.1364C188.813 45.5909 189.889 45.3182 191.207 45.3182C192.389 45.3182 193.423 45.5606 194.31 46.0455C195.196 46.5227 195.885 47.25 196.378 48.2273C196.87 49.197 197.116 50.4242 197.116 51.9091V63H194.435V52.0909C194.435 50.7197 194.079 49.6515 193.366 48.8864C192.654 48.1136 191.677 47.7273 190.435 47.7273C189.579 47.7273 188.813 47.9129 188.139 48.2841C187.473 48.6553 186.946 49.197 186.56 49.9091C186.173 50.6212 185.98 51.4848 185.98 52.5ZM204.517 56.6364L204.472 53.3182H205.017L212.653 45.5455H215.972L207.835 53.7727H207.608L204.517 56.6364ZM202.017 63V39.7273H204.699V63H202.017ZM213.108 63L206.29 54.3636L208.199 52.5L216.517 63H213.108ZM219.787 63V39.7273H227.651C229.469 39.7273 230.961 40.0379 232.128 40.6591C233.295 41.2727 234.158 42.1174 234.719 43.1932C235.279 44.2689 235.56 45.4924 235.56 46.8636C235.56 48.2348 235.279 49.4508 234.719 50.5114C234.158 51.572 233.298 52.4053 232.139 53.0114C230.98 53.6098 229.499 53.9091 227.696 53.9091H221.332V51.3636H227.605C228.848 51.3636 229.848 51.1818 230.605 50.8182C231.37 50.4545 231.923 49.9394 232.264 49.2727C232.613 48.5985 232.787 47.7955 232.787 46.8636C232.787 45.9318 232.613 45.1174 232.264 44.4205C231.916 43.7235 231.359 43.1856 230.594 42.8068C229.829 42.4205 228.817 42.2273 227.56 42.2273H222.605V63H219.787ZM230.741 52.5455L236.469 63H233.196L227.56 52.5455H230.741ZM246.795 63.3636C245.22 63.3636 243.837 62.9886 242.648 62.2386C241.466 61.4886 240.542 60.4394 239.875 59.0909C239.216 57.7424 238.886 56.1667 238.886 54.3636C238.886 52.5455 239.216 50.9583 239.875 49.6023C240.542 48.2462 241.466 47.1932 242.648 46.4432C243.837 45.6932 245.22 45.3182 246.795 45.3182C248.371 45.3182 249.75 45.6932 250.932 46.4432C252.121 47.1932 253.045 48.2462 253.705 49.6023C254.371 50.9583 254.705 52.5455 254.705 54.3636C254.705 56.1667 254.371 57.7424 253.705 59.0909C253.045 60.4394 252.121 61.4886 250.932 62.2386C249.75 62.9886 248.371 63.3636 246.795 63.3636ZM246.795 60.9545C247.992 60.9545 248.977 60.6477 249.75 60.0341C250.523 59.4205 251.095 58.6136 251.466 57.6136C251.837 56.6136 252.023 55.5303 252.023 54.3636C252.023 53.197 251.837 52.1098 251.466 51.1023C251.095 50.0947 250.523 49.2803 249.75 48.6591C248.977 48.0379 247.992 47.7273 246.795 47.7273C245.598 47.7273 244.614 48.0379 243.841 48.6591C243.068 49.2803 242.496 50.0947 242.125 51.1023C241.754 52.1098 241.568 53.197 241.568 54.3636C241.568 55.5303 241.754 56.6136 242.125 57.6136C242.496 58.6136 243.068 59.4205 243.841 60.0341C244.614 60.6477 245.598 60.9545 246.795 60.9545ZM265.889 63.3636C264.313 63.3636 262.931 62.9886 261.741 62.2386C260.56 61.4886 259.635 60.4394 258.969 59.0909C258.31 57.7424 257.98 56.1667 257.98 54.3636C257.98 52.5455 258.31 50.9583 258.969 49.6023C259.635 48.2462 260.56 47.1932 261.741 46.4432C262.931 45.6932 264.313 45.3182 265.889 45.3182C267.465 45.3182 268.844 45.6932 270.026 46.4432C271.215 47.1932 272.139 48.2462 272.798 49.6023C273.465 50.9583 273.798 52.5455 273.798 54.3636C273.798 56.1667 273.465 57.7424 272.798 59.0909C272.139 60.4394 271.215 61.4886 270.026 62.2386C268.844 62.9886 267.465 63.3636 265.889 63.3636ZM265.889 60.9545C267.086 60.9545 268.071 60.6477 268.844 60.0341C269.616 59.4205 270.188 58.6136 270.56 57.6136C270.931 56.6136 271.116 55.5303 271.116 54.3636C271.116 53.197 270.931 52.1098 270.56 51.1023C270.188 50.0947 269.616 49.2803 268.844 48.6591C268.071 48.0379 267.086 47.7273 265.889 47.7273C264.692 47.7273 263.707 48.0379 262.935 48.6591C262.162 49.2803 261.59 50.0947 261.219 51.1023C260.848 52.1098 260.662 53.197 260.662 54.3636C260.662 55.5303 260.848 56.6136 261.219 57.6136C261.59 58.6136 262.162 59.4205 262.935 60.0341C263.707 60.6477 264.692 60.9545 265.889 60.9545ZM285.483 45.5455V47.8182H276.438V45.5455H285.483ZM279.074 41.3636H281.756V58C281.756 58.7576 281.866 59.3258 282.085 59.7045C282.313 60.0758 282.6 60.3258 282.949 60.4545C283.305 60.5758 283.68 60.6364 284.074 60.6364C284.369 60.6364 284.612 60.6212 284.801 60.5909C284.991 60.553 285.142 60.5227 285.256 60.5L285.801 62.9091C285.619 62.9773 285.366 63.0455 285.04 63.1136C284.714 63.1894 284.301 63.2273 283.801 63.2273C283.044 63.2273 282.301 63.0644 281.574 62.7386C280.854 62.4129 280.256 61.9167 279.778 61.25C279.309 60.5833 279.074 59.7424 279.074 58.7273V41.3636Z" fill="black"/>
<line x1="-0.0140381" y1="95" x2="1440.01" y2="95" stroke="black"/>
<path d="M869.5 61H864.114V43.5455H869.739C871.432 43.5455 872.881 43.8949 874.085 44.5938C875.29 45.2869 876.213 46.2841 876.855 47.5852C877.497 48.8807 877.818 50.4318 877.818 52.2386C877.818 54.0568 877.494 55.6222 876.847 56.9347C876.199 58.2415 875.256 59.2472 874.017 59.9517C872.778 60.6506 871.273 61 869.5 61ZM866.227 59.125H869.364C870.807 59.125 872.003 58.8466 872.952 58.2898C873.901 57.733 874.608 56.9403 875.074 55.9119C875.54 54.8835 875.773 53.6591 875.773 52.2386C875.773 50.8295 875.543 49.6165 875.082 48.5994C874.622 47.5767 873.935 46.7926 873.02 46.2472C872.105 45.696 870.966 45.4205 869.602 45.4205H866.227V59.125ZM884.943 61.3068C884.114 61.3068 883.361 61.1506 882.685 60.8381C882.009 60.5199 881.472 60.0625 881.074 59.4659C880.676 58.8636 880.477 58.1364 880.477 57.2841C880.477 56.5341 880.625 55.9261 880.92 55.4602C881.216 54.9886 881.611 54.6193 882.105 54.3523C882.599 54.0852 883.145 53.8864 883.741 53.7557C884.344 53.6193 884.949 53.5114 885.557 53.4318C886.352 53.3295 886.997 53.2528 887.491 53.2017C887.991 53.1449 888.355 53.0511 888.582 52.9205C888.815 52.7898 888.932 52.5625 888.932 52.2386V52.1705C888.932 51.3295 888.702 50.6761 888.241 50.2102C887.787 49.7443 887.097 49.5114 886.17 49.5114C885.21 49.5114 884.457 49.7216 883.912 50.142C883.366 50.5625 882.983 51.0114 882.761 51.4886L880.852 50.8068C881.193 50.0114 881.648 49.392 882.216 48.9489C882.79 48.5 883.415 48.1875 884.091 48.0114C884.773 47.8295 885.443 47.7386 886.102 47.7386C886.523 47.7386 887.006 47.7898 887.551 47.892C888.102 47.9886 888.634 48.1903 889.145 48.4972C889.662 48.804 890.091 49.267 890.432 49.8864C890.773 50.5057 890.943 51.3352 890.943 52.375V61H888.932V59.2273H888.83C888.693 59.5114 888.466 59.8153 888.148 60.1392C887.83 60.4631 887.406 60.7386 886.878 60.9659C886.349 61.1932 885.705 61.3068 884.943 61.3068ZM885.25 59.5C886.045 59.5 886.716 59.3438 887.261 59.0312C887.813 58.7188 888.227 58.3153 888.506 57.821C888.79 57.3267 888.932 56.8068 888.932 56.2614V54.4205C888.847 54.5227 888.659 54.6165 888.369 54.7017C888.085 54.7812 887.756 54.8523 887.381 54.9148C887.011 54.9716 886.651 55.0227 886.298 55.0682C885.952 55.108 885.67 55.142 885.455 55.1705C884.932 55.2386 884.443 55.3494 883.989 55.5028C883.54 55.6506 883.176 55.875 882.898 56.1761C882.625 56.4716 882.489 56.875 882.489 57.3864C882.489 58.0852 882.747 58.6136 883.264 58.9716C883.787 59.3239 884.449 59.5 885.25 59.5ZM903.887 50.8409L902.08 51.3523C901.967 51.0511 901.799 50.7585 901.577 50.4744C901.362 50.1847 901.066 49.946 900.691 49.7585C900.316 49.571 899.836 49.4773 899.251 49.4773C898.45 49.4773 897.782 49.6619 897.248 50.0312C896.719 50.3949 896.455 50.858 896.455 51.4205C896.455 51.9205 896.637 52.3153 897.001 52.6051C897.364 52.8949 897.933 53.1364 898.705 53.3295L900.648 53.8068C901.819 54.0909 902.691 54.5256 903.265 55.1108C903.839 55.6903 904.126 56.4375 904.126 57.3523C904.126 58.1023 903.91 58.7727 903.478 59.3636C903.052 59.9545 902.455 60.4205 901.688 60.7614C900.921 61.1023 900.029 61.2727 899.012 61.2727C897.677 61.2727 896.572 60.983 895.697 60.4034C894.822 59.8239 894.268 58.9773 894.035 57.8636L895.944 57.3864C896.126 58.0909 896.469 58.6193 896.975 58.9716C897.487 59.3239 898.154 59.5 898.978 59.5C899.915 59.5 900.66 59.3011 901.211 58.9034C901.768 58.5 902.046 58.017 902.046 57.4545C902.046 57 901.887 56.6193 901.569 56.3125C901.251 56 900.762 55.767 900.103 55.6136L897.921 55.1023C896.722 54.8182 895.842 54.3778 895.279 53.7812C894.722 53.179 894.444 52.4261 894.444 51.5227C894.444 50.7841 894.651 50.1307 895.066 49.5625C895.487 48.9943 896.058 48.5483 896.779 48.2244C897.506 47.9006 898.33 47.7386 899.251 47.7386C900.546 47.7386 901.563 48.0227 902.302 48.5909C903.046 49.1591 903.575 49.9091 903.887 50.8409ZM909.165 53.125V61H907.153V43.5455H909.165V49.9545H909.335C909.642 49.2784 910.102 48.7415 910.716 48.3438C911.335 47.9403 912.159 47.7386 913.188 47.7386C914.08 47.7386 914.861 47.9176 915.531 48.2756C916.202 48.6278 916.722 49.1705 917.091 49.9034C917.466 50.6307 917.653 51.5568 917.653 52.6818V61H915.642V52.8182C915.642 51.7784 915.372 50.9744 914.832 50.4062C914.298 49.8324 913.557 49.5455 912.608 49.5455C911.949 49.5455 911.358 49.6847 910.835 49.9631C910.318 50.2415 909.909 50.6477 909.608 51.1818C909.313 51.7159 909.165 52.3636 909.165 53.125ZM921.606 61V43.5455H923.617V49.9886H923.788C923.935 49.7614 924.14 49.4716 924.401 49.1193C924.668 48.7614 925.049 48.4432 925.543 48.1648C926.043 47.8807 926.719 47.7386 927.572 47.7386C928.674 47.7386 929.646 48.0142 930.487 48.5653C931.327 49.1165 931.984 49.8977 932.455 50.9091C932.927 51.9205 933.163 53.1136 933.163 54.4886C933.163 55.875 932.927 57.0767 932.455 58.0938C931.984 59.1051 931.33 59.8892 930.495 60.446C929.66 60.9972 928.697 61.2727 927.606 61.2727C926.765 61.2727 926.092 61.1335 925.586 60.8551C925.08 60.571 924.691 60.25 924.418 59.892C924.146 59.5284 923.935 59.2273 923.788 58.9886H923.549V61H921.606ZM923.583 54.4545C923.583 55.4432 923.728 56.3153 924.018 57.071C924.308 57.821 924.731 58.4091 925.288 58.8352C925.844 59.2557 926.526 59.4659 927.333 59.4659C928.174 59.4659 928.876 59.2443 929.438 58.8011C930.006 58.3523 930.433 57.75 930.717 56.9943C931.006 56.233 931.151 55.3864 931.151 54.4545C931.151 53.5341 931.009 52.7045 930.725 51.9659C930.447 51.2216 930.023 50.6335 929.455 50.2017C928.893 49.7642 928.185 49.5455 927.333 49.5455C926.515 49.5455 925.827 49.7528 925.271 50.1676C924.714 50.5767 924.293 51.1506 924.009 51.8892C923.725 52.6222 923.583 53.4773 923.583 54.4545ZM941.558 61.2727C940.376 61.2727 939.339 60.9915 938.447 60.429C937.56 59.8665 936.867 59.0795 936.367 58.0682C935.873 57.0568 935.626 55.875 935.626 54.5227C935.626 53.1591 935.873 51.9687 936.367 50.9517C936.867 49.9347 937.56 49.1449 938.447 48.5824C939.339 48.0199 940.376 47.7386 941.558 47.7386C942.739 47.7386 943.773 48.0199 944.66 48.5824C945.552 49.1449 946.245 49.9347 946.739 50.9517C947.239 51.9687 947.489 53.1591 947.489 54.5227C947.489 55.875 947.239 57.0568 946.739 58.0682C946.245 59.0795 945.552 59.8665 944.66 60.429C943.773 60.9915 942.739 61.2727 941.558 61.2727ZM941.558 59.4659C942.455 59.4659 943.194 59.2358 943.773 58.7756C944.353 58.3153 944.782 57.7102 945.06 56.9602C945.339 56.2102 945.478 55.3977 945.478 54.5227C945.478 53.6477 945.339 52.8324 945.06 52.0767C944.782 51.321 944.353 50.7102 943.773 50.2443C943.194 49.7784 942.455 49.5455 941.558 49.5455C940.66 49.5455 939.921 49.7784 939.342 50.2443C938.762 50.7102 938.333 51.321 938.055 52.0767C937.776 52.8324 937.637 53.6477 937.637 54.5227C937.637 55.3977 937.776 56.2102 938.055 56.9602C938.333 57.7102 938.762 58.3153 939.342 58.7756C939.921 59.2358 940.66 59.4659 941.558 59.4659ZM954.412 61.3068C953.582 61.3068 952.83 61.1506 952.153 60.8381C951.477 60.5199 950.94 60.0625 950.543 59.4659C950.145 58.8636 949.946 58.1364 949.946 57.2841C949.946 56.5341 950.094 55.9261 950.389 55.4602C950.685 54.9886 951.08 54.6193 951.574 54.3523C952.068 54.0852 952.614 53.8864 953.21 53.7557C953.813 53.6193 954.418 53.5114 955.026 53.4318C955.821 53.3295 956.466 53.2528 956.96 53.2017C957.46 53.1449 957.824 53.0511 958.051 52.9205C958.284 52.7898 958.401 52.5625 958.401 52.2386V52.1705C958.401 51.3295 958.17 50.6761 957.71 50.2102C957.256 49.7443 956.565 49.5114 955.639 49.5114C954.679 49.5114 953.926 49.7216 953.381 50.142C952.835 50.5625 952.452 51.0114 952.23 51.4886L950.321 50.8068C950.662 50.0114 951.116 49.392 951.685 48.9489C952.259 48.5 952.884 48.1875 953.56 48.0114C954.241 47.8295 954.912 47.7386 955.571 47.7386C955.991 47.7386 956.474 47.7898 957.02 47.892C957.571 47.9886 958.102 48.1903 958.614 48.4972C959.131 48.804 959.56 49.267 959.901 49.8864C960.241 50.5057 960.412 51.3352 960.412 52.375V61H958.401V59.2273H958.298C958.162 59.5114 957.935 59.8153 957.616 60.1392C957.298 60.4631 956.875 60.7386 956.347 60.9659C955.818 61.1932 955.173 61.3068 954.412 61.3068ZM954.719 59.5C955.514 59.5 956.185 59.3438 956.73 59.0312C957.281 58.7188 957.696 58.3153 957.974 57.821C958.259 57.3267 958.401 56.8068 958.401 56.2614V54.4205C958.315 54.5227 958.128 54.6165 957.838 54.7017C957.554 54.7812 957.224 54.8523 956.849 54.9148C956.48 54.9716 956.119 55.0227 955.767 55.0682C955.42 55.108 955.139 55.142 954.923 55.1705C954.401 55.2386 953.912 55.3494 953.457 55.5028C953.009 55.6506 952.645 55.875 952.366 56.1761C952.094 56.4716 951.957 56.875 951.957 57.3864C951.957 58.0852 952.216 58.6136 952.733 58.9716C953.256 59.3239 953.918 59.5 954.719 59.5ZM964.083 61V47.9091H966.026V49.8864H966.163C966.401 49.2386 966.833 48.7131 967.458 48.3097C968.083 47.9062 968.788 47.7045 969.572 47.7045C969.719 47.7045 969.904 47.7074 970.126 47.7131C970.347 47.7187 970.515 47.7273 970.629 47.7386V49.7841C970.56 49.767 970.404 49.7415 970.16 49.7074C969.921 49.6676 969.668 49.6477 969.401 49.6477C968.765 49.6477 968.197 49.7812 967.697 50.0483C967.202 50.3097 966.81 50.6733 966.521 51.1392C966.237 51.5994 966.094 52.125 966.094 52.7159V61H964.083ZM977.558 61.2727C976.467 61.2727 975.504 60.9972 974.668 60.446C973.833 59.8892 973.18 59.1051 972.708 58.0938C972.237 57.0767 972.001 55.875 972.001 54.4886C972.001 53.1136 972.237 51.9205 972.708 50.9091C973.18 49.8977 973.836 49.1165 974.677 48.5653C975.518 48.0142 976.489 47.7386 977.592 47.7386C978.444 47.7386 979.117 47.8807 979.612 48.1648C980.112 48.4432 980.492 48.7614 980.754 49.1193C981.021 49.4716 981.228 49.7614 981.376 49.9886H981.546V43.5455H983.558V61H981.614V58.9886H981.376C981.228 59.2273 981.018 59.5284 980.745 59.892C980.472 60.25 980.083 60.571 979.577 60.8551C979.072 61.1335 978.398 61.2727 977.558 61.2727ZM977.83 59.4659C978.637 59.4659 979.319 59.2557 979.876 58.8352C980.433 58.4091 980.856 57.821 981.146 57.071C981.435 56.3153 981.58 55.4432 981.58 54.4545C981.58 53.4773 981.438 52.6222 981.154 51.8892C980.87 51.1506 980.45 50.5767 979.893 50.1676C979.336 49.7528 978.648 49.5455 977.83 49.5455C976.978 49.5455 976.268 49.7642 975.7 50.2017C975.137 50.6335 974.714 51.2216 974.43 51.9659C974.151 52.7045 974.012 53.5341 974.012 54.4545C974.012 55.3864 974.154 56.233 974.438 56.9943C974.728 57.75 975.154 58.3523 975.717 58.8011C976.285 59.2443 976.989 59.4659 977.83 59.4659Z" fill="black"/>
<rect x="1227" y="32" width="167" height="44" fill="#D9D9D9"/>
<path d="M1268.16 49H1266.05C1265.92 48.392 1265.7 47.858 1265.39 47.3977C1265.08 46.9375 1264.71 46.5511 1264.26 46.2386C1263.83 45.9205 1263.34 45.6818 1262.81 45.5227C1262.27 45.3636 1261.72 45.2841 1261.14 45.2841C1260.08 45.2841 1259.12 45.5511 1258.26 46.0852C1257.41 46.6193 1256.73 47.4062 1256.23 48.446C1255.73 49.4858 1255.48 50.7614 1255.48 52.2727C1255.48 53.7841 1255.73 55.0597 1256.23 56.0994C1256.73 57.1392 1257.41 57.9261 1258.26 58.4602C1259.12 58.9943 1260.08 59.2614 1261.14 59.2614C1261.72 59.2614 1262.27 59.1818 1262.81 59.0227C1263.34 58.8636 1263.83 58.6278 1264.26 58.3153C1264.71 57.9972 1265.08 57.608 1265.39 57.1477C1265.7 56.6818 1265.92 56.1477 1266.05 55.5455H1268.16C1268 56.4375 1267.71 57.2358 1267.29 57.9403C1266.87 58.6449 1266.35 59.2443 1265.72 59.7386C1265.1 60.2273 1264.39 60.5994 1263.62 60.8551C1262.84 61.1108 1262.02 61.2386 1261.14 61.2386C1259.65 61.2386 1258.32 60.875 1257.16 60.1477C1256.01 59.4205 1255.09 58.3864 1254.43 57.0455C1253.76 55.7045 1253.43 54.1136 1253.43 52.2727C1253.43 50.4318 1253.76 48.8409 1254.43 47.5C1255.09 46.1591 1256.01 45.125 1257.16 44.3977C1258.32 43.6705 1259.65 43.3068 1261.14 43.3068C1262.02 43.3068 1262.84 43.4347 1263.62 43.6903C1264.39 43.946 1265.1 44.321 1265.72 44.8153C1266.35 45.304 1266.87 45.9006 1267.29 46.6051C1267.71 47.304 1268 48.1023 1268.16 49ZM1276.62 61.2727C1275.44 61.2727 1274.4 60.9915 1273.51 60.429C1272.62 59.8665 1271.93 59.0795 1271.43 58.0682C1270.94 57.0568 1270.69 55.875 1270.69 54.5227C1270.69 53.1591 1270.94 51.9687 1271.43 50.9517C1271.93 49.9347 1272.62 49.1449 1273.51 48.5824C1274.4 48.0199 1275.44 47.7386 1276.62 47.7386C1277.8 47.7386 1278.84 48.0199 1279.72 48.5824C1280.61 49.1449 1281.31 49.9347 1281.8 50.9517C1282.3 51.9687 1282.55 53.1591 1282.55 54.5227C1282.55 55.875 1282.3 57.0568 1281.8 58.0682C1281.31 59.0795 1280.61 59.8665 1279.72 60.429C1278.84 60.9915 1277.8 61.2727 1276.62 61.2727ZM1276.62 59.4659C1277.52 59.4659 1278.26 59.2358 1278.84 58.7756C1279.42 58.3153 1279.84 57.7102 1280.12 56.9602C1280.4 56.2102 1280.54 55.3977 1280.54 54.5227C1280.54 53.6477 1280.4 52.8324 1280.12 52.0767C1279.84 51.321 1279.42 50.7102 1278.84 50.2443C1278.26 49.7784 1277.52 49.5455 1276.62 49.5455C1275.72 49.5455 1274.98 49.7784 1274.4 50.2443C1273.82 50.7102 1273.4 51.321 1273.12 52.0767C1272.84 52.8324 1272.7 53.6477 1272.7 54.5227C1272.7 55.3977 1272.84 56.2102 1273.12 56.9602C1273.4 57.7102 1273.82 58.3153 1274.4 58.7756C1274.98 59.2358 1275.72 59.4659 1276.62 59.4659ZM1287.63 53.125V61H1285.62V47.9091H1287.57V49.9545H1287.74C1288.04 49.2898 1288.51 48.7557 1289.13 48.3523C1289.76 47.9432 1290.57 47.7386 1291.55 47.7386C1292.44 47.7386 1293.22 47.9205 1293.88 48.2841C1294.55 48.642 1295.06 49.1875 1295.43 49.9205C1295.8 50.6477 1295.99 51.5682 1295.99 52.6818V61H1293.97V52.8182C1293.97 51.7898 1293.71 50.9886 1293.17 50.4148C1292.64 49.8352 1291.91 49.5455 1290.97 49.5455C1290.33 49.5455 1289.76 49.6847 1289.25 49.9631C1288.75 50.2415 1288.36 50.6477 1288.07 51.1818C1287.78 51.7159 1287.63 52.3636 1287.63 53.125ZM1301.67 53.125V61H1299.66V47.9091H1301.6V49.9545H1301.77C1302.08 49.2898 1302.55 48.7557 1303.17 48.3523C1303.8 47.9432 1304.6 47.7386 1305.59 47.7386C1306.48 47.7386 1307.25 47.9205 1307.92 48.2841C1308.58 48.642 1309.1 49.1875 1309.47 49.9205C1309.84 50.6477 1310.02 51.5682 1310.02 52.6818V61H1308.01V52.8182C1308.01 51.7898 1307.75 50.9886 1307.21 50.4148C1306.68 49.8352 1305.95 49.5455 1305.01 49.5455C1304.37 49.5455 1303.8 49.6847 1303.29 49.9631C1302.79 50.2415 1302.4 50.6477 1302.11 51.1818C1301.82 51.7159 1301.67 52.3636 1301.67 53.125ZM1319.19 61.2727C1317.93 61.2727 1316.84 60.9943 1315.92 60.4375C1315.02 59.875 1314.31 59.0909 1313.82 58.0852C1313.33 57.0739 1313.09 55.8977 1313.09 54.5568C1313.09 53.2159 1313.33 52.0341 1313.82 51.0114C1314.31 49.983 1315 49.1818 1315.88 48.608C1316.77 48.0284 1317.8 47.7386 1318.98 47.7386C1319.67 47.7386 1320.34 47.8523 1321 48.0795C1321.67 48.3068 1322.27 48.6761 1322.82 49.1875C1323.37 49.6932 1323.8 50.3636 1324.12 51.1989C1324.45 52.0341 1324.61 53.0625 1324.61 54.2841V55.1364H1314.52V53.3977H1322.56C1322.56 52.6591 1322.42 52 1322.12 51.4205C1321.83 50.8409 1321.42 50.3835 1320.88 50.0483C1320.34 49.7131 1319.71 49.5455 1318.98 49.5455C1318.18 49.5455 1317.49 49.7443 1316.9 50.142C1316.33 50.5341 1315.88 51.0455 1315.57 51.6761C1315.25 52.3068 1315.1 52.983 1315.1 53.7045V54.8636C1315.1 55.8523 1315.27 56.6903 1315.61 57.3778C1315.96 58.0597 1316.44 58.5795 1317.05 58.9375C1317.66 59.2898 1318.38 59.4659 1319.19 59.4659C1319.72 59.4659 1320.19 59.392 1320.62 59.2443C1321.05 59.0909 1321.42 58.8636 1321.74 58.5625C1322.05 58.2557 1322.29 57.875 1322.46 57.4205L1324.4 57.9659C1324.2 58.625 1323.86 59.2045 1323.37 59.7045C1322.89 60.1989 1322.29 60.5852 1321.58 60.8636C1320.87 61.1364 1320.08 61.2727 1319.19 61.2727ZM1328.82 47.9091L1331.95 53.2614L1335.09 47.9091H1337.41L1333.18 54.4545L1337.41 61H1335.09L1331.95 55.9205L1328.82 61H1326.5L1330.66 54.4545L1326.5 47.9091H1328.82ZM1340.28 61V47.9091H1342.29V61H1340.28ZM1341.3 45.7273C1340.91 45.7273 1340.57 45.5938 1340.29 45.3267C1340.01 45.0597 1339.87 44.7386 1339.87 44.3636C1339.87 43.9886 1340.01 43.6676 1340.29 43.4006C1340.57 43.1335 1340.91 43 1341.3 43C1341.69 43 1342.03 43.1335 1342.31 43.4006C1342.59 43.6676 1342.73 43.9886 1342.73 44.3636C1342.73 44.7386 1342.59 45.0597 1342.31 45.3267C1342.03 45.5938 1341.69 45.7273 1341.3 45.7273ZM1351.29 61.2727C1350.11 61.2727 1349.07 60.9915 1348.18 60.429C1347.29 59.8665 1346.6 59.0795 1346.1 58.0682C1345.61 57.0568 1345.36 55.875 1345.36 54.5227C1345.36 53.1591 1345.61 51.9687 1346.1 50.9517C1346.6 49.9347 1347.29 49.1449 1348.18 48.5824C1349.07 48.0199 1350.11 47.7386 1351.29 47.7386C1352.47 47.7386 1353.51 48.0199 1354.39 48.5824C1355.29 49.1449 1355.98 49.9347 1356.47 50.9517C1356.97 51.9687 1357.22 53.1591 1357.22 54.5227C1357.22 55.875 1356.97 57.0568 1356.47 58.0682C1355.98 59.0795 1355.29 59.8665 1354.39 60.429C1353.51 60.9915 1352.47 61.2727 1351.29 61.2727ZM1351.29 59.4659C1352.19 59.4659 1352.93 59.2358 1353.51 58.7756C1354.09 58.3153 1354.52 57.7102 1354.79 56.9602C1355.07 56.2102 1355.21 55.3977 1355.21 54.5227C1355.21 53.6477 1355.07 52.8324 1354.79 52.0767C1354.52 51.321 1354.09 50.7102 1353.51 50.2443C1352.93 49.7784 1352.19 49.5455 1351.29 49.5455C1350.39 49.5455 1349.66 49.7784 1349.08 50.2443C1348.5 50.7102 1348.07 51.321 1347.79 52.0767C1347.51 52.8324 1347.37 53.6477 1347.37 54.5227C1347.37 55.3977 1347.51 56.2102 1347.79 56.9602C1348.07 57.7102 1348.5 58.3153 1349.08 58.7756C1349.66 59.2358 1350.39 59.4659 1351.29 59.4659ZM1362.31 53.125V61H1360.29V47.9091H1362.24V49.9545H1362.41C1362.71 49.2898 1363.18 48.7557 1363.81 48.3523C1364.43 47.9432 1365.24 47.7386 1366.23 47.7386C1367.11 47.7386 1367.89 47.9205 1368.55 48.2841C1369.22 48.642 1369.73 49.1875 1370.1 49.9205C1370.47 50.6477 1370.66 51.5682 1370.66 52.6818V61H1368.65V52.8182C1368.65 51.7898 1368.38 50.9886 1367.85 50.4148C1367.31 49.8352 1366.58 49.5455 1365.65 49.5455C1365 49.5455 1364.43 49.6847 1363.92 49.9631C1363.42 50.2415 1363.03 50.6477 1362.74 51.1818C1362.45 51.7159 1362.31 52.3636 1362.31 53.125Z" fill="black"/>
<rect x="1029" y="32" width="167" height="44" fill="#D9D9D9"/>
<path d="M1058.23 43.5455V61H1056.11V43.5455H1058.23ZM1064.2 53.125V61H1062.19V47.9091H1064.14V49.9545H1064.31C1064.61 49.2898 1065.08 48.7557 1065.7 48.3523C1066.33 47.9432 1067.14 47.7386 1068.12 47.7386C1069.01 47.7386 1069.79 47.9205 1070.45 48.2841C1071.12 48.642 1071.63 49.1875 1072 49.9205C1072.37 50.6477 1072.56 51.5682 1072.56 52.6818V61H1070.54V52.8182C1070.54 51.7898 1070.28 50.9886 1069.74 50.4148C1069.21 49.8352 1068.48 49.5455 1067.54 49.5455C1066.9 49.5455 1066.33 49.6847 1065.82 49.9631C1065.32 50.2415 1064.93 50.6477 1064.64 51.1818C1064.35 51.7159 1064.2 52.3636 1064.2 53.125ZM1085.5 50.8409L1083.7 51.3523C1083.58 51.0511 1083.42 50.7585 1083.19 50.4744C1082.98 50.1847 1082.68 49.946 1082.31 49.7585C1081.93 49.571 1081.45 49.4773 1080.87 49.4773C1080.07 49.4773 1079.4 49.6619 1078.87 50.0312C1078.34 50.3949 1078.07 50.858 1078.07 51.4205C1078.07 51.9205 1078.25 52.3153 1078.62 52.6051C1078.98 52.8949 1079.55 53.1364 1080.32 53.3295L1082.27 53.8068C1083.44 54.0909 1084.31 54.5256 1084.88 55.1108C1085.46 55.6903 1085.74 56.4375 1085.74 57.3523C1085.74 58.1023 1085.53 58.7727 1085.1 59.3636C1084.67 59.9545 1084.07 60.4205 1083.31 60.7614C1082.54 61.1023 1081.65 61.2727 1080.63 61.2727C1079.29 61.2727 1078.19 60.983 1077.31 60.4034C1076.44 59.8239 1075.88 58.9773 1075.65 57.8636L1077.56 57.3864C1077.74 58.0909 1078.09 58.6193 1078.59 58.9716C1079.1 59.3239 1079.77 59.5 1080.6 59.5C1081.53 59.5 1082.28 59.3011 1082.83 58.9034C1083.38 58.5 1083.66 58.017 1083.66 57.4545C1083.66 57 1083.5 56.6193 1083.19 56.3125C1082.87 56 1082.38 55.767 1081.72 55.6136L1079.54 55.1023C1078.34 54.8182 1077.46 54.3778 1076.9 53.7812C1076.34 53.179 1076.06 52.4261 1076.06 51.5227C1076.06 50.7841 1076.27 50.1307 1076.68 49.5625C1077.1 48.9943 1077.67 48.5483 1078.4 48.2244C1079.12 47.9006 1079.95 47.7386 1080.87 47.7386C1082.16 47.7386 1083.18 48.0227 1083.92 48.5909C1084.66 49.1591 1085.19 49.9091 1085.5 50.8409ZM1094.09 61.2727C1092.86 61.2727 1091.8 60.983 1090.92 60.4034C1090.03 59.8239 1089.35 59.0256 1088.87 58.0085C1088.4 56.9915 1088.16 55.8295 1088.16 54.5227C1088.16 53.1932 1088.4 52.0199 1088.89 51.0028C1089.38 49.9801 1090.07 49.1818 1090.95 48.608C1091.84 48.0284 1092.87 47.7386 1094.05 47.7386C1094.98 47.7386 1095.8 47.9091 1096.54 48.25C1097.28 48.5909 1097.89 49.0682 1098.36 49.6818C1098.83 50.2955 1099.12 51.0114 1099.24 51.8295H1097.23C1097.07 51.233 1096.73 50.7045 1096.2 50.2443C1095.68 49.7784 1094.98 49.5455 1094.09 49.5455C1093.3 49.5455 1092.62 49.75 1092.03 50.1591C1091.44 50.5625 1090.98 51.1335 1090.65 51.8722C1090.33 52.6051 1090.17 53.4659 1090.17 54.4545C1090.17 55.4659 1090.33 56.3466 1090.65 57.0966C1090.97 57.8466 1091.42 58.429 1092.01 58.8438C1092.6 59.2585 1093.29 59.4659 1094.09 59.4659C1094.61 59.4659 1095.09 59.375 1095.51 59.1932C1095.94 59.0114 1096.3 58.75 1096.59 58.4091C1096.89 58.0682 1097.1 57.6591 1097.23 57.1818H1099.24C1099.12 57.9545 1098.84 58.6506 1098.39 59.2699C1097.95 59.8835 1097.36 60.3722 1096.63 60.7358C1095.9 61.0938 1095.05 61.2727 1094.09 61.2727ZM1102.18 61V47.9091H1104.12V49.8864H1104.26C1104.5 49.2386 1104.93 48.7131 1105.55 48.3097C1106.18 47.9062 1106.88 47.7045 1107.67 47.7045C1107.81 47.7045 1108 47.7074 1108.22 47.7131C1108.44 47.7187 1108.61 47.7273 1108.72 47.7386V49.7841C1108.65 49.767 1108.5 49.7415 1108.25 49.7074C1108.01 49.6676 1107.76 49.6477 1107.5 49.6477C1106.86 49.6477 1106.29 49.7812 1105.79 50.0483C1105.3 50.3097 1104.9 50.6733 1104.61 51.1392C1104.33 51.5994 1104.19 52.125 1104.19 52.7159V61H1102.18ZM1111.11 61V47.9091H1113.12V61H1111.11ZM1112.13 45.7273C1111.74 45.7273 1111.4 45.5938 1111.12 45.3267C1110.84 45.0597 1110.7 44.7386 1110.7 44.3636C1110.7 43.9886 1110.84 43.6676 1111.12 43.4006C1111.4 43.1335 1111.74 43 1112.13 43C1112.52 43 1112.86 43.1335 1113.13 43.4006C1113.42 43.6676 1113.56 43.9886 1113.56 44.3636C1113.56 44.7386 1113.42 45.0597 1113.13 45.3267C1112.86 45.5938 1112.52 45.7273 1112.13 45.7273ZM1116.8 65.9091V47.9091H1118.75V49.9886H1118.98C1119.13 49.7614 1119.34 49.4716 1119.6 49.1193C1119.86 48.7614 1120.25 48.4432 1120.74 48.1648C1121.24 47.8807 1121.92 47.7386 1122.77 47.7386C1123.87 47.7386 1124.84 48.0142 1125.68 48.5653C1126.52 49.1165 1127.18 49.8977 1127.65 50.9091C1128.12 51.9205 1128.36 53.1136 1128.36 54.4886C1128.36 55.875 1128.12 57.0767 1127.65 58.0938C1127.18 59.1051 1126.53 59.8892 1125.69 60.446C1124.86 60.9972 1123.89 61.2727 1122.8 61.2727C1121.96 61.2727 1121.29 61.1335 1120.78 60.8551C1120.28 60.571 1119.89 60.25 1119.61 59.892C1119.34 59.5284 1119.13 59.2273 1118.98 58.9886H1118.81V65.9091H1116.8ZM1118.78 54.4545C1118.78 55.4432 1118.92 56.3153 1119.21 57.071C1119.5 57.821 1119.93 58.4091 1120.48 58.8352C1121.04 59.2557 1121.72 59.4659 1122.53 59.4659C1123.37 59.4659 1124.07 59.2443 1124.63 58.8011C1125.2 58.3523 1125.63 57.75 1125.91 56.9943C1126.2 56.233 1126.35 55.3864 1126.35 54.4545C1126.35 53.5341 1126.21 52.7045 1125.92 51.9659C1125.64 51.2216 1125.22 50.6335 1124.65 50.2017C1124.09 49.7642 1123.38 49.5455 1122.53 49.5455C1121.71 49.5455 1121.02 49.7528 1120.47 50.1676C1119.91 50.5767 1119.49 51.1506 1119.21 51.8892C1118.92 52.6222 1118.78 53.4773 1118.78 54.4545ZM1137.12 47.9091V49.6136H1130.34V47.9091H1137.12ZM1132.31 44.7727H1134.32V57.25C1134.32 57.8182 1134.41 58.2443 1134.57 58.5284C1134.74 58.8068 1134.96 58.9943 1135.22 59.0909C1135.49 59.1818 1135.77 59.2273 1136.06 59.2273C1136.28 59.2273 1136.47 59.2159 1136.61 59.1932C1136.75 59.1648 1136.86 59.142 1136.95 59.125L1137.36 60.9318C1137.22 60.983 1137.03 61.0341 1136.79 61.0852C1136.54 61.142 1136.23 61.1705 1135.86 61.1705C1135.29 61.1705 1134.73 61.0483 1134.19 60.804C1133.65 60.5597 1133.2 60.1875 1132.84 59.6875C1132.49 59.1875 1132.31 58.5568 1132.31 57.7955V44.7727ZM1140.15 61V47.9091H1142.16V61H1140.15ZM1141.17 45.7273C1140.78 45.7273 1140.44 45.5938 1140.15 45.3267C1139.88 45.0597 1139.74 44.7386 1139.74 44.3636C1139.74 43.9886 1139.88 43.6676 1140.15 43.4006C1140.44 43.1335 1140.78 43 1141.17 43C1141.56 43 1141.9 43.1335 1142.17 43.4006C1142.46 43.6676 1142.6 43.9886 1142.6 44.3636C1142.6 44.7386 1142.46 45.0597 1142.17 45.3267C1141.9 45.5938 1141.56 45.7273 1141.17 45.7273ZM1151.16 61.2727C1149.98 61.2727 1148.94 60.9915 1148.05 60.429C1147.16 59.8665 1146.47 59.0795 1145.97 58.0682C1145.47 57.0568 1145.23 55.875 1145.23 54.5227C1145.23 53.1591 1145.47 51.9687 1145.97 50.9517C1146.47 49.9347 1147.16 49.1449 1148.05 48.5824C1148.94 48.0199 1149.98 47.7386 1151.16 47.7386C1152.34 47.7386 1153.38 48.0199 1154.26 48.5824C1155.15 49.1449 1155.85 49.9347 1156.34 50.9517C1156.84 51.9687 1157.09 53.1591 1157.09 54.5227C1157.09 55.875 1156.84 57.0568 1156.34 58.0682C1155.85 59.0795 1155.15 59.8665 1154.26 60.429C1153.38 60.9915 1152.34 61.2727 1151.16 61.2727ZM1151.16 59.4659C1152.06 59.4659 1152.8 59.2358 1153.38 58.7756C1153.95 58.3153 1154.38 57.7102 1154.66 56.9602C1154.94 56.2102 1155.08 55.3977 1155.08 54.5227C1155.08 53.6477 1154.94 52.8324 1154.66 52.0767C1154.38 51.321 1153.95 50.7102 1153.38 50.2443C1152.8 49.7784 1152.06 49.5455 1151.16 49.5455C1150.26 49.5455 1149.52 49.7784 1148.94 50.2443C1148.36 50.7102 1147.93 51.321 1147.66 52.0767C1147.38 52.8324 1147.24 53.6477 1147.24 54.5227C1147.24 55.3977 1147.38 56.2102 1147.66 56.9602C1147.93 57.7102 1148.36 58.3153 1148.94 58.7756C1149.52 59.2358 1150.26 59.4659 1151.16 59.4659ZM1162.17 53.125V61H1160.16V47.9091H1162.1V49.9545H1162.27C1162.58 49.2898 1163.05 48.7557 1163.67 48.3523C1164.3 47.9432 1165.1 47.7386 1166.09 47.7386C1166.98 47.7386 1167.75 47.9205 1168.42 48.2841C1169.08 48.642 1169.6 49.1875 1169.97 49.9205C1170.34 50.6477 1170.52 51.5682 1170.52 52.6818V61H1168.51V52.8182C1168.51 51.7898 1168.25 50.9886 1167.71 50.4148C1167.18 49.8352 1166.45 49.5455 1165.51 49.5455C1164.87 49.5455 1164.3 49.6847 1163.79 49.9631C1163.29 50.2415 1162.9 50.6477 1162.61 51.1818C1162.32 51.7159 1162.17 52.3636 1162.17 53.125Z" fill="black"/>
<path d="M692.419 314.565C692.351 313.878 692.059 313.344 691.542 312.963C691.025 312.582 690.323 312.392 689.436 312.392C688.834 312.392 688.326 312.477 687.911 312.648C687.496 312.812 687.178 313.043 686.956 313.338C686.74 313.634 686.632 313.969 686.632 314.344C686.621 314.656 686.686 314.929 686.828 315.162C686.976 315.395 687.178 315.597 687.434 315.767C687.689 315.932 687.985 316.077 688.32 316.202C688.655 316.321 689.013 316.423 689.394 316.509L690.962 316.884C691.723 317.054 692.422 317.281 693.059 317.565C693.695 317.849 694.246 318.199 694.712 318.614C695.178 319.028 695.539 319.517 695.794 320.08C696.056 320.642 696.189 321.287 696.195 322.014C696.189 323.082 695.917 324.009 695.377 324.793C694.843 325.571 694.07 326.176 693.059 326.608C692.053 327.034 690.84 327.247 689.419 327.247C688.01 327.247 686.783 327.031 685.738 326.599C684.698 326.168 683.885 325.528 683.3 324.682C682.721 323.83 682.417 322.776 682.388 321.52H685.959C685.999 322.105 686.167 322.594 686.462 322.986C686.763 323.372 687.164 323.665 687.664 323.864C688.169 324.057 688.74 324.153 689.377 324.153C690.002 324.153 690.544 324.062 691.005 323.881C691.471 323.699 691.831 323.446 692.087 323.122C692.343 322.798 692.471 322.426 692.471 322.006C692.471 321.614 692.354 321.284 692.121 321.017C691.894 320.75 691.559 320.523 691.115 320.335C690.678 320.148 690.141 319.977 689.505 319.824L687.604 319.347C686.132 318.989 684.971 318.429 684.118 317.668C683.266 316.906 682.843 315.881 682.848 314.591C682.843 313.534 683.124 312.611 683.692 311.821C684.266 311.031 685.053 310.415 686.053 309.972C687.053 309.528 688.189 309.307 689.462 309.307C690.757 309.307 691.888 309.528 692.854 309.972C693.826 310.415 694.581 311.031 695.121 311.821C695.661 312.611 695.939 313.526 695.956 314.565H692.419ZM701.652 309.545V311.386C701.652 311.909 701.549 312.443 701.345 312.989C701.146 313.528 700.879 314.04 700.544 314.523C700.208 315 699.842 315.406 699.444 315.741L697.842 314.795C698.126 314.347 698.376 313.849 698.592 313.304C698.814 312.759 698.924 312.125 698.924 311.403V309.545H701.652ZM704.07 327V313.909H707.701V327H704.07ZM705.894 312.222C705.354 312.222 704.891 312.043 704.505 311.685C704.124 311.321 703.934 310.886 703.934 310.381C703.934 309.881 704.124 309.452 704.505 309.094C704.891 308.73 705.354 308.548 705.894 308.548C706.434 308.548 706.894 308.73 707.275 309.094C707.661 309.452 707.854 309.881 707.854 310.381C707.854 310.886 707.661 311.321 707.275 311.685C706.894 312.043 706.434 312.222 705.894 312.222ZM714.24 319.432V327H710.609V313.909H714.069V316.219H714.223C714.512 315.457 714.998 314.855 715.68 314.412C716.362 313.963 717.189 313.739 718.16 313.739C719.069 313.739 719.862 313.938 720.538 314.335C721.214 314.733 721.74 315.301 722.115 316.04C722.49 316.773 722.677 317.648 722.677 318.665V327H719.047V319.312C719.052 318.511 718.848 317.886 718.433 317.438C718.018 316.983 717.447 316.756 716.72 316.756C716.231 316.756 715.799 316.861 715.424 317.071C715.055 317.281 714.765 317.588 714.555 317.991C714.35 318.389 714.245 318.869 714.24 319.432ZM736.431 317.642L733.107 317.847C733.05 317.562 732.928 317.307 732.74 317.08C732.553 316.847 732.306 316.662 731.999 316.526C731.698 316.384 731.337 316.312 730.917 316.312C730.354 316.312 729.88 316.432 729.493 316.67C729.107 316.903 728.914 317.216 728.914 317.608C728.914 317.92 729.039 318.185 729.289 318.401C729.539 318.616 729.968 318.79 730.576 318.92L732.945 319.398C734.218 319.659 735.167 320.08 735.792 320.659C736.417 321.239 736.729 322 736.729 322.943C736.729 323.801 736.476 324.554 735.971 325.202C735.471 325.849 734.783 326.355 733.908 326.719C733.039 327.077 732.036 327.256 730.9 327.256C729.167 327.256 727.786 326.895 726.757 326.173C725.735 325.446 725.135 324.457 724.959 323.207L728.53 323.02C728.638 323.548 728.9 323.952 729.314 324.23C729.729 324.503 730.26 324.639 730.908 324.639C731.544 324.639 732.056 324.517 732.442 324.273C732.834 324.023 733.033 323.702 733.039 323.31C733.033 322.98 732.894 322.71 732.621 322.5C732.348 322.284 731.928 322.119 731.36 322.006L729.093 321.554C727.814 321.298 726.863 320.855 726.238 320.224C725.618 319.594 725.309 318.79 725.309 317.812C725.309 316.972 725.536 316.247 725.99 315.639C726.451 315.031 727.096 314.562 727.925 314.233C728.76 313.903 729.738 313.739 730.857 313.739C732.51 313.739 733.811 314.088 734.76 314.787C735.715 315.486 736.272 316.437 736.431 317.642ZM744.93 327.256C743.589 327.256 742.436 326.972 741.47 326.403C740.51 325.83 739.771 325.034 739.254 324.017C738.743 323 738.487 321.83 738.487 320.506C738.487 319.165 738.745 317.989 739.262 316.977C739.785 315.96 740.527 315.168 741.487 314.599C742.447 314.026 743.589 313.739 744.913 313.739C746.055 313.739 747.055 313.946 747.913 314.361C748.771 314.776 749.45 315.358 749.95 316.108C750.45 316.858 750.725 317.739 750.777 318.75H747.35C747.254 318.097 746.998 317.571 746.583 317.173C746.174 316.77 745.637 316.568 744.973 316.568C744.41 316.568 743.919 316.722 743.498 317.028C743.083 317.33 742.76 317.77 742.527 318.349C742.294 318.929 742.177 319.631 742.177 320.455C742.177 321.29 742.291 322 742.518 322.585C742.751 323.17 743.078 323.616 743.498 323.923C743.919 324.23 744.41 324.384 744.973 324.384C745.387 324.384 745.76 324.298 746.089 324.128C746.424 323.957 746.7 323.71 746.916 323.386C747.137 323.057 747.282 322.662 747.35 322.202H750.777C750.72 323.202 750.447 324.082 749.958 324.844C749.475 325.599 748.808 326.19 747.956 326.616C747.103 327.043 746.095 327.256 744.93 327.256ZM753.101 327V313.909H756.621V316.193H756.757C756.996 315.381 757.397 314.767 757.959 314.352C758.522 313.932 759.169 313.722 759.902 313.722C760.084 313.722 760.28 313.733 760.49 313.756C760.701 313.778 760.885 313.81 761.044 313.849V317.071C760.874 317.02 760.638 316.974 760.337 316.935C760.036 316.895 759.76 316.875 759.51 316.875C758.976 316.875 758.499 316.991 758.078 317.224C757.664 317.452 757.334 317.77 757.09 318.179C756.851 318.588 756.732 319.06 756.732 319.594V327H753.101ZM762.922 327V313.909H766.552V327H762.922ZM764.745 312.222C764.206 312.222 763.743 312.043 763.356 311.685C762.975 311.321 762.785 310.886 762.785 310.381C762.785 309.881 762.975 309.452 763.356 309.094C763.743 308.73 764.206 308.548 764.745 308.548C765.285 308.548 765.745 308.73 766.126 309.094C766.512 309.452 766.706 309.881 766.706 310.381C766.706 310.886 766.512 311.321 766.126 311.685C765.745 312.043 765.285 312.222 764.745 312.222ZM769.461 327V313.909H772.98V316.193H773.117C773.355 315.381 773.756 314.767 774.319 314.352C774.881 313.932 775.529 313.722 776.262 313.722C776.444 313.722 776.64 313.733 776.85 313.756C777.06 313.778 777.245 313.81 777.404 313.849V317.071C777.233 317.02 776.998 316.974 776.696 316.935C776.395 316.895 776.12 316.875 775.87 316.875C775.336 316.875 774.858 316.991 774.438 317.224C774.023 317.452 773.694 317.77 773.449 318.179C773.211 318.588 773.091 319.06 773.091 319.594V327H769.461ZM784.637 327.256C783.291 327.256 782.132 326.983 781.16 326.438C780.194 325.886 779.45 325.108 778.927 324.102C778.404 323.091 778.143 321.895 778.143 320.514C778.143 319.168 778.404 317.986 778.927 316.969C779.45 315.952 780.186 315.159 781.135 314.591C782.089 314.023 783.208 313.739 784.493 313.739C785.356 313.739 786.16 313.878 786.904 314.156C787.654 314.429 788.308 314.841 788.865 315.392C789.427 315.943 789.865 316.636 790.177 317.472C790.49 318.301 790.646 319.273 790.646 320.386V321.384H779.592V319.134H787.228C787.228 318.611 787.115 318.148 786.887 317.744C786.66 317.341 786.345 317.026 785.941 316.798C785.544 316.565 785.081 316.449 784.552 316.449C784.001 316.449 783.512 316.577 783.086 316.832C782.666 317.082 782.336 317.42 782.098 317.847C781.859 318.267 781.737 318.736 781.731 319.253V321.392C781.731 322.04 781.85 322.599 782.089 323.071C782.333 323.543 782.677 323.906 783.12 324.162C783.564 324.418 784.089 324.545 784.697 324.545C785.1 324.545 785.47 324.489 785.805 324.375C786.14 324.261 786.427 324.091 786.666 323.864C786.904 323.636 787.086 323.358 787.211 323.028L790.569 323.25C790.399 324.057 790.049 324.761 789.521 325.364C788.998 325.96 788.322 326.426 787.493 326.761C786.669 327.091 785.717 327.256 784.637 327.256Z" fill="black"/>
<rect x="401.873" y="388.5" width="665.627" height="64.5442" rx="6.5" fill="#FCFCFC" stroke="black"/>
<path d="M488.088 412.81H490.201V424.367C490.201 425.56 489.92 426.626 489.358 427.563C488.801 428.495 488.014 429.231 486.997 429.771C485.98 430.305 484.787 430.572 483.417 430.572C482.048 430.572 480.855 430.305 479.838 429.771C478.821 429.231 478.031 428.495 477.468 427.563C476.912 426.626 476.633 425.56 476.633 424.367V412.81H478.747V424.197C478.747 425.049 478.934 425.808 479.309 426.472C479.684 427.131 480.218 427.651 480.912 428.032C481.611 428.407 482.446 428.595 483.417 428.595C484.389 428.595 485.224 428.407 485.923 428.032C486.622 427.651 487.156 427.131 487.525 426.472C487.9 425.808 488.088 425.049 488.088 424.197V412.81ZM503.422 420.106L501.616 420.617C501.502 420.316 501.334 420.024 501.113 419.739C500.897 419.45 500.601 419.211 500.226 419.024C499.851 418.836 499.371 418.742 498.786 418.742C497.985 418.742 497.317 418.927 496.783 419.296C496.255 419.66 495.991 420.123 495.991 420.685C495.991 421.185 496.172 421.58 496.536 421.87C496.9 422.16 497.468 422.401 498.241 422.595L500.184 423.072C501.354 423.356 502.226 423.791 502.8 424.376C503.374 424.955 503.661 425.703 503.661 426.617C503.661 427.367 503.445 428.038 503.013 428.629C502.587 429.22 501.991 429.685 501.223 430.026C500.456 430.367 499.564 430.538 498.547 430.538C497.212 430.538 496.107 430.248 495.232 429.668C494.357 429.089 493.803 428.242 493.57 427.129L495.479 426.651C495.661 427.356 496.005 427.884 496.51 428.237C497.022 428.589 497.689 428.765 498.513 428.765C499.451 428.765 500.195 428.566 500.746 428.168C501.303 427.765 501.581 427.282 501.581 426.72C501.581 426.265 501.422 425.884 501.104 425.578C500.786 425.265 500.297 425.032 499.638 424.879L497.456 424.367C496.258 424.083 495.377 423.643 494.814 423.046C494.258 422.444 493.979 421.691 493.979 420.788C493.979 420.049 494.187 419.396 494.601 418.828C495.022 418.259 495.593 417.813 496.314 417.489C497.042 417.166 497.866 417.004 498.786 417.004C500.081 417.004 501.098 417.288 501.837 417.856C502.581 418.424 503.11 419.174 503.422 420.106ZM512.177 430.538C510.916 430.538 509.828 430.259 508.913 429.703C508.004 429.14 507.302 428.356 506.808 427.35C506.319 426.339 506.075 425.163 506.075 423.822C506.075 422.481 506.319 421.299 506.808 420.276C507.302 419.248 507.99 418.447 508.87 417.873C509.757 417.293 510.791 417.004 511.973 417.004C512.655 417.004 513.328 417.117 513.993 417.345C514.657 417.572 515.263 417.941 515.808 418.453C516.353 418.958 516.788 419.629 517.112 420.464C517.436 421.299 517.598 422.328 517.598 423.549V424.401H507.507V422.663H515.552C515.552 421.924 515.405 421.265 515.109 420.685C514.819 420.106 514.405 419.649 513.865 419.313C513.331 418.978 512.7 418.81 511.973 418.81C511.172 418.81 510.478 419.009 509.893 419.407C509.314 419.799 508.868 420.31 508.555 420.941C508.243 421.572 508.086 422.248 508.086 422.97V424.129C508.086 425.117 508.257 425.955 508.598 426.643C508.944 427.325 509.424 427.845 510.038 428.203C510.652 428.555 511.365 428.731 512.177 428.731C512.706 428.731 513.183 428.657 513.609 428.509C514.041 428.356 514.413 428.129 514.726 427.828C515.038 427.521 515.28 427.14 515.45 426.685L517.393 427.231C517.189 427.89 516.845 428.47 516.362 428.97C515.879 429.464 515.282 429.85 514.572 430.129C513.862 430.401 513.064 430.538 512.177 430.538ZM520.657 430.265V417.174H522.601V419.151H522.737C522.976 418.504 523.407 417.978 524.032 417.575C524.657 417.171 525.362 416.97 526.146 416.97C526.294 416.97 526.478 416.972 526.7 416.978C526.922 416.984 527.089 416.992 527.203 417.004V419.049C527.135 419.032 526.978 419.006 526.734 418.972C526.495 418.933 526.243 418.913 525.976 418.913C525.339 418.913 524.771 419.046 524.271 419.313C523.777 419.575 523.385 419.938 523.095 420.404C522.811 420.864 522.669 421.39 522.669 421.981V430.265H520.657ZM531.598 422.39V430.265H529.587V417.174H531.53V419.22H531.701C532.008 418.555 532.473 418.021 533.098 417.617C533.723 417.208 534.53 417.004 535.519 417.004C536.405 417.004 537.181 417.185 537.846 417.549C538.51 417.907 539.027 418.453 539.397 419.185C539.766 419.913 539.951 420.833 539.951 421.947V430.265H537.939V422.083C537.939 421.055 537.672 420.254 537.138 419.68C536.604 419.1 535.871 418.81 534.939 418.81C534.297 418.81 533.723 418.95 533.218 419.228C532.718 419.506 532.323 419.913 532.033 420.447C531.743 420.981 531.598 421.629 531.598 422.39ZM547.478 430.572C546.649 430.572 545.896 430.416 545.22 430.103C544.544 429.785 544.007 429.328 543.609 428.731C543.211 428.129 543.013 427.401 543.013 426.549C543.013 425.799 543.16 425.191 543.456 424.725C543.751 424.254 544.146 423.884 544.64 423.617C545.135 423.35 545.68 423.151 546.277 423.021C546.879 422.884 547.484 422.776 548.092 422.697C548.888 422.595 549.532 422.518 550.027 422.467C550.527 422.41 550.89 422.316 551.118 422.185C551.351 422.055 551.467 421.828 551.467 421.504V421.435C551.467 420.595 551.237 419.941 550.777 419.475C550.322 419.009 549.632 418.776 548.706 418.776C547.745 418.776 546.993 418.987 546.447 419.407C545.902 419.828 545.518 420.276 545.297 420.754L543.388 420.072C543.728 419.276 544.183 418.657 544.751 418.214C545.325 417.765 545.95 417.453 546.626 417.276C547.308 417.095 547.978 417.004 548.638 417.004C549.058 417.004 549.541 417.055 550.086 417.157C550.638 417.254 551.169 417.455 551.68 417.762C552.197 418.069 552.626 418.532 552.967 419.151C553.308 419.771 553.478 420.6 553.478 421.64V430.265H551.467V428.492H551.365C551.228 428.776 551.001 429.08 550.683 429.404C550.365 429.728 549.941 430.004 549.413 430.231C548.885 430.458 548.24 430.572 547.478 430.572ZM547.785 428.765C548.581 428.765 549.251 428.609 549.797 428.296C550.348 427.984 550.763 427.58 551.041 427.086C551.325 426.592 551.467 426.072 551.467 425.526V423.685C551.382 423.788 551.194 423.881 550.905 423.967C550.62 424.046 550.291 424.117 549.916 424.18C549.547 424.237 549.186 424.288 548.834 424.333C548.487 424.373 548.206 424.407 547.99 424.435C547.467 424.504 546.978 424.614 546.524 424.768C546.075 424.916 545.711 425.14 545.433 425.441C545.16 425.737 545.024 426.14 545.024 426.651C545.024 427.35 545.282 427.879 545.799 428.237C546.322 428.589 546.984 428.765 547.785 428.765ZM557.15 430.265V417.174H559.093V419.22H559.263C559.536 418.521 559.976 417.978 560.584 417.592C561.192 417.2 561.922 417.004 562.775 417.004C563.638 417.004 564.357 417.2 564.931 417.592C565.51 417.978 565.962 418.521 566.286 419.22H566.422C566.758 418.543 567.26 418.006 567.931 417.609C568.601 417.205 569.405 417.004 570.343 417.004C571.513 417.004 572.471 417.37 573.215 418.103C573.959 418.83 574.331 419.964 574.331 421.504V430.265H572.32V421.504C572.32 420.538 572.056 419.847 571.527 419.433C570.999 419.018 570.377 418.81 569.661 418.81C568.741 418.81 568.027 419.089 567.522 419.646C567.016 420.197 566.763 420.896 566.763 421.742V430.265H564.718V421.299C564.718 420.555 564.476 419.955 563.993 419.501C563.51 419.041 562.888 418.81 562.127 418.81C561.604 418.81 561.116 418.95 560.661 419.228C560.212 419.506 559.848 419.893 559.57 420.387C559.297 420.876 559.161 421.441 559.161 422.083V430.265H557.15ZM583.498 430.538C582.236 430.538 581.148 430.259 580.233 429.703C579.324 429.14 578.623 428.356 578.128 427.35C577.64 426.339 577.395 425.163 577.395 423.822C577.395 422.481 577.64 421.299 578.128 420.276C578.623 419.248 579.31 418.447 580.191 417.873C581.077 417.293 582.111 417.004 583.293 417.004C583.975 417.004 584.648 417.117 585.313 417.345C585.978 417.572 586.583 417.941 587.128 418.453C587.674 418.958 588.108 419.629 588.432 420.464C588.756 421.299 588.918 422.328 588.918 423.549V424.401H578.827V422.663H586.873C586.873 421.924 586.725 421.265 586.429 420.685C586.14 420.106 585.725 419.649 585.185 419.313C584.651 418.978 584.02 418.81 583.293 418.81C582.492 418.81 581.799 419.009 581.214 419.407C580.634 419.799 580.188 420.31 579.875 420.941C579.563 421.572 579.407 422.248 579.407 422.97V424.129C579.407 425.117 579.577 425.955 579.918 426.643C580.265 427.325 580.745 427.845 581.358 428.203C581.972 428.555 582.685 428.731 583.498 428.731C584.026 428.731 584.503 428.657 584.929 428.509C585.361 428.356 585.733 428.129 586.046 427.828C586.358 427.521 586.6 427.14 586.77 426.685L588.714 427.231C588.509 427.89 588.165 428.47 587.682 428.97C587.199 429.464 586.603 429.85 585.892 430.129C585.182 430.401 584.384 430.538 583.498 430.538Z" fill="black"/>
<rect x="401.5" y="590.804" width="665.627" height="64.5442" rx="6.5" fill="#FCFCFC" stroke="black"/>
<path d="M476.261 615.114H478.783L484.715 629.603H484.92L490.852 615.114H493.374V632.569H491.397V619.308H491.227L485.772 632.569H483.863L478.408 619.308H478.238V632.569H476.261V615.114ZM502.658 632.842C501.476 632.842 500.439 632.56 499.547 631.998C498.661 631.435 497.967 630.649 497.467 629.637C496.973 628.626 496.726 627.444 496.726 626.092C496.726 624.728 496.973 623.538 497.467 622.521C497.967 621.504 498.661 620.714 499.547 620.151C500.439 619.589 501.476 619.308 502.658 619.308C503.84 619.308 504.874 619.589 505.76 620.151C506.652 620.714 507.345 621.504 507.84 622.521C508.34 623.538 508.59 624.728 508.59 626.092C508.59 627.444 508.34 628.626 507.84 629.637C507.345 630.649 506.652 631.435 505.76 631.998C504.874 632.56 503.84 632.842 502.658 632.842ZM502.658 631.035C503.555 631.035 504.294 630.805 504.874 630.345C505.453 629.884 505.882 629.279 506.161 628.529C506.439 627.779 506.578 626.967 506.578 626.092C506.578 625.217 506.439 624.401 506.161 623.646C505.882 622.89 505.453 622.279 504.874 621.813C504.294 621.347 503.555 621.114 502.658 621.114C501.76 621.114 501.021 621.347 500.442 621.813C499.862 622.279 499.433 622.89 499.155 623.646C498.876 624.401 498.737 625.217 498.737 626.092C498.737 626.967 498.876 627.779 499.155 628.529C499.433 629.279 499.862 629.884 500.442 630.345C501.021 630.805 501.76 631.035 502.658 631.035ZM517.353 619.478V621.183H510.569V619.478H517.353ZM512.546 616.342H514.558V628.819C514.558 629.387 514.64 629.813 514.805 630.097C514.975 630.376 515.191 630.563 515.452 630.66C515.72 630.751 516.001 630.796 516.296 630.796C516.518 630.796 516.7 630.785 516.842 630.762C516.984 630.734 517.097 630.711 517.183 630.694L517.592 632.501C517.455 632.552 517.265 632.603 517.021 632.654C516.776 632.711 516.467 632.739 516.092 632.739C515.523 632.739 514.967 632.617 514.421 632.373C513.881 632.129 513.433 631.756 513.075 631.256C512.722 630.756 512.546 630.126 512.546 629.364V616.342ZM532.072 632.842C530.981 632.842 530.018 632.566 529.183 632.015C528.347 631.458 527.694 630.674 527.222 629.663C526.751 628.646 526.515 627.444 526.515 626.058C526.515 624.683 526.751 623.489 527.222 622.478C527.694 621.467 528.35 620.685 529.191 620.134C530.032 619.583 531.004 619.308 532.106 619.308C532.958 619.308 533.631 619.45 534.126 619.734C534.626 620.012 535.006 620.33 535.268 620.688C535.535 621.041 535.742 621.33 535.89 621.558H536.06V615.114H538.072V632.569H536.129V630.558H535.89C535.742 630.796 535.532 631.097 535.259 631.461C534.987 631.819 534.597 632.14 534.092 632.424C533.586 632.702 532.913 632.842 532.072 632.842ZM532.345 631.035C533.151 631.035 533.833 630.825 534.39 630.404C534.947 629.978 535.37 629.39 535.66 628.64C535.95 627.884 536.095 627.012 536.095 626.024C536.095 625.046 535.952 624.191 535.668 623.458C535.384 622.72 534.964 622.146 534.407 621.737C533.85 621.322 533.163 621.114 532.345 621.114C531.492 621.114 530.782 621.333 530.214 621.771C529.651 622.202 529.228 622.791 528.944 623.535C528.666 624.274 528.526 625.103 528.526 626.024C528.526 626.955 528.668 627.802 528.952 628.563C529.242 629.319 529.668 629.921 530.231 630.37C530.799 630.813 531.504 631.035 532.345 631.035ZM547.523 632.842C546.262 632.842 545.174 632.563 544.259 632.006C543.35 631.444 542.648 630.66 542.154 629.654C541.666 628.643 541.421 627.467 541.421 626.126C541.421 624.785 541.666 623.603 542.154 622.58C542.648 621.552 543.336 620.751 544.217 620.177C545.103 619.597 546.137 619.308 547.319 619.308C548.001 619.308 548.674 619.421 549.339 619.649C550.004 619.876 550.609 620.245 551.154 620.756C551.7 621.262 552.134 621.933 552.458 622.768C552.782 623.603 552.944 624.631 552.944 625.853V626.705H542.853V624.967H550.898C550.898 624.228 550.751 623.569 550.455 622.989C550.166 622.41 549.751 621.952 549.211 621.617C548.677 621.282 548.046 621.114 547.319 621.114C546.518 621.114 545.825 621.313 545.239 621.711C544.66 622.103 544.214 622.614 543.901 623.245C543.589 623.876 543.433 624.552 543.433 625.274V626.433C543.433 627.421 543.603 628.259 543.944 628.947C544.291 629.629 544.771 630.149 545.384 630.506C545.998 630.859 546.711 631.035 547.523 631.035C548.052 631.035 548.529 630.961 548.955 630.813C549.387 630.66 549.759 630.433 550.072 630.131C550.384 629.825 550.626 629.444 550.796 628.989L552.739 629.535C552.535 630.194 552.191 630.774 551.708 631.274C551.225 631.768 550.629 632.154 549.918 632.433C549.208 632.705 548.41 632.842 547.523 632.842ZM562.754 637.478V619.478H564.697V621.558H564.935C565.083 621.33 565.288 621.041 565.549 620.688C565.816 620.33 566.197 620.012 566.691 619.734C567.191 619.45 567.867 619.308 568.72 619.308C569.822 619.308 570.793 619.583 571.634 620.134C572.475 620.685 573.131 621.467 573.603 622.478C574.075 623.489 574.31 624.683 574.31 626.058C574.31 627.444 574.075 628.646 573.603 629.663C573.131 630.674 572.478 631.458 571.643 632.015C570.808 632.566 569.845 632.842 568.754 632.842C567.913 632.842 567.239 632.702 566.734 632.424C566.228 632.14 565.839 631.819 565.566 631.461C565.293 631.097 565.083 630.796 564.935 630.558H564.765V637.478H562.754ZM564.731 626.024C564.731 627.012 564.876 627.884 565.166 628.64C565.455 629.39 565.879 629.978 566.435 630.404C566.992 630.825 567.674 631.035 568.481 631.035C569.322 631.035 570.023 630.813 570.586 630.37C571.154 629.921 571.58 629.319 571.864 628.563C572.154 627.802 572.299 626.955 572.299 626.024C572.299 625.103 572.157 624.274 571.873 623.535C571.595 622.791 571.171 622.202 570.603 621.771C570.041 621.333 569.333 621.114 568.481 621.114C567.663 621.114 566.975 621.322 566.418 621.737C565.862 622.146 565.441 622.72 565.157 623.458C564.873 624.191 564.731 625.046 564.731 626.024ZM581.231 632.876C580.401 632.876 579.648 632.72 578.972 632.407C578.296 632.089 577.759 631.631 577.362 631.035C576.964 630.433 576.765 629.705 576.765 628.853C576.765 628.103 576.913 627.495 577.208 627.029C577.504 626.558 577.898 626.188 578.393 625.921C578.887 625.654 579.433 625.455 580.029 625.325C580.631 625.188 581.237 625.08 581.845 625.001C582.64 624.899 583.285 624.822 583.779 624.771C584.279 624.714 584.643 624.62 584.87 624.489C585.103 624.359 585.22 624.131 585.22 623.808V623.739C585.22 622.899 584.989 622.245 584.529 621.779C584.075 621.313 583.384 621.08 582.458 621.08C581.498 621.08 580.745 621.291 580.2 621.711C579.654 622.131 579.271 622.58 579.049 623.058L577.14 622.376C577.481 621.58 577.935 620.961 578.504 620.518C579.077 620.069 579.702 619.756 580.379 619.58C581.06 619.399 581.731 619.308 582.39 619.308C582.81 619.308 583.293 619.359 583.839 619.461C584.39 619.558 584.921 619.759 585.433 620.066C585.95 620.373 586.379 620.836 586.72 621.455C587.06 622.075 587.231 622.904 587.231 623.944V632.569H585.22V630.796H585.117C584.981 631.08 584.754 631.384 584.435 631.708C584.117 632.032 583.694 632.308 583.166 632.535C582.637 632.762 581.992 632.876 581.231 632.876ZM581.538 631.069C582.333 631.069 583.004 630.913 583.549 630.6C584.1 630.288 584.515 629.884 584.793 629.39C585.077 628.896 585.22 628.376 585.22 627.83V625.989C585.134 626.092 584.947 626.185 584.657 626.271C584.373 626.35 584.043 626.421 583.668 626.484C583.299 626.541 582.938 626.592 582.586 626.637C582.239 626.677 581.958 626.711 581.742 626.739C581.22 626.808 580.731 626.918 580.276 627.072C579.827 627.22 579.464 627.444 579.185 627.745C578.913 628.041 578.776 628.444 578.776 628.955C578.776 629.654 579.035 630.183 579.552 630.541C580.075 630.893 580.737 631.069 581.538 631.069ZM600.175 622.41L598.368 622.921C598.254 622.62 598.087 622.327 597.865 622.043C597.649 621.754 597.354 621.515 596.979 621.327C596.604 621.14 596.124 621.046 595.538 621.046C594.737 621.046 594.07 621.231 593.536 621.6C593.007 621.964 592.743 622.427 592.743 622.989C592.743 623.489 592.925 623.884 593.288 624.174C593.652 624.464 594.22 624.705 594.993 624.899L596.936 625.376C598.107 625.66 598.979 626.095 599.553 626.68C600.126 627.259 600.413 628.006 600.413 628.921C600.413 629.671 600.197 630.342 599.766 630.933C599.34 631.524 598.743 631.989 597.976 632.33C597.209 632.671 596.317 632.842 595.3 632.842C593.965 632.842 592.859 632.552 591.984 631.972C591.109 631.393 590.555 630.546 590.322 629.433L592.232 628.955C592.413 629.66 592.757 630.188 593.263 630.541C593.774 630.893 594.442 631.069 595.266 631.069C596.203 631.069 596.947 630.87 597.499 630.472C598.055 630.069 598.334 629.586 598.334 629.024C598.334 628.569 598.175 628.188 597.857 627.881C597.538 627.569 597.05 627.336 596.391 627.183L594.209 626.671C593.01 626.387 592.129 625.947 591.567 625.35C591.01 624.748 590.732 623.995 590.732 623.092C590.732 622.353 590.939 621.7 591.354 621.131C591.774 620.563 592.345 620.117 593.067 619.793C593.794 619.47 594.618 619.308 595.538 619.308C596.834 619.308 597.851 619.592 598.59 620.16C599.334 620.728 599.862 621.478 600.175 622.41ZM612.714 622.41L610.907 622.921C610.793 622.62 610.626 622.327 610.404 622.043C610.188 621.754 609.893 621.515 609.518 621.327C609.143 621.14 608.663 621.046 608.077 621.046C607.276 621.046 606.609 621.231 606.075 621.6C605.546 621.964 605.282 622.427 605.282 622.989C605.282 623.489 605.464 623.884 605.827 624.174C606.191 624.464 606.759 624.705 607.532 624.899L609.475 625.376C610.646 625.66 611.518 626.095 612.092 626.68C612.666 627.259 612.952 628.006 612.952 628.921C612.952 629.671 612.737 630.342 612.305 630.933C611.879 631.524 611.282 631.989 610.515 632.33C609.748 632.671 608.856 632.842 607.839 632.842C606.504 632.842 605.398 632.552 604.523 631.972C603.648 631.393 603.095 630.546 602.862 629.433L604.771 628.955C604.952 629.66 605.296 630.188 605.802 630.541C606.313 630.893 606.981 631.069 607.805 631.069C608.742 631.069 609.487 630.87 610.038 630.472C610.595 630.069 610.873 629.586 610.873 629.024C610.873 628.569 610.714 628.188 610.396 627.881C610.077 627.569 609.589 627.336 608.93 627.183L606.748 626.671C605.549 626.387 604.668 625.947 604.106 625.35C603.549 624.748 603.271 623.995 603.271 623.092C603.271 622.353 603.478 621.7 603.893 621.131C604.313 620.563 604.884 620.117 605.606 619.793C606.333 619.47 607.157 619.308 608.077 619.308C609.373 619.308 610.39 619.592 611.129 620.16C611.873 620.728 612.401 621.478 612.714 622.41ZM621.469 632.842C620.207 632.842 619.119 632.563 618.205 632.006C617.296 631.444 616.594 630.66 616.099 629.654C615.611 628.643 615.367 627.467 615.367 626.126C615.367 624.785 615.611 623.603 616.099 622.58C616.594 621.552 617.281 620.751 618.162 620.177C619.048 619.597 620.082 619.308 621.264 619.308C621.946 619.308 622.619 619.421 623.284 619.649C623.949 619.876 624.554 620.245 625.099 620.756C625.645 621.262 626.08 621.933 626.403 622.768C626.727 623.603 626.889 624.631 626.889 625.853V626.705H616.798V624.967H624.844C624.844 624.228 624.696 623.569 624.401 622.989C624.111 622.41 623.696 621.952 623.156 621.617C622.622 621.282 621.992 621.114 621.264 621.114C620.463 621.114 619.77 621.313 619.185 621.711C618.605 622.103 618.159 622.614 617.847 623.245C617.534 623.876 617.378 624.552 617.378 625.274V626.433C617.378 627.421 617.548 628.259 617.889 628.947C618.236 629.629 618.716 630.149 619.33 630.506C619.943 630.859 620.656 631.035 621.469 631.035C621.997 631.035 622.474 630.961 622.901 630.813C623.332 630.66 623.705 630.433 624.017 630.131C624.33 629.825 624.571 629.444 624.742 628.989L626.685 629.535C626.48 630.194 626.136 630.774 625.653 631.274C625.171 631.768 624.574 632.154 623.864 632.433C623.153 632.705 622.355 632.842 621.469 632.842Z" fill="black"/>
<rect x="401.5" y="691.956" width="665.627" height="64.5442" rx="6.5" fill="#FCFCFC" stroke="black"/>
<path d="M490.306 721.721H488.193C488.068 721.113 487.849 720.579 487.536 720.119C487.229 719.658 486.854 719.272 486.411 718.959C485.974 718.641 485.488 718.403 484.954 718.244C484.42 718.084 483.863 718.005 483.283 718.005C482.227 718.005 481.269 718.272 480.411 718.806C479.559 719.34 478.88 720.127 478.374 721.167C477.874 722.207 477.624 723.482 477.624 724.994C477.624 726.505 477.874 727.78 478.374 728.82C478.88 729.86 479.559 730.647 480.411 731.181C481.269 731.715 482.227 731.982 483.283 731.982C483.863 731.982 484.42 731.903 484.954 731.744C485.488 731.584 485.974 731.349 486.411 731.036C486.854 730.718 487.229 730.329 487.536 729.869C487.849 729.403 488.068 728.869 488.193 728.266H490.306C490.147 729.158 489.857 729.957 489.437 730.661C489.016 731.366 488.494 731.965 487.869 732.459C487.244 732.948 486.542 733.32 485.764 733.576C484.991 733.832 484.164 733.959 483.283 733.959C481.795 733.959 480.471 733.596 479.312 732.869C478.153 732.141 477.241 731.107 476.576 729.766C475.911 728.425 475.579 726.834 475.579 724.994C475.579 723.153 475.911 721.562 476.576 720.221C477.241 718.88 478.153 717.846 479.312 717.119C480.471 716.391 481.795 716.028 483.283 716.028C484.164 716.028 484.991 716.155 485.764 716.411C486.542 716.667 487.244 717.042 487.869 717.536C488.494 718.025 489.016 718.621 489.437 719.326C489.857 720.025 490.147 720.823 490.306 721.721ZM498.767 733.994C497.585 733.994 496.548 733.712 495.656 733.15C494.77 732.587 494.077 731.8 493.577 730.789C493.082 729.778 492.835 728.596 492.835 727.244C492.835 725.88 493.082 724.69 493.577 723.673C494.077 722.655 494.77 721.866 495.656 721.303C496.548 720.741 497.585 720.459 498.767 720.459C499.949 720.459 500.983 720.741 501.869 721.303C502.761 721.866 503.455 722.655 503.949 723.673C504.449 724.69 504.699 725.88 504.699 727.244C504.699 728.596 504.449 729.778 503.949 730.789C503.455 731.8 502.761 732.587 501.869 733.15C500.983 733.712 499.949 733.994 498.767 733.994ZM498.767 732.187C499.665 732.187 500.403 731.957 500.983 731.496C501.563 731.036 501.992 730.431 502.27 729.681C502.548 728.931 502.688 728.119 502.688 727.244C502.688 726.369 502.548 725.553 502.27 724.798C501.992 724.042 501.563 723.431 500.983 722.965C500.403 722.499 499.665 722.266 498.767 722.266C497.869 722.266 497.131 722.499 496.551 722.965C495.972 723.431 495.543 724.042 495.264 724.798C494.986 725.553 494.847 726.369 494.847 727.244C494.847 728.119 494.986 728.931 495.264 729.681C495.543 730.431 495.972 731.036 496.551 731.496C497.131 731.957 497.869 732.187 498.767 732.187ZM509.781 725.846V733.721H507.769V720.63H509.712V722.675H509.883C510.19 722.011 510.656 721.477 511.281 721.073C511.906 720.664 512.712 720.459 513.701 720.459C514.587 720.459 515.363 720.641 516.028 721.005C516.693 721.363 517.21 721.908 517.579 722.641C517.948 723.369 518.133 724.289 518.133 725.403V733.721H516.121V725.539C516.121 724.511 515.854 723.709 515.32 723.136C514.786 722.556 514.053 722.266 513.121 722.266C512.479 722.266 511.906 722.405 511.4 722.684C510.9 722.962 510.505 723.369 510.215 723.903C509.925 724.437 509.781 725.084 509.781 725.846ZM527.638 720.63V722.334H520.581V720.63H527.638ZM522.695 733.721V718.823C522.695 718.073 522.871 717.448 523.223 716.948C523.575 716.448 524.033 716.073 524.595 715.823C525.158 715.573 525.751 715.448 526.376 715.448C526.871 715.448 527.274 715.488 527.587 715.567C527.899 715.647 528.132 715.721 528.286 715.789L527.706 717.528C527.604 717.494 527.462 717.451 527.28 717.4C527.104 717.349 526.871 717.323 526.581 717.323C525.916 717.323 525.436 717.491 525.141 717.826C524.851 718.161 524.706 718.653 524.706 719.3V733.721H522.695ZM530.457 733.721V720.63H532.468V733.721H530.457ZM531.479 718.448C531.087 718.448 530.749 718.315 530.465 718.048C530.187 717.78 530.048 717.459 530.048 717.084C530.048 716.709 530.187 716.388 530.465 716.121C530.749 715.854 531.087 715.721 531.479 715.721C531.871 715.721 532.207 715.854 532.485 716.121C532.769 716.388 532.911 716.709 532.911 717.084C532.911 717.459 532.769 717.78 532.485 718.048C532.207 718.315 531.871 718.448 531.479 718.448ZM536.152 733.721V720.63H538.095V722.607H538.232C538.47 721.959 538.902 721.434 539.527 721.03C540.152 720.627 540.857 720.425 541.641 720.425C541.788 720.425 541.973 720.428 542.195 720.434C542.416 720.44 542.584 720.448 542.697 720.459V722.505C542.629 722.488 542.473 722.462 542.229 722.428C541.99 722.388 541.737 722.369 541.47 722.369C540.834 722.369 540.266 722.502 539.766 722.769C539.271 723.03 538.879 723.394 538.59 723.86C538.305 724.32 538.163 724.846 538.163 725.437V733.721H536.152ZM545.082 733.721V720.63H547.025V722.675H547.195C547.468 721.977 547.908 721.434 548.516 721.048C549.124 720.655 549.854 720.459 550.707 720.459C551.57 720.459 552.289 720.655 552.863 721.048C553.443 721.434 553.894 721.977 554.218 722.675H554.354C554.69 721.999 555.193 721.462 555.863 721.065C556.533 720.661 557.337 720.459 558.275 720.459C559.445 720.459 560.403 720.826 561.147 721.559C561.891 722.286 562.264 723.42 562.264 724.959V733.721H560.252V724.959C560.252 723.994 559.988 723.303 559.46 722.888C558.931 722.474 558.309 722.266 557.593 722.266C556.673 722.266 555.96 722.545 555.454 723.102C554.948 723.653 554.695 724.352 554.695 725.198V733.721H552.65V724.755C552.65 724.011 552.408 723.411 551.925 722.957C551.443 722.496 550.82 722.266 550.059 722.266C549.536 722.266 549.048 722.405 548.593 722.684C548.144 722.962 547.781 723.349 547.502 723.843C547.229 724.332 547.093 724.897 547.093 725.539V733.721H545.082ZM571.43 733.994C570.168 733.994 569.08 733.715 568.166 733.158C567.256 732.596 566.555 731.812 566.06 730.806C565.572 729.795 565.327 728.619 565.327 727.278C565.327 725.937 565.572 724.755 566.06 723.732C566.555 722.704 567.242 721.903 568.123 721.329C569.009 720.749 570.043 720.459 571.225 720.459C571.907 720.459 572.58 720.573 573.245 720.8C573.91 721.028 574.515 721.397 575.06 721.908C575.606 722.414 576.041 723.084 576.364 723.92C576.688 724.755 576.85 725.783 576.85 727.005V727.857H566.759V726.119H574.805C574.805 725.38 574.657 724.721 574.362 724.141C574.072 723.562 573.657 723.104 573.117 722.769C572.583 722.434 571.952 722.266 571.225 722.266C570.424 722.266 569.731 722.465 569.146 722.863C568.566 723.255 568.12 723.766 567.808 724.397C567.495 725.028 567.339 725.704 567.339 726.425V727.584C567.339 728.573 567.509 729.411 567.85 730.099C568.197 730.78 568.677 731.3 569.291 731.658C569.904 732.011 570.617 732.187 571.43 732.187C571.958 732.187 572.435 732.113 572.862 731.965C573.293 731.812 573.666 731.584 573.978 731.283C574.291 730.977 574.532 730.596 574.702 730.141L576.646 730.687C576.441 731.346 576.097 731.925 575.614 732.425C575.131 732.92 574.535 733.306 573.825 733.584C573.114 733.857 572.316 733.994 571.43 733.994ZM579.91 733.721V720.63H581.853V722.607H581.989C582.228 721.959 582.66 721.434 583.285 721.03C583.91 720.627 584.614 720.425 585.398 720.425C585.546 720.425 585.731 720.428 585.952 720.434C586.174 720.44 586.342 720.448 586.455 720.459V722.505C586.387 722.488 586.231 722.462 585.987 722.428C585.748 722.388 585.495 722.369 585.228 722.369C584.592 722.369 584.023 722.502 583.523 722.769C583.029 723.03 582.637 723.394 582.347 723.86C582.063 724.32 581.921 724.846 581.921 725.437V733.721H579.91ZM597.601 716.266V733.721H595.59V716.266H597.601ZM606.773 733.994C605.512 733.994 604.424 733.715 603.509 733.158C602.6 732.596 601.898 731.812 601.404 730.806C600.916 729.795 600.671 728.619 600.671 727.278C600.671 725.937 600.916 724.755 601.404 723.732C601.898 722.704 602.586 721.903 603.467 721.329C604.353 720.749 605.387 720.459 606.569 720.459C607.251 720.459 607.924 720.573 608.589 720.8C609.254 721.028 609.859 721.397 610.404 721.908C610.95 722.414 611.384 723.084 611.708 723.92C612.032 724.755 612.194 725.783 612.194 727.005V727.857H602.103V726.119H610.148C610.148 725.38 610.001 724.721 609.705 724.141C609.416 723.562 609.001 723.104 608.461 722.769C607.927 722.434 607.296 722.266 606.569 722.266C605.768 722.266 605.075 722.465 604.489 722.863C603.91 723.255 603.464 723.766 603.151 724.397C602.839 725.028 602.683 725.704 602.683 726.425V727.584C602.683 728.573 602.853 729.411 603.194 730.099C603.541 730.78 604.021 731.3 604.634 731.658C605.248 732.011 605.961 732.187 606.773 732.187C607.302 732.187 607.779 732.113 608.205 731.965C608.637 731.812 609.009 731.584 609.322 731.283C609.634 730.977 609.876 730.596 610.046 730.141L611.989 730.687C611.785 731.346 611.441 731.925 610.958 732.425C610.475 732.92 609.879 733.306 609.168 733.584C608.458 733.857 607.66 733.994 606.773 733.994ZM622.276 716.266H624.799L630.731 730.755H630.935L636.867 716.266H639.39V733.721H637.413V720.459H637.242L631.788 733.721H629.879L624.424 720.459H624.254V733.721H622.276V716.266ZM648.298 733.994C647.207 733.994 646.244 733.718 645.409 733.167C644.574 732.61 643.921 731.826 643.449 730.815C642.977 729.798 642.742 728.596 642.742 727.209C642.742 725.834 642.977 724.641 643.449 723.63C643.921 722.619 644.577 721.837 645.418 721.286C646.259 720.735 647.23 720.459 648.332 720.459C649.185 720.459 649.858 720.602 650.352 720.886C650.852 721.164 651.233 721.482 651.494 721.84C651.761 722.192 651.969 722.482 652.117 722.709H652.287V716.266H654.298V733.721H652.355V731.709H652.117C651.969 731.948 651.759 732.249 651.486 732.613C651.213 732.971 650.824 733.292 650.318 733.576C649.813 733.854 649.139 733.994 648.298 733.994ZM648.571 732.187C649.378 732.187 650.06 731.977 650.617 731.556C651.173 731.13 651.597 730.542 651.886 729.792C652.176 729.036 652.321 728.164 652.321 727.175C652.321 726.198 652.179 725.343 651.895 724.61C651.611 723.871 651.19 723.298 650.634 722.888C650.077 722.474 649.389 722.266 648.571 722.266C647.719 722.266 647.009 722.485 646.44 722.923C645.878 723.354 645.455 723.942 645.171 724.687C644.892 725.425 644.753 726.255 644.753 727.175C644.753 728.107 644.895 728.954 645.179 729.715C645.469 730.471 645.895 731.073 646.457 731.522C647.026 731.965 647.73 732.187 648.571 732.187ZM658.261 738.63V720.63H660.205V722.709H660.443C660.591 722.482 660.796 722.192 661.057 721.84C661.324 721.482 661.705 721.164 662.199 720.886C662.699 720.602 663.375 720.459 664.227 720.459C665.33 720.459 666.301 720.735 667.142 721.286C667.983 721.837 668.639 722.619 669.111 723.63C669.582 724.641 669.818 725.834 669.818 727.209C669.818 728.596 669.582 729.798 669.111 730.815C668.639 731.826 667.986 732.61 667.151 733.167C666.315 733.718 665.352 733.994 664.261 733.994C663.421 733.994 662.747 733.854 662.242 733.576C661.736 733.292 661.347 732.971 661.074 732.613C660.801 732.249 660.591 731.948 660.443 731.709H660.273V738.63H658.261ZM660.239 727.175C660.239 728.164 660.384 729.036 660.673 729.792C660.963 730.542 661.386 731.13 661.943 731.556C662.5 731.977 663.182 732.187 663.989 732.187C664.83 732.187 665.531 731.965 666.094 731.522C666.662 731.073 667.088 730.471 667.372 729.715C667.662 728.954 667.807 728.107 667.807 727.175C667.807 726.255 667.665 725.425 667.381 724.687C667.102 723.942 666.679 723.354 666.111 722.923C665.548 722.485 664.841 722.266 663.989 722.266C663.171 722.266 662.483 722.474 661.926 722.888C661.369 723.298 660.949 723.871 660.665 724.61C660.381 725.343 660.239 726.198 660.239 727.175Z" fill="black"/>
<rect x="401.5" y="489.652" width="665.627" height="64.5442" rx="6.5" fill="#FCFCFC" stroke="black"/>
<path d="M476.261 531.417V513.962H486.795V515.837H478.374V521.735H486.249V523.61H478.374V529.542H486.931V531.417H476.261ZM490.332 531.417V518.326H492.275V520.372H492.445C492.718 519.673 493.158 519.13 493.766 518.744C494.374 518.352 495.104 518.156 495.957 518.156C496.82 518.156 497.539 518.352 498.113 518.744C498.693 519.13 499.144 519.673 499.468 520.372H499.604C499.94 519.695 500.443 519.158 501.113 518.761C501.783 518.357 502.587 518.156 503.525 518.156C504.695 518.156 505.653 518.522 506.397 519.255C507.141 519.982 507.514 521.116 507.514 522.656V531.417H505.502V522.656C505.502 521.69 505.238 520.999 504.71 520.585C504.181 520.17 503.559 519.962 502.843 519.962C501.923 519.962 501.21 520.241 500.704 520.798C500.198 521.349 499.945 522.048 499.945 522.894V531.417H497.9V522.451C497.9 521.707 497.658 521.107 497.175 520.653C496.693 520.193 496.07 519.962 495.309 519.962C494.786 519.962 494.298 520.102 493.843 520.38C493.394 520.658 493.031 521.045 492.752 521.539C492.479 522.028 492.343 522.593 492.343 523.235V531.417H490.332ZM515.043 531.724C514.214 531.724 513.461 531.568 512.785 531.255C512.109 530.937 511.572 530.479 511.174 529.883C510.776 529.281 510.577 528.553 510.577 527.701C510.577 526.951 510.725 526.343 511.021 525.877C511.316 525.406 511.711 525.036 512.205 524.769C512.7 524.502 513.245 524.303 513.842 524.173C514.444 524.036 515.049 523.928 515.657 523.849C516.452 523.747 517.097 523.67 517.592 523.619C518.092 523.562 518.455 523.468 518.683 523.337C518.916 523.207 519.032 522.979 519.032 522.656V522.587C519.032 521.747 518.802 521.093 518.342 520.627C517.887 520.161 517.197 519.928 516.271 519.928C515.31 519.928 514.558 520.139 514.012 520.559C513.467 520.979 513.083 521.428 512.862 521.906L510.952 521.224C511.293 520.428 511.748 519.809 512.316 519.366C512.89 518.917 513.515 518.604 514.191 518.428C514.873 518.247 515.543 518.156 516.202 518.156C516.623 518.156 517.106 518.207 517.651 518.309C518.202 518.406 518.734 518.607 519.245 518.914C519.762 519.221 520.191 519.684 520.532 520.303C520.873 520.923 521.043 521.752 521.043 522.792V531.417H519.032V529.644H518.93C518.793 529.928 518.566 530.232 518.248 530.556C517.93 530.88 517.506 531.156 516.978 531.383C516.45 531.61 515.805 531.724 515.043 531.724ZM515.35 529.917C516.146 529.917 516.816 529.761 517.362 529.448C517.913 529.136 518.327 528.732 518.606 528.238C518.89 527.744 519.032 527.224 519.032 526.678V524.837C518.947 524.94 518.759 525.033 518.47 525.119C518.185 525.198 517.856 525.269 517.481 525.332C517.112 525.389 516.751 525.44 516.398 525.485C516.052 525.525 515.771 525.559 515.555 525.587C515.032 525.656 514.543 525.766 514.089 525.92C513.64 526.068 513.276 526.292 512.998 526.593C512.725 526.889 512.589 527.292 512.589 527.803C512.589 528.502 512.847 529.031 513.364 529.389C513.887 529.741 514.549 529.917 515.35 529.917ZM524.715 531.417V518.326H526.726V531.417H524.715ZM525.737 516.144C525.345 516.144 525.007 516.011 524.723 515.744C524.445 515.477 524.305 515.156 524.305 514.781C524.305 514.406 524.445 514.085 524.723 513.818C525.007 513.551 525.345 513.417 525.737 513.417C526.129 513.417 526.465 513.551 526.743 513.818C527.027 514.085 527.169 514.406 527.169 514.781C527.169 515.156 527.027 515.477 526.743 515.744C526.465 516.011 526.129 516.144 525.737 516.144ZM532.421 513.962V531.417H530.41V513.962H532.421Z" fill="black"/>
<rect x="378.5" y="284.5" width="716" height="615" rx="5.5" stroke="black"/>
<rect x="403.5" y="784.5" width="665.627" height="64.5442" rx="6.5" fill="#141414" stroke="black"/>
<path d="M678.082 808.81V826.265H675.968V808.81H678.082ZM684.058 818.39V826.265H682.047V813.174H683.99V815.22H684.161C684.468 814.555 684.933 814.021 685.558 813.617C686.183 813.208 686.99 813.004 687.979 813.004C688.865 813.004 689.641 813.185 690.306 813.549C690.97 813.907 691.487 814.453 691.857 815.185C692.226 815.913 692.411 816.833 692.411 817.947V826.265H690.399V818.083C690.399 817.055 690.132 816.254 689.598 815.68C689.064 815.1 688.331 814.81 687.399 814.81C686.757 814.81 686.183 814.95 685.678 815.228C685.178 815.506 684.783 815.913 684.493 816.447C684.203 816.981 684.058 817.629 684.058 818.39ZM705.359 816.106L703.552 816.617C703.438 816.316 703.271 816.024 703.049 815.739C702.833 815.45 702.538 815.211 702.163 815.024C701.788 814.836 701.308 814.742 700.723 814.742C699.921 814.742 699.254 814.927 698.72 815.296C698.191 815.66 697.927 816.123 697.927 816.685C697.927 817.185 698.109 817.58 698.473 817.87C698.836 818.16 699.404 818.401 700.177 818.595L702.12 819.072C703.291 819.356 704.163 819.791 704.737 820.376C705.311 820.955 705.598 821.703 705.598 822.617C705.598 823.367 705.382 824.038 704.95 824.629C704.524 825.22 703.927 825.685 703.16 826.026C702.393 826.367 701.501 826.538 700.484 826.538C699.149 826.538 698.044 826.248 697.169 825.668C696.294 825.089 695.74 824.242 695.507 823.129L697.416 822.651C697.598 823.356 697.941 823.884 698.447 824.237C698.958 824.589 699.626 824.765 700.45 824.765C701.387 824.765 702.132 824.566 702.683 824.168C703.24 823.765 703.518 823.282 703.518 822.72C703.518 822.265 703.359 821.884 703.041 821.578C702.723 821.265 702.234 821.032 701.575 820.879L699.393 820.367C698.194 820.083 697.313 819.643 696.751 819.046C696.194 818.444 695.916 817.691 695.916 816.788C695.916 816.049 696.123 815.396 696.538 814.828C696.958 814.259 697.529 813.813 698.251 813.489C698.978 813.166 699.802 813.004 700.723 813.004C702.018 813.004 703.035 813.288 703.774 813.856C704.518 814.424 705.046 815.174 705.359 816.106ZM713.943 826.538C712.716 826.538 711.659 826.248 710.773 825.668C709.887 825.089 709.205 824.291 708.728 823.274C708.25 822.256 708.012 821.095 708.012 819.788C708.012 818.458 708.256 817.285 708.745 816.268C709.239 815.245 709.926 814.447 710.807 813.873C711.693 813.293 712.728 813.004 713.909 813.004C714.83 813.004 715.659 813.174 716.398 813.515C717.137 813.856 717.742 814.333 718.213 814.947C718.685 815.56 718.978 816.276 719.091 817.095H717.08C716.926 816.498 716.585 815.97 716.057 815.509C715.534 815.043 714.83 814.81 713.943 814.81C713.159 814.81 712.472 815.015 711.881 815.424C711.296 815.828 710.838 816.399 710.509 817.137C710.185 817.87 710.023 818.731 710.023 819.72C710.023 820.731 710.182 821.612 710.5 822.362C710.824 823.112 711.279 823.694 711.864 824.109C712.455 824.524 713.148 824.731 713.943 824.731C714.466 824.731 714.941 824.64 715.367 824.458C715.793 824.276 716.154 824.015 716.449 823.674C716.745 823.333 716.955 822.924 717.08 822.447H719.091C718.978 823.22 718.696 823.916 718.247 824.535C717.804 825.149 717.216 825.637 716.483 826.001C715.756 826.359 714.909 826.538 713.943 826.538ZM722.031 826.265V813.174H723.975V815.151H724.111C724.35 814.504 724.781 813.978 725.406 813.575C726.031 813.171 726.736 812.97 727.52 812.97C727.668 812.97 727.853 812.972 728.074 812.978C728.296 812.984 728.463 812.992 728.577 813.004V815.049C728.509 815.032 728.353 815.006 728.108 814.972C727.87 814.933 727.617 814.913 727.35 814.913C726.713 814.913 726.145 815.046 725.645 815.313C725.151 815.575 724.759 815.938 724.469 816.404C724.185 816.864 724.043 817.39 724.043 817.981V826.265H722.031ZM730.961 826.265V813.174H732.973V826.265H730.961ZM731.984 810.992C731.592 810.992 731.254 810.859 730.97 810.592C730.691 810.325 730.552 810.004 730.552 809.629C730.552 809.254 730.691 808.933 730.97 808.666C731.254 808.399 731.592 808.265 731.984 808.265C732.376 808.265 732.711 808.399 732.99 808.666C733.274 808.933 733.416 809.254 733.416 809.629C733.416 810.004 733.274 810.325 732.99 810.592C732.711 810.859 732.376 810.992 731.984 810.992ZM736.656 831.174V813.174H738.6V815.254H738.838C738.986 815.026 739.191 814.737 739.452 814.384C739.719 814.026 740.1 813.708 740.594 813.43C741.094 813.146 741.77 813.004 742.622 813.004C743.725 813.004 744.696 813.279 745.537 813.83C746.378 814.381 747.034 815.163 747.506 816.174C747.978 817.185 748.213 818.379 748.213 819.754C748.213 821.14 747.978 822.342 747.506 823.359C747.034 824.37 746.381 825.154 745.546 825.711C744.71 826.262 743.747 826.538 742.656 826.538C741.816 826.538 741.142 826.399 740.637 826.12C740.131 825.836 739.742 825.515 739.469 825.157C739.196 824.793 738.986 824.492 738.838 824.254H738.668V831.174H736.656ZM738.634 819.72C738.634 820.708 738.779 821.58 739.068 822.336C739.358 823.086 739.781 823.674 740.338 824.1C740.895 824.521 741.577 824.731 742.384 824.731C743.225 824.731 743.926 824.509 744.489 824.066C745.057 823.617 745.483 823.015 745.767 822.259C746.057 821.498 746.202 820.651 746.202 819.72C746.202 818.799 746.06 817.97 745.776 817.231C745.497 816.487 745.074 815.899 744.506 815.467C743.943 815.029 743.236 814.81 742.384 814.81C741.566 814.81 740.878 815.018 740.321 815.433C739.764 815.842 739.344 816.416 739.06 817.154C738.776 817.887 738.634 818.742 738.634 819.72ZM756.975 813.174V814.879H750.191V813.174H756.975ZM752.168 810.038H754.179V822.515C754.179 823.083 754.262 823.509 754.426 823.793C754.597 824.072 754.813 824.259 755.074 824.356C755.341 824.447 755.622 824.492 755.918 824.492C756.139 824.492 756.321 824.481 756.463 824.458C756.605 824.43 756.719 824.407 756.804 824.39L757.213 826.197C757.077 826.248 756.887 826.299 756.642 826.35C756.398 826.407 756.088 826.435 755.713 826.435C755.145 826.435 754.588 826.313 754.043 826.069C753.503 825.825 753.054 825.453 752.696 824.953C752.344 824.453 752.168 823.822 752.168 823.06V810.038ZM760 826.265V813.174H762.012V826.265H760ZM761.023 810.992C760.631 810.992 760.293 810.859 760.009 810.592C759.73 810.325 759.591 810.004 759.591 809.629C759.591 809.254 759.73 808.933 760.009 808.666C760.293 808.399 760.631 808.265 761.023 808.265C761.415 808.265 761.75 808.399 762.029 808.666C762.313 808.933 762.455 809.254 762.455 809.629C762.455 810.004 762.313 810.325 762.029 810.592C761.75 810.859 761.415 810.992 761.023 810.992ZM771.014 826.538C769.832 826.538 768.795 826.256 767.903 825.694C767.017 825.131 766.323 824.345 765.823 823.333C765.329 822.322 765.082 821.14 765.082 819.788C765.082 818.424 765.329 817.234 765.823 816.217C766.323 815.2 767.017 814.41 767.903 813.847C768.795 813.285 769.832 813.004 771.014 813.004C772.196 813.004 773.23 813.285 774.116 813.847C775.008 814.41 775.701 815.2 776.196 816.217C776.696 817.234 776.946 818.424 776.946 819.788C776.946 821.14 776.696 822.322 776.196 823.333C775.701 824.345 775.008 825.131 774.116 825.694C773.23 826.256 772.196 826.538 771.014 826.538ZM771.014 824.731C771.911 824.731 772.65 824.501 773.23 824.041C773.809 823.58 774.238 822.975 774.517 822.225C774.795 821.475 774.934 820.663 774.934 819.788C774.934 818.913 774.795 818.097 774.517 817.342C774.238 816.586 773.809 815.975 773.23 815.509C772.65 815.043 771.911 814.81 771.014 814.81C770.116 814.81 769.377 815.043 768.798 815.509C768.218 815.975 767.789 816.586 767.511 817.342C767.232 818.097 767.093 818.913 767.093 819.788C767.093 820.663 767.232 821.475 767.511 822.225C767.789 822.975 768.218 823.58 768.798 824.041C769.377 824.501 770.116 824.731 771.014 824.731ZM782.027 818.39V826.265H780.016V813.174H781.959V815.22H782.13C782.436 814.555 782.902 814.021 783.527 813.617C784.152 813.208 784.959 813.004 785.948 813.004C786.834 813.004 787.61 813.185 788.274 813.549C788.939 813.907 789.456 814.453 789.826 815.185C790.195 815.913 790.38 816.833 790.38 817.947V826.265H788.368V818.083C788.368 817.055 788.101 816.254 787.567 815.68C787.033 815.1 786.3 814.81 785.368 814.81C784.726 814.81 784.152 814.95 783.647 815.228C783.147 815.506 782.752 815.913 782.462 816.447C782.172 816.981 782.027 817.629 782.027 818.39Z" fill="white"/>
</g>
<defs>
<clipPath id="clip0_2_20">
<rect width="1440" height="1024" fill="white"/>
</clipPath>
</defs>
</svg>
