<svg width="393" height="852" viewBox="0 0 393 852" fill="none" xmlns="http://www.w3.org/2000/svg">
<g clip-path="url(#clip0_3_353)">
<rect width="393" height="852" fill="white"/>
<line x1="0.00130208" y1="99.5" x2="393.001" y2="100.523" stroke="black"/>
<circle cx="45" cy="47" r="16" fill="#D9D9D9"/>
<path d="M78.4091 52V40.3636H82.4773C83.2879 40.3636 83.9564 40.5038 84.483 40.7841C85.0095 41.0606 85.4015 41.4337 85.6591 41.9034C85.9167 42.3693 86.0455 42.8864 86.0455 43.4545C86.0455 43.9545 85.9564 44.3674 85.7784 44.6932C85.6042 45.0189 85.3731 45.2765 85.0852 45.4659C84.8011 45.6553 84.4924 45.7955 84.1591 45.8864V46C84.5152 46.0227 84.8731 46.1477 85.233 46.375C85.5928 46.6023 85.8939 46.928 86.1364 47.3523C86.3788 47.7765 86.5 48.2955 86.5 48.9091C86.5 49.4924 86.3674 50.017 86.1023 50.483C85.8371 50.9489 85.4186 51.3182 84.8466 51.5909C84.2746 51.8636 83.5303 52 82.6136 52H78.4091ZM79.8182 50.75H82.6136C83.5341 50.75 84.1875 50.572 84.5739 50.2159C84.964 49.8561 85.1591 49.4205 85.1591 48.9091C85.1591 48.5152 85.0587 48.1515 84.858 47.8182C84.6572 47.4811 84.3712 47.2121 84 47.0114C83.6288 46.8068 83.1894 46.7045 82.6818 46.7045H79.8182V50.75ZM79.8182 45.4773H82.4318C82.8561 45.4773 83.2386 45.3939 83.5795 45.2273C83.9242 45.0606 84.197 44.8258 84.3977 44.5227C84.6023 44.2197 84.7045 43.8636 84.7045 43.4545C84.7045 42.9432 84.5265 42.5095 84.1705 42.1534C83.8144 41.7936 83.25 41.6136 82.4773 41.6136H79.8182V45.4773ZM91.2017 52.2045C90.6487 52.2045 90.1468 52.1004 89.696 51.892C89.2453 51.6799 88.8873 51.375 88.6222 50.9773C88.357 50.5758 88.2244 50.0909 88.2244 49.5227C88.2244 49.0227 88.3229 48.6174 88.5199 48.3068C88.7169 47.9924 88.9801 47.7462 89.3097 47.5682C89.6392 47.3902 90.0028 47.2576 90.4006 47.1705C90.8021 47.0795 91.2055 47.0076 91.6108 46.9545C92.1411 46.8864 92.571 46.8352 92.9006 46.8011C93.2339 46.7633 93.4763 46.7008 93.6278 46.6136C93.7831 46.5265 93.8608 46.375 93.8608 46.1591V46.1136C93.8608 45.553 93.7074 45.1174 93.4006 44.8068C93.0975 44.4962 92.6373 44.3409 92.0199 44.3409C91.3797 44.3409 90.8778 44.4811 90.5142 44.7614C90.1506 45.0417 89.8949 45.3409 89.7472 45.6591L88.4744 45.2045C88.7017 44.6742 89.0047 44.2614 89.3835 43.9659C89.7661 43.6667 90.1828 43.4583 90.6335 43.3409C91.0881 43.2197 91.535 43.1591 91.9744 43.1591C92.2547 43.1591 92.5767 43.1932 92.9403 43.2614C93.3078 43.3258 93.6619 43.4602 94.0028 43.6648C94.3475 43.8693 94.6335 44.178 94.8608 44.5909C95.0881 45.0038 95.2017 45.5568 95.2017 46.25V52H93.8608V50.8182H93.7926C93.7017 51.0076 93.5502 51.2102 93.3381 51.4261C93.1259 51.642 92.8438 51.8258 92.4915 51.9773C92.1392 52.1288 91.7093 52.2045 91.2017 52.2045ZM91.4062 51C91.9366 51 92.3835 50.8958 92.7472 50.6875C93.1146 50.4792 93.3911 50.2102 93.5767 49.8807C93.7661 49.5511 93.8608 49.2045 93.8608 48.8409V47.6136C93.804 47.6818 93.679 47.7443 93.4858 47.8011C93.2964 47.8542 93.0767 47.9015 92.8267 47.9432C92.5805 47.9811 92.34 48.0152 92.1051 48.0455C91.8741 48.072 91.6866 48.0947 91.5426 48.1136C91.1941 48.1591 90.8684 48.233 90.5653 48.3352C90.2661 48.4337 90.0237 48.5833 89.8381 48.7841C89.6563 48.9811 89.5653 49.25 89.5653 49.5909C89.5653 50.0568 89.7377 50.4091 90.0824 50.6477C90.4309 50.8826 90.8722 51 91.4062 51ZM98.9901 46.75V52H97.6491V43.2727H98.9446V44.6364H99.0582C99.2628 44.1932 99.5734 43.8371 99.9901 43.5682C100.407 43.2955 100.945 43.1591 101.604 43.1591C102.195 43.1591 102.712 43.2803 103.155 43.5227C103.598 43.7614 103.943 44.125 104.189 44.6136C104.435 45.0985 104.558 45.7121 104.558 46.4545V52H103.217V46.5455C103.217 45.8598 103.039 45.3258 102.683 44.9432C102.327 44.5568 101.839 44.3636 101.217 44.3636C100.789 44.3636 100.407 44.4564 100.07 44.642C99.7363 44.8277 99.473 45.0985 99.2798 45.4545C99.0866 45.8106 98.9901 46.2424 98.9901 46.75ZM108.259 48.8182L108.236 47.1591H108.509L112.327 43.2727H113.986L109.918 47.3864H109.804L108.259 48.8182ZM107.009 52V40.3636H108.349V52H107.009ZM112.554 52L109.145 47.6818L110.099 46.75L114.259 52H112.554ZM115.893 52V40.3636H119.825C120.734 40.3636 121.481 40.5189 122.064 40.8295C122.647 41.1364 123.079 41.5587 123.359 42.0966C123.64 42.6345 123.78 43.2462 123.78 43.9318C123.78 44.6174 123.64 45.2254 123.359 45.7557C123.079 46.286 122.649 46.7027 122.07 47.0057C121.49 47.3049 120.75 47.4545 119.848 47.4545H116.666V46.1818H119.803C120.424 46.1818 120.924 46.0909 121.303 45.9091C121.685 45.7273 121.962 45.4697 122.132 45.1364C122.306 44.7992 122.393 44.3977 122.393 43.9318C122.393 43.4659 122.306 43.0587 122.132 42.7102C121.958 42.3617 121.679 42.0928 121.297 41.9034C120.914 41.7102 120.409 41.6136 119.78 41.6136H117.303V52H115.893ZM121.371 46.7727L124.234 52H122.598L119.78 46.7727H121.371ZM129.398 52.1818C128.61 52.1818 127.919 51.9943 127.324 51.6193C126.733 51.2443 126.271 50.7197 125.938 50.0455C125.608 49.3712 125.443 48.5833 125.443 47.6818C125.443 46.7727 125.608 45.9792 125.938 45.3011C126.271 44.6231 126.733 44.0966 127.324 43.7216C127.919 43.3466 128.61 43.1591 129.398 43.1591C130.186 43.1591 130.875 43.3466 131.466 43.7216C132.061 44.0966 132.523 44.6231 132.852 45.3011C133.186 45.9792 133.352 46.7727 133.352 47.6818C133.352 48.5833 133.186 49.3712 132.852 50.0455C132.523 50.7197 132.061 51.2443 131.466 51.6193C130.875 51.9943 130.186 52.1818 129.398 52.1818ZM129.398 50.9773C129.996 50.9773 130.489 50.8239 130.875 50.517C131.261 50.2102 131.547 49.8068 131.733 49.3068C131.919 48.8068 132.011 48.2652 132.011 47.6818C132.011 47.0985 131.919 46.5549 131.733 46.0511C131.547 45.5473 131.261 45.1402 130.875 44.8295C130.489 44.5189 129.996 44.3636 129.398 44.3636C128.799 44.3636 128.307 44.5189 127.92 44.8295C127.534 45.1402 127.248 45.5473 127.062 46.0511C126.877 46.5549 126.784 47.0985 126.784 47.6818C126.784 48.2652 126.877 48.8068 127.062 49.3068C127.248 49.8068 127.534 50.2102 127.92 50.517C128.307 50.8239 128.799 50.9773 129.398 50.9773ZM138.945 52.1818C138.157 52.1818 137.465 51.9943 136.871 51.6193C136.28 51.2443 135.818 50.7197 135.484 50.0455C135.155 49.3712 134.99 48.5833 134.99 47.6818C134.99 46.7727 135.155 45.9792 135.484 45.3011C135.818 44.6231 136.28 44.0966 136.871 43.7216C137.465 43.3466 138.157 43.1591 138.945 43.1591C139.732 43.1591 140.422 43.3466 141.013 43.7216C141.607 44.0966 142.07 44.6231 142.399 45.3011C142.732 45.9792 142.899 46.7727 142.899 47.6818C142.899 48.5833 142.732 49.3712 142.399 50.0455C142.07 50.7197 141.607 51.2443 141.013 51.6193C140.422 51.9943 139.732 52.1818 138.945 52.1818ZM138.945 50.9773C139.543 50.9773 140.036 50.8239 140.422 50.517C140.808 50.2102 141.094 49.8068 141.28 49.3068C141.465 48.8068 141.558 48.2652 141.558 47.6818C141.558 47.0985 141.465 46.5549 141.28 46.0511C141.094 45.5473 140.808 45.1402 140.422 44.8295C140.036 44.5189 139.543 44.3636 138.945 44.3636C138.346 44.3636 137.854 44.5189 137.467 44.8295C137.081 45.1402 136.795 45.5473 136.609 46.0511C136.424 46.5549 136.331 47.0985 136.331 47.6818C136.331 48.2652 136.424 48.8068 136.609 49.3068C136.795 49.8068 137.081 50.2102 137.467 50.517C137.854 50.8239 138.346 50.9773 138.945 50.9773ZM148.741 43.2727V44.4091H144.219V43.2727H148.741ZM145.537 41.1818H146.878V49.5C146.878 49.8788 146.933 50.1629 147.043 50.3523C147.156 50.5379 147.3 50.6629 147.474 50.7273C147.652 50.7879 147.84 50.8182 148.037 50.8182C148.185 50.8182 148.306 50.8106 148.401 50.7955C148.495 50.7765 148.571 50.7614 148.628 50.75L148.901 51.9545C148.81 51.9886 148.683 52.0227 148.52 52.0568C148.357 52.0947 148.151 52.1136 147.901 52.1136C147.522 52.1136 147.151 52.0322 146.787 51.8693C146.427 51.7064 146.128 51.4583 145.889 51.125C145.654 50.7917 145.537 50.3712 145.537 49.8636V41.1818Z" fill="black"/>
<path d="M151.419 189.565C151.351 188.878 151.059 188.344 150.542 187.963C150.025 187.582 149.323 187.392 148.436 187.392C147.834 187.392 147.326 187.477 146.911 187.648C146.496 187.812 146.178 188.043 145.956 188.338C145.74 188.634 145.632 188.969 145.632 189.344C145.621 189.656 145.686 189.929 145.828 190.162C145.976 190.395 146.178 190.597 146.434 190.767C146.689 190.932 146.985 191.077 147.32 191.202C147.655 191.321 148.013 191.423 148.394 191.509L149.962 191.884C150.723 192.054 151.422 192.281 152.059 192.565C152.695 192.849 153.246 193.199 153.712 193.614C154.178 194.028 154.539 194.517 154.794 195.08C155.056 195.642 155.189 196.287 155.195 197.014C155.189 198.082 154.917 199.009 154.377 199.793C153.843 200.571 153.07 201.176 152.059 201.608C151.053 202.034 149.84 202.247 148.419 202.247C147.01 202.247 145.783 202.031 144.738 201.599C143.698 201.168 142.885 200.528 142.3 199.682C141.721 198.83 141.417 197.776 141.388 196.52H144.959C144.999 197.105 145.167 197.594 145.462 197.986C145.763 198.372 146.164 198.665 146.664 198.864C147.169 199.057 147.74 199.153 148.377 199.153C149.002 199.153 149.544 199.062 150.005 198.881C150.471 198.699 150.831 198.446 151.087 198.122C151.343 197.798 151.471 197.426 151.471 197.006C151.471 196.614 151.354 196.284 151.121 196.017C150.894 195.75 150.559 195.523 150.115 195.335C149.678 195.148 149.141 194.977 148.505 194.824L146.604 194.347C145.132 193.989 143.971 193.429 143.118 192.668C142.266 191.906 141.843 190.881 141.848 189.591C141.843 188.534 142.124 187.611 142.692 186.821C143.266 186.031 144.053 185.415 145.053 184.972C146.053 184.528 147.189 184.307 148.462 184.307C149.757 184.307 150.888 184.528 151.854 184.972C152.826 185.415 153.581 186.031 154.121 186.821C154.661 187.611 154.939 188.526 154.956 189.565H151.419ZM160.652 184.545V186.386C160.652 186.909 160.549 187.443 160.345 187.989C160.146 188.528 159.879 189.04 159.544 189.523C159.208 190 158.842 190.406 158.444 190.741L156.842 189.795C157.126 189.347 157.376 188.849 157.592 188.304C157.814 187.759 157.924 187.125 157.924 186.403V184.545H160.652ZM163.07 202V188.909H166.701V202H163.07ZM164.894 187.222C164.354 187.222 163.891 187.043 163.505 186.685C163.124 186.321 162.934 185.886 162.934 185.381C162.934 184.881 163.124 184.452 163.505 184.094C163.891 183.73 164.354 183.548 164.894 183.548C165.434 183.548 165.894 183.73 166.275 184.094C166.661 184.452 166.854 184.881 166.854 185.381C166.854 185.886 166.661 186.321 166.275 186.685C165.894 187.043 165.434 187.222 164.894 187.222ZM173.24 194.432V202H169.609V188.909H173.069V191.219H173.223C173.512 190.457 173.998 189.855 174.68 189.412C175.362 188.963 176.189 188.739 177.16 188.739C178.069 188.739 178.862 188.938 179.538 189.335C180.214 189.733 180.74 190.301 181.115 191.04C181.49 191.773 181.677 192.648 181.677 193.665V202H178.047V194.312C178.052 193.511 177.848 192.886 177.433 192.438C177.018 191.983 176.447 191.756 175.72 191.756C175.231 191.756 174.799 191.861 174.424 192.071C174.055 192.281 173.765 192.588 173.555 192.991C173.35 193.389 173.245 193.869 173.24 194.432ZM195.431 192.642L192.107 192.847C192.05 192.562 191.928 192.307 191.74 192.08C191.553 191.847 191.306 191.662 190.999 191.526C190.698 191.384 190.337 191.312 189.917 191.312C189.354 191.312 188.88 191.432 188.493 191.67C188.107 191.903 187.914 192.216 187.914 192.608C187.914 192.92 188.039 193.185 188.289 193.401C188.539 193.616 188.968 193.79 189.576 193.92L191.945 194.398C193.218 194.659 194.167 195.08 194.792 195.659C195.417 196.239 195.729 197 195.729 197.943C195.729 198.801 195.476 199.554 194.971 200.202C194.471 200.849 193.783 201.355 192.908 201.719C192.039 202.077 191.036 202.256 189.9 202.256C188.167 202.256 186.786 201.895 185.757 201.173C184.735 200.446 184.135 199.457 183.959 198.207L187.53 198.02C187.638 198.548 187.9 198.952 188.314 199.23C188.729 199.503 189.26 199.639 189.908 199.639C190.544 199.639 191.056 199.517 191.442 199.273C191.834 199.023 192.033 198.702 192.039 198.31C192.033 197.98 191.894 197.71 191.621 197.5C191.348 197.284 190.928 197.119 190.36 197.006L188.093 196.554C186.814 196.298 185.863 195.855 185.238 195.224C184.618 194.594 184.309 193.79 184.309 192.812C184.309 191.972 184.536 191.247 184.99 190.639C185.451 190.031 186.096 189.562 186.925 189.233C187.76 188.903 188.738 188.739 189.857 188.739C191.51 188.739 192.811 189.088 193.76 189.787C194.715 190.486 195.272 191.437 195.431 192.642ZM203.93 202.256C202.589 202.256 201.436 201.972 200.47 201.403C199.51 200.83 198.771 200.034 198.254 199.017C197.743 198 197.487 196.83 197.487 195.506C197.487 194.165 197.745 192.989 198.262 191.977C198.785 190.96 199.527 190.168 200.487 189.599C201.447 189.026 202.589 188.739 203.913 188.739C205.055 188.739 206.055 188.946 206.913 189.361C207.771 189.776 208.45 190.358 208.95 191.108C209.45 191.858 209.725 192.739 209.777 193.75H206.35C206.254 193.097 205.998 192.571 205.583 192.173C205.174 191.77 204.637 191.568 203.973 191.568C203.41 191.568 202.919 191.722 202.498 192.028C202.083 192.33 201.76 192.77 201.527 193.349C201.294 193.929 201.177 194.631 201.177 195.455C201.177 196.29 201.291 197 201.518 197.585C201.751 198.17 202.078 198.616 202.498 198.923C202.919 199.23 203.41 199.384 203.973 199.384C204.387 199.384 204.76 199.298 205.089 199.128C205.424 198.957 205.7 198.71 205.916 198.386C206.137 198.057 206.282 197.662 206.35 197.202H209.777C209.72 198.202 209.447 199.082 208.958 199.844C208.475 200.599 207.808 201.19 206.956 201.616C206.103 202.043 205.095 202.256 203.93 202.256ZM212.101 202V188.909H215.621V191.193H215.757C215.996 190.381 216.397 189.767 216.959 189.352C217.522 188.932 218.169 188.722 218.902 188.722C219.084 188.722 219.28 188.733 219.49 188.756C219.701 188.778 219.885 188.81 220.044 188.849V192.071C219.874 192.02 219.638 191.974 219.337 191.935C219.036 191.895 218.76 191.875 218.51 191.875C217.976 191.875 217.499 191.991 217.078 192.224C216.664 192.452 216.334 192.77 216.09 193.179C215.851 193.588 215.732 194.06 215.732 194.594V202H212.101ZM221.922 202V188.909H225.552V202H221.922ZM223.745 187.222C223.206 187.222 222.743 187.043 222.356 186.685C221.975 186.321 221.785 185.886 221.785 185.381C221.785 184.881 221.975 184.452 222.356 184.094C222.743 183.73 223.206 183.548 223.745 183.548C224.285 183.548 224.745 183.73 225.126 184.094C225.512 184.452 225.706 184.881 225.706 185.381C225.706 185.886 225.512 186.321 225.126 186.685C224.745 187.043 224.285 187.222 223.745 187.222ZM228.461 202V188.909H231.98V191.193H232.117C232.355 190.381 232.756 189.767 233.319 189.352C233.881 188.932 234.529 188.722 235.262 188.722C235.444 188.722 235.64 188.733 235.85 188.756C236.06 188.778 236.245 188.81 236.404 188.849V192.071C236.233 192.02 235.998 191.974 235.696 191.935C235.395 191.895 235.12 191.875 234.87 191.875C234.336 191.875 233.858 191.991 233.438 192.224C233.023 192.452 232.694 192.77 232.449 193.179C232.211 193.588 232.091 194.06 232.091 194.594V202H228.461ZM243.637 202.256C242.291 202.256 241.132 201.983 240.16 201.438C239.194 200.886 238.45 200.108 237.927 199.102C237.404 198.091 237.143 196.895 237.143 195.514C237.143 194.168 237.404 192.986 237.927 191.969C238.45 190.952 239.186 190.159 240.135 189.591C241.089 189.023 242.208 188.739 243.493 188.739C244.356 188.739 245.16 188.878 245.904 189.156C246.654 189.429 247.308 189.841 247.865 190.392C248.427 190.943 248.865 191.636 249.177 192.472C249.49 193.301 249.646 194.273 249.646 195.386V196.384H238.592V194.134H246.228C246.228 193.611 246.115 193.148 245.887 192.744C245.66 192.341 245.345 192.026 244.941 191.798C244.544 191.565 244.081 191.449 243.552 191.449C243.001 191.449 242.512 191.577 242.086 191.832C241.666 192.082 241.336 192.42 241.098 192.847C240.859 193.267 240.737 193.736 240.731 194.253V196.392C240.731 197.04 240.85 197.599 241.089 198.071C241.333 198.543 241.677 198.906 242.12 199.162C242.564 199.418 243.089 199.545 243.697 199.545C244.1 199.545 244.47 199.489 244.805 199.375C245.14 199.261 245.427 199.091 245.666 198.864C245.904 198.636 246.086 198.358 246.211 198.028L249.569 198.25C249.399 199.057 249.049 199.761 248.521 200.364C247.998 200.96 247.322 201.426 246.493 201.761C245.669 202.091 244.717 202.256 243.637 202.256Z" fill="black"/>
<rect x="78.1304" y="263.5" width="233.471" height="51.3852" rx="6.5" fill="#FCFCFC" stroke="black"/>
<path d="M112.911 283.846H114.32V291.551C114.32 292.346 114.133 293.056 113.758 293.681C113.387 294.303 112.862 294.793 112.184 295.153C111.506 295.509 110.71 295.687 109.798 295.687C108.885 295.687 108.089 295.509 107.411 295.153C106.733 294.793 106.207 294.303 105.832 293.681C105.46 293.056 105.275 292.346 105.275 291.551V283.846H106.684V291.437C106.684 292.005 106.809 292.511 107.059 292.954C107.309 293.394 107.665 293.74 108.127 293.994C108.593 294.244 109.15 294.369 109.798 294.369C110.445 294.369 111.002 294.244 111.468 293.994C111.934 293.74 112.29 293.394 112.536 292.954C112.786 292.511 112.911 292.005 112.911 291.437V283.846ZM123.134 288.71L121.93 289.051C121.854 288.85 121.742 288.655 121.594 288.466C121.45 288.272 121.254 288.113 121.004 287.988C120.754 287.863 120.433 287.801 120.043 287.801C119.509 287.801 119.064 287.924 118.708 288.17C118.356 288.413 118.18 288.721 118.18 289.096C118.18 289.43 118.301 289.693 118.543 289.886C118.786 290.079 119.164 290.24 119.68 290.369L120.975 290.687C121.755 290.877 122.337 291.166 122.719 291.556C123.102 291.943 123.293 292.441 123.293 293.051C123.293 293.551 123.149 293.998 122.861 294.392C122.577 294.786 122.18 295.096 121.668 295.324C121.157 295.551 120.562 295.664 119.884 295.664C118.994 295.664 118.257 295.471 117.674 295.085C117.091 294.699 116.721 294.134 116.566 293.392L117.839 293.074C117.96 293.543 118.189 293.895 118.526 294.13C118.867 294.365 119.312 294.483 119.861 294.483C120.486 294.483 120.983 294.35 121.35 294.085C121.721 293.816 121.907 293.494 121.907 293.119C121.907 292.816 121.801 292.562 121.589 292.358C121.377 292.149 121.051 291.994 120.611 291.892L119.157 291.551C118.358 291.361 117.771 291.068 117.396 290.67C117.024 290.269 116.839 289.767 116.839 289.164C116.839 288.672 116.977 288.236 117.254 287.858C117.534 287.479 117.914 287.181 118.396 286.966C118.88 286.75 119.43 286.642 120.043 286.642C120.907 286.642 121.585 286.831 122.077 287.21C122.574 287.589 122.926 288.089 123.134 288.71ZM128.971 295.664C128.13 295.664 127.405 295.479 126.795 295.108C126.189 294.733 125.721 294.21 125.391 293.539C125.066 292.865 124.903 292.081 124.903 291.187C124.903 290.293 125.066 289.505 125.391 288.824C125.721 288.138 126.179 287.604 126.766 287.221C127.357 286.835 128.047 286.642 128.834 286.642C129.289 286.642 129.738 286.717 130.181 286.869C130.624 287.02 131.028 287.267 131.391 287.608C131.755 287.945 132.045 288.392 132.261 288.949C132.477 289.505 132.584 290.191 132.584 291.005V291.574H125.857V290.414H131.221C131.221 289.922 131.122 289.483 130.925 289.096C130.732 288.71 130.456 288.405 130.096 288.181C129.74 287.958 129.319 287.846 128.834 287.846C128.3 287.846 127.838 287.979 127.448 288.244C127.062 288.505 126.764 288.846 126.556 289.267C126.348 289.687 126.244 290.138 126.244 290.619V291.392C126.244 292.051 126.357 292.609 126.584 293.068C126.816 293.522 127.136 293.869 127.545 294.108C127.954 294.342 128.429 294.46 128.971 294.46C129.323 294.46 129.641 294.411 129.925 294.312C130.213 294.21 130.461 294.058 130.67 293.858C130.878 293.653 131.039 293.399 131.153 293.096L132.448 293.46C132.312 293.899 132.083 294.286 131.761 294.619C131.439 294.949 131.041 295.206 130.567 295.392C130.094 295.574 129.562 295.664 128.971 295.664ZM134.624 295.483V286.755H135.92V288.074H136.011C136.17 287.642 136.458 287.291 136.874 287.022C137.291 286.753 137.761 286.619 138.283 286.619C138.382 286.619 138.505 286.621 138.653 286.625C138.8 286.628 138.912 286.634 138.988 286.642V288.005C138.942 287.994 138.838 287.977 138.675 287.954C138.516 287.928 138.348 287.914 138.17 287.914C137.745 287.914 137.367 288.003 137.033 288.181C136.704 288.356 136.442 288.598 136.249 288.909C136.06 289.216 135.965 289.566 135.965 289.96V295.483H134.624ZM141.918 290.233V295.483H140.577V286.755H141.873V288.119H141.986C142.191 287.676 142.502 287.32 142.918 287.051C143.335 286.778 143.873 286.642 144.532 286.642C145.123 286.642 145.64 286.763 146.083 287.005C146.526 287.244 146.871 287.608 147.117 288.096C147.363 288.581 147.486 289.195 147.486 289.937V295.483H146.146V290.028C146.146 289.342 145.968 288.808 145.611 288.426C145.255 288.039 144.767 287.846 144.146 287.846C143.718 287.846 143.335 287.939 142.998 288.125C142.664 288.31 142.401 288.581 142.208 288.937C142.015 289.293 141.918 289.725 141.918 290.233ZM152.505 295.687C151.952 295.687 151.45 295.583 150.999 295.375C150.548 295.163 150.191 294.858 149.925 294.46C149.66 294.058 149.528 293.574 149.528 293.005C149.528 292.505 149.626 292.1 149.823 291.789C150.02 291.475 150.283 291.229 150.613 291.051C150.942 290.873 151.306 290.74 151.704 290.653C152.105 290.562 152.509 290.49 152.914 290.437C153.444 290.369 153.874 290.318 154.204 290.284C154.537 290.246 154.78 290.183 154.931 290.096C155.086 290.009 155.164 289.858 155.164 289.642V289.596C155.164 289.036 155.011 288.6 154.704 288.289C154.401 287.979 153.941 287.824 153.323 287.824C152.683 287.824 152.181 287.964 151.817 288.244C151.454 288.524 151.198 288.824 151.05 289.142L149.778 288.687C150.005 288.157 150.308 287.744 150.687 287.449C151.069 287.149 151.486 286.941 151.937 286.824C152.391 286.702 152.838 286.642 153.278 286.642C153.558 286.642 153.88 286.676 154.244 286.744C154.611 286.808 154.965 286.943 155.306 287.147C155.651 287.352 155.937 287.661 156.164 288.074C156.391 288.486 156.505 289.039 156.505 289.733V295.483H155.164V294.301H155.096C155.005 294.49 154.853 294.693 154.641 294.909C154.429 295.125 154.147 295.308 153.795 295.46C153.442 295.611 153.013 295.687 152.505 295.687ZM152.709 294.483C153.24 294.483 153.687 294.378 154.05 294.17C154.418 293.962 154.694 293.693 154.88 293.363C155.069 293.034 155.164 292.687 155.164 292.324V291.096C155.107 291.164 154.982 291.227 154.789 291.284C154.6 291.337 154.38 291.384 154.13 291.426C153.884 291.464 153.643 291.498 153.408 291.528C153.177 291.555 152.99 291.577 152.846 291.596C152.497 291.642 152.172 291.716 151.869 291.818C151.569 291.916 151.327 292.066 151.141 292.267C150.959 292.464 150.869 292.733 150.869 293.074C150.869 293.539 151.041 293.892 151.386 294.13C151.734 294.365 152.175 294.483 152.709 294.483ZM158.952 295.483V286.755H160.248V288.119H160.361C160.543 287.653 160.837 287.291 161.242 287.034C161.647 286.772 162.134 286.642 162.702 286.642C163.278 286.642 163.757 286.772 164.14 287.034C164.526 287.291 164.827 287.653 165.043 288.119H165.134C165.358 287.668 165.693 287.31 166.14 287.045C166.587 286.776 167.123 286.642 167.748 286.642C168.528 286.642 169.166 286.886 169.663 287.375C170.159 287.859 170.407 288.615 170.407 289.642V295.483H169.066V289.642C169.066 288.998 168.89 288.538 168.538 288.261C168.185 287.984 167.771 287.846 167.293 287.846C166.68 287.846 166.204 288.032 165.867 288.403C165.53 288.77 165.361 289.236 165.361 289.801V295.483H163.998V289.505C163.998 289.009 163.837 288.609 163.515 288.306C163.193 288 162.778 287.846 162.271 287.846C161.922 287.846 161.596 287.939 161.293 288.125C160.994 288.31 160.752 288.568 160.566 288.897C160.384 289.223 160.293 289.6 160.293 290.028V295.483H158.952ZM176.518 295.664C175.677 295.664 174.951 295.479 174.342 295.108C173.736 294.733 173.268 294.21 172.938 293.539C172.612 292.865 172.45 292.081 172.45 291.187C172.45 290.293 172.612 289.505 172.938 288.824C173.268 288.138 173.726 287.604 174.313 287.221C174.904 286.835 175.593 286.642 176.381 286.642C176.836 286.642 177.285 286.717 177.728 286.869C178.171 287.02 178.575 287.267 178.938 287.608C179.302 287.945 179.592 288.392 179.807 288.949C180.023 289.505 180.131 290.191 180.131 291.005V291.574H173.404V290.414H178.768C178.768 289.922 178.669 289.483 178.472 289.096C178.279 288.71 178.003 288.405 177.643 288.181C177.287 287.958 176.866 287.846 176.381 287.846C175.847 287.846 175.385 287.979 174.995 288.244C174.609 288.505 174.311 288.846 174.103 289.267C173.895 289.687 173.79 290.138 173.79 290.619V291.392C173.79 292.051 173.904 292.609 174.131 293.068C174.362 293.522 174.682 293.869 175.092 294.108C175.501 294.342 175.976 294.46 176.518 294.46C176.87 294.46 177.188 294.411 177.472 294.312C177.76 294.21 178.008 294.058 178.217 293.858C178.425 293.653 178.586 293.399 178.7 293.096L179.995 293.46C179.859 293.899 179.629 294.286 179.307 294.619C178.986 294.949 178.588 295.206 178.114 295.392C177.641 295.574 177.109 295.664 176.518 295.664Z" fill="black"/>
<rect x="78" y="423.91" width="233.471" height="51.3852" rx="6.5" fill="#FCFCFC" stroke="black"/>
<path d="M105.144 444.256H106.826L110.781 453.915H110.917L114.872 444.256H116.554V455.893H115.235V447.052H115.122L111.485 455.893H110.213L106.576 447.052H106.463V455.893H105.144V444.256ZM122.742 456.074C121.955 456.074 121.263 455.887 120.669 455.512C120.078 455.137 119.616 454.612 119.282 453.938C118.953 453.264 118.788 452.476 118.788 451.574C118.788 450.665 118.953 449.872 119.282 449.194C119.616 448.516 120.078 447.989 120.669 447.614C121.263 447.239 121.955 447.052 122.742 447.052C123.53 447.052 124.22 447.239 124.811 447.614C125.405 447.989 125.867 448.516 126.197 449.194C126.53 449.872 126.697 450.665 126.697 451.574C126.697 452.476 126.53 453.264 126.197 453.938C125.867 454.612 125.405 455.137 124.811 455.512C124.22 455.887 123.53 456.074 122.742 456.074ZM122.742 454.87C123.341 454.87 123.833 454.716 124.22 454.41C124.606 454.103 124.892 453.699 125.078 453.199C125.263 452.699 125.356 452.158 125.356 451.574C125.356 450.991 125.263 450.448 125.078 449.944C124.892 449.44 124.606 449.033 124.22 448.722C123.833 448.412 123.341 448.256 122.742 448.256C122.144 448.256 121.652 448.412 121.265 448.722C120.879 449.033 120.593 449.44 120.407 449.944C120.222 450.448 120.129 450.991 120.129 451.574C120.129 452.158 120.222 452.699 120.407 453.199C120.593 453.699 120.879 454.103 121.265 454.41C121.652 454.716 122.144 454.87 122.742 454.87ZM132.539 447.165V448.302H128.017V447.165H132.539ZM129.335 445.074H130.676V453.393C130.676 453.771 130.731 454.055 130.84 454.245C130.954 454.43 131.098 454.555 131.272 454.62C131.45 454.68 131.638 454.711 131.835 454.711C131.983 454.711 132.104 454.703 132.198 454.688C132.293 454.669 132.369 454.654 132.426 454.643L132.698 455.847C132.608 455.881 132.481 455.915 132.318 455.949C132.155 455.987 131.948 456.006 131.698 456.006C131.32 456.006 130.948 455.925 130.585 455.762C130.225 455.599 129.926 455.351 129.687 455.018C129.452 454.684 129.335 454.264 129.335 453.756V445.074ZM142.352 456.074C141.625 456.074 140.983 455.891 140.426 455.523C139.869 455.152 139.433 454.629 139.119 453.955C138.804 453.277 138.647 452.476 138.647 451.552C138.647 450.635 138.804 449.84 139.119 449.165C139.433 448.491 139.871 447.97 140.431 447.603C140.992 447.235 141.64 447.052 142.375 447.052C142.943 447.052 143.392 447.146 143.721 447.336C144.054 447.521 144.308 447.733 144.483 447.972C144.661 448.207 144.799 448.4 144.897 448.552H145.011V444.256H146.352V455.893H145.056V454.552H144.897C144.799 454.711 144.659 454.912 144.477 455.154C144.295 455.393 144.036 455.607 143.698 455.796C143.361 455.982 142.912 456.074 142.352 456.074ZM142.534 454.87C143.072 454.87 143.526 454.73 143.897 454.449C144.268 454.165 144.551 453.773 144.744 453.273C144.937 452.769 145.034 452.188 145.034 451.529C145.034 450.877 144.939 450.307 144.75 449.819C144.56 449.326 144.28 448.944 143.909 448.671C143.537 448.394 143.079 448.256 142.534 448.256C141.965 448.256 141.492 448.402 141.113 448.694C140.738 448.982 140.456 449.374 140.267 449.87C140.081 450.362 139.988 450.915 139.988 451.529C139.988 452.15 140.083 452.715 140.272 453.222C140.465 453.726 140.75 454.127 141.125 454.427C141.503 454.722 141.973 454.87 142.534 454.87ZM152.653 456.074C151.812 456.074 151.087 455.889 150.477 455.518C149.871 455.143 149.403 454.62 149.073 453.949C148.748 453.275 148.585 452.491 148.585 451.597C148.585 450.703 148.748 449.915 149.073 449.233C149.403 448.548 149.861 448.014 150.448 447.631C151.039 447.245 151.729 447.052 152.517 447.052C152.971 447.052 153.42 447.127 153.863 447.279C154.306 447.43 154.71 447.677 155.073 448.018C155.437 448.355 155.727 448.802 155.943 449.358C156.159 449.915 156.267 450.601 156.267 451.415V451.983H149.539V450.824H154.903C154.903 450.332 154.804 449.893 154.608 449.506C154.414 449.12 154.138 448.815 153.778 448.591C153.422 448.368 153.001 448.256 152.517 448.256C151.983 448.256 151.52 448.389 151.13 448.654C150.744 448.915 150.447 449.256 150.238 449.677C150.03 450.097 149.926 450.548 149.926 451.029V451.802C149.926 452.461 150.039 453.019 150.267 453.478C150.498 453.932 150.818 454.279 151.227 454.518C151.636 454.752 152.111 454.87 152.653 454.87C153.005 454.87 153.323 454.821 153.608 454.722C153.895 454.62 154.143 454.468 154.352 454.268C154.56 454.063 154.721 453.809 154.835 453.506L156.13 453.87C155.994 454.309 155.765 454.696 155.443 455.029C155.121 455.358 154.723 455.616 154.25 455.802C153.776 455.983 153.244 456.074 152.653 456.074ZM162.806 459.165V447.165H164.102V448.552H164.261C164.359 448.4 164.496 448.207 164.67 447.972C164.848 447.733 165.102 447.521 165.431 447.336C165.765 447.146 166.215 447.052 166.784 447.052C167.518 447.052 168.166 447.235 168.727 447.603C169.287 447.97 169.725 448.491 170.039 449.165C170.354 449.84 170.511 450.635 170.511 451.552C170.511 452.476 170.354 453.277 170.039 453.955C169.725 454.629 169.289 455.152 168.733 455.523C168.176 455.891 167.534 456.074 166.806 456.074C166.246 456.074 165.797 455.982 165.46 455.796C165.123 455.607 164.863 455.393 164.681 455.154C164.5 454.912 164.359 454.711 164.261 454.552H164.147V459.165H162.806ZM164.125 451.529C164.125 452.188 164.221 452.769 164.414 453.273C164.608 453.773 164.89 454.165 165.261 454.449C165.632 454.73 166.087 454.87 166.625 454.87C167.185 454.87 167.653 454.722 168.028 454.427C168.407 454.127 168.691 453.726 168.88 453.222C169.073 452.715 169.17 452.15 169.17 451.529C169.17 450.915 169.075 450.362 168.886 449.87C168.7 449.374 168.418 448.982 168.039 448.694C167.664 448.402 167.193 448.256 166.625 448.256C166.079 448.256 165.621 448.394 165.25 448.671C164.878 448.944 164.598 449.326 164.409 449.819C164.219 450.307 164.125 450.877 164.125 451.529ZM175.125 456.097C174.572 456.097 174.07 455.993 173.619 455.785C173.168 455.573 172.81 455.268 172.545 454.87C172.28 454.468 172.147 453.983 172.147 453.415C172.147 452.915 172.246 452.51 172.443 452.199C172.64 451.885 172.903 451.639 173.233 451.461C173.562 451.283 173.926 451.15 174.323 451.063C174.725 450.972 175.128 450.9 175.534 450.847C176.064 450.779 176.494 450.728 176.823 450.694C177.157 450.656 177.399 450.593 177.551 450.506C177.706 450.419 177.784 450.268 177.784 450.052V450.006C177.784 449.446 177.63 449.01 177.323 448.699C177.02 448.389 176.56 448.233 175.943 448.233C175.303 448.233 174.801 448.374 174.437 448.654C174.073 448.934 173.818 449.233 173.67 449.552L172.397 449.097C172.625 448.567 172.928 448.154 173.306 447.858C173.689 447.559 174.106 447.351 174.556 447.233C175.011 447.112 175.458 447.052 175.897 447.052C176.178 447.052 176.5 447.086 176.863 447.154C177.231 447.218 177.585 447.353 177.926 447.557C178.27 447.762 178.556 448.071 178.784 448.483C179.011 448.896 179.125 449.449 179.125 450.143V455.893H177.784V454.711H177.715C177.625 454.9 177.473 455.103 177.261 455.319C177.049 455.535 176.767 455.718 176.414 455.87C176.062 456.021 175.632 456.097 175.125 456.097ZM175.329 454.893C175.859 454.893 176.306 454.788 176.67 454.58C177.037 454.372 177.314 454.103 177.5 453.773C177.689 453.444 177.784 453.097 177.784 452.733V451.506C177.727 451.574 177.602 451.637 177.409 451.694C177.219 451.747 177 451.794 176.75 451.836C176.503 451.874 176.263 451.908 176.028 451.938C175.797 451.965 175.609 451.987 175.465 452.006C175.117 452.052 174.791 452.126 174.488 452.228C174.189 452.326 173.947 452.476 173.761 452.677C173.579 452.874 173.488 453.143 173.488 453.483C173.488 453.949 173.661 454.302 174.005 454.54C174.354 454.775 174.795 454.893 175.329 454.893ZM187.754 449.12L186.549 449.461C186.474 449.26 186.362 449.065 186.214 448.876C186.07 448.682 185.873 448.523 185.623 448.398C185.373 448.273 185.053 448.211 184.663 448.211C184.129 448.211 183.684 448.334 183.328 448.58C182.975 448.823 182.799 449.131 182.799 449.506C182.799 449.84 182.92 450.103 183.163 450.296C183.405 450.489 183.784 450.65 184.299 450.779L185.595 451.097C186.375 451.287 186.956 451.576 187.339 451.966C187.722 452.353 187.913 452.851 187.913 453.461C187.913 453.961 187.769 454.408 187.481 454.802C187.197 455.196 186.799 455.506 186.288 455.733C185.777 455.961 185.182 456.074 184.504 456.074C183.614 456.074 182.877 455.881 182.294 455.495C181.71 455.108 181.341 454.544 181.186 453.802L182.458 453.483C182.58 453.953 182.809 454.305 183.146 454.54C183.487 454.775 183.932 454.893 184.481 454.893C185.106 454.893 185.602 454.76 185.97 454.495C186.341 454.226 186.527 453.904 186.527 453.529C186.527 453.226 186.42 452.972 186.208 452.768C185.996 452.559 185.67 452.404 185.231 452.302L183.777 451.961C182.977 451.771 182.39 451.478 182.015 451.08C181.644 450.679 181.458 450.177 181.458 449.574C181.458 449.082 181.597 448.646 181.873 448.268C182.153 447.889 182.534 447.591 183.015 447.376C183.5 447.16 184.049 447.052 184.663 447.052C185.527 447.052 186.205 447.241 186.697 447.62C187.193 447.999 187.545 448.499 187.754 449.12ZM196.113 449.12L194.909 449.461C194.833 449.26 194.721 449.065 194.573 448.876C194.429 448.682 194.233 448.523 193.983 448.398C193.733 448.273 193.412 448.211 193.022 448.211C192.488 448.211 192.043 448.334 191.687 448.58C191.335 448.823 191.159 449.131 191.159 449.506C191.159 449.84 191.28 450.103 191.522 450.296C191.765 450.489 192.143 450.65 192.659 450.779L193.954 451.097C194.734 451.287 195.316 451.576 195.698 451.966C196.081 452.353 196.272 452.851 196.272 453.461C196.272 453.961 196.128 454.408 195.84 454.802C195.556 455.196 195.159 455.506 194.647 455.733C194.136 455.961 193.541 456.074 192.863 456.074C191.973 456.074 191.236 455.881 190.653 455.495C190.07 455.108 189.7 454.544 189.545 453.802L190.818 453.483C190.939 453.953 191.168 454.305 191.505 454.54C191.846 454.775 192.291 454.893 192.84 454.893C193.465 454.893 193.962 454.76 194.329 454.495C194.7 454.226 194.886 453.904 194.886 453.529C194.886 453.226 194.78 452.972 194.568 452.768C194.356 452.559 194.03 452.404 193.59 452.302L192.136 451.961C191.337 451.771 190.75 451.478 190.375 451.08C190.003 450.679 189.818 450.177 189.818 449.574C189.818 449.082 189.956 448.646 190.233 448.268C190.513 447.889 190.893 447.591 191.375 447.376C191.859 447.16 192.409 447.052 193.022 447.052C193.886 447.052 194.564 447.241 195.056 447.62C195.553 447.999 195.905 448.499 196.113 449.12ZM201.95 456.074C201.109 456.074 200.384 455.889 199.774 455.518C199.168 455.143 198.7 454.62 198.37 453.949C198.045 453.275 197.882 452.491 197.882 451.597C197.882 450.703 198.045 449.915 198.37 449.233C198.7 448.548 199.158 448.014 199.745 447.631C200.336 447.245 201.026 447.052 201.813 447.052C202.268 447.052 202.717 447.127 203.16 447.279C203.603 447.43 204.007 447.677 204.37 448.018C204.734 448.355 205.024 448.802 205.24 449.358C205.456 449.915 205.563 450.601 205.563 451.415V451.983H198.836V450.824H204.2C204.2 450.332 204.101 449.893 203.904 449.506C203.711 449.12 203.435 448.815 203.075 448.591C202.719 448.368 202.298 448.256 201.813 448.256C201.279 448.256 200.817 448.389 200.427 448.654C200.041 448.915 199.743 449.256 199.535 449.677C199.327 450.097 199.223 450.548 199.223 451.029V451.802C199.223 452.461 199.336 453.019 199.563 453.478C199.795 453.932 200.115 454.279 200.524 454.518C200.933 454.752 201.408 454.87 201.95 454.87C202.302 454.87 202.62 454.821 202.904 454.722C203.192 454.62 203.44 454.468 203.649 454.268C203.857 454.063 204.018 453.809 204.132 453.506L205.427 453.87C205.291 454.309 205.062 454.696 204.74 455.029C204.418 455.358 204.02 455.616 203.546 455.802C203.073 455.983 202.541 456.074 201.95 456.074Z" fill="black"/>
<rect x="78" y="504.115" width="233.471" height="51.3851" rx="6.5" fill="#FCFCFC" stroke="black"/>
<path d="M114.508 528.098H113.099C113.016 527.692 112.87 527.336 112.661 527.029C112.457 526.723 112.207 526.465 111.911 526.257C111.62 526.045 111.296 525.885 110.94 525.779C110.584 525.673 110.213 525.62 109.826 525.62C109.122 525.62 108.483 525.798 107.911 526.154C107.343 526.51 106.891 527.035 106.554 527.728C106.22 528.421 106.054 529.272 106.054 530.279C106.054 531.287 106.22 532.137 106.554 532.83C106.891 533.524 107.343 534.048 107.911 534.404C108.483 534.76 109.122 534.938 109.826 534.938C110.213 534.938 110.584 534.885 110.94 534.779C111.296 534.673 111.62 534.516 111.911 534.308C112.207 534.096 112.457 533.836 112.661 533.529C112.87 533.219 113.016 532.863 113.099 532.461H114.508C114.402 533.056 114.209 533.588 113.929 534.058C113.648 534.527 113.3 534.927 112.883 535.257C112.466 535.582 111.999 535.83 111.48 536.001C110.965 536.171 110.413 536.257 109.826 536.257C108.834 536.257 107.951 536.014 107.179 535.529C106.406 535.045 105.798 534.355 105.355 533.461C104.911 532.567 104.69 531.507 104.69 530.279C104.69 529.052 104.911 527.991 105.355 527.098C105.798 526.204 106.406 525.514 107.179 525.029C107.951 524.545 108.834 524.302 109.826 524.302C110.413 524.302 110.965 524.387 111.48 524.558C111.999 524.728 112.466 524.978 112.883 525.308C113.3 525.634 113.648 526.031 113.929 526.501C114.209 526.967 114.402 527.499 114.508 528.098ZM120.149 536.279C119.361 536.279 118.67 536.092 118.075 535.717C117.484 535.342 117.022 534.817 116.688 534.143C116.359 533.469 116.194 532.681 116.194 531.779C116.194 530.87 116.359 530.077 116.688 529.399C117.022 528.721 117.484 528.194 118.075 527.819C118.67 527.444 119.361 527.257 120.149 527.257C120.937 527.257 121.626 527.444 122.217 527.819C122.812 528.194 123.274 528.721 123.603 529.399C123.937 530.077 124.103 530.87 124.103 531.779C124.103 532.681 123.937 533.469 123.603 534.143C123.274 534.817 122.812 535.342 122.217 535.717C121.626 536.092 120.937 536.279 120.149 536.279ZM120.149 535.075C120.747 535.075 121.24 534.921 121.626 534.615C122.012 534.308 122.298 533.904 122.484 533.404C122.67 532.904 122.762 532.363 122.762 531.779C122.762 531.196 122.67 530.652 122.484 530.149C122.298 529.645 122.012 529.238 121.626 528.927C121.24 528.616 120.747 528.461 120.149 528.461C119.55 528.461 119.058 528.616 118.671 528.927C118.285 529.238 117.999 529.645 117.813 530.149C117.628 530.652 117.535 531.196 117.535 531.779C117.535 532.363 117.628 532.904 117.813 533.404C117.999 533.904 118.285 534.308 118.671 534.615C119.058 534.921 119.55 535.075 120.149 535.075ZM127.491 530.848V536.098H126.15V527.37H127.446V528.734H127.559C127.764 528.291 128.074 527.935 128.491 527.666C128.908 527.393 129.446 527.257 130.105 527.257C130.696 527.257 131.213 527.378 131.656 527.62C132.099 527.859 132.444 528.223 132.69 528.711C132.936 529.196 133.059 529.81 133.059 530.552V536.098H131.718V530.643C131.718 529.957 131.54 529.423 131.184 529.041C130.828 528.654 130.34 528.461 129.718 528.461C129.29 528.461 128.908 528.554 128.571 528.74C128.237 528.925 127.974 529.196 127.781 529.552C127.588 529.908 127.491 530.34 127.491 530.848ZM139.396 527.37V528.507H134.691V527.37H139.396ZM136.1 536.098V526.166C136.1 525.666 136.218 525.249 136.453 524.916C136.688 524.582 136.992 524.332 137.367 524.166C137.742 523.999 138.138 523.916 138.555 523.916C138.884 523.916 139.153 523.942 139.362 523.995C139.57 524.048 139.725 524.098 139.828 524.143L139.441 525.302C139.373 525.279 139.278 525.251 139.157 525.217C139.04 525.183 138.884 525.166 138.691 525.166C138.248 525.166 137.928 525.277 137.731 525.501C137.538 525.724 137.441 526.052 137.441 526.484V536.098H136.1ZM141.275 536.098V527.37H142.616V536.098H141.275ZM141.957 525.916C141.696 525.916 141.47 525.827 141.281 525.649C141.095 525.471 141.002 525.257 141.002 525.007C141.002 524.757 141.095 524.543 141.281 524.365C141.47 524.187 141.696 524.098 141.957 524.098C142.218 524.098 142.442 524.187 142.627 524.365C142.817 524.543 142.911 524.757 142.911 525.007C142.911 525.257 142.817 525.471 142.627 525.649C142.442 525.827 142.218 525.916 141.957 525.916ZM145.072 536.098V527.37H146.367V528.688H146.458C146.617 528.257 146.905 527.906 147.322 527.637C147.739 527.368 148.208 527.234 148.731 527.234C148.83 527.234 148.953 527.236 149.1 527.24C149.248 527.243 149.36 527.249 149.436 527.257V528.62C149.39 528.609 149.286 528.592 149.123 528.569C148.964 528.543 148.795 528.529 148.617 528.529C148.193 528.529 147.814 528.618 147.481 528.796C147.152 528.971 146.89 529.213 146.697 529.524C146.508 529.83 146.413 530.181 146.413 530.575V536.098H145.072ZM151.025 536.098V527.37H152.321V528.734H152.434C152.616 528.268 152.91 527.906 153.315 527.649C153.72 527.387 154.207 527.257 154.775 527.257C155.351 527.257 155.83 527.387 156.213 527.649C156.599 527.906 156.9 528.268 157.116 528.734H157.207C157.43 528.283 157.766 527.925 158.213 527.66C158.66 527.391 159.196 527.257 159.821 527.257C160.601 527.257 161.239 527.501 161.735 527.99C162.232 528.474 162.48 529.23 162.48 530.257V536.098H161.139V530.257C161.139 529.613 160.963 529.152 160.61 528.876C160.258 528.599 159.843 528.461 159.366 528.461C158.752 528.461 158.277 528.647 157.94 529.018C157.603 529.385 157.434 529.851 157.434 530.416V536.098H156.071V530.12C156.071 529.624 155.91 529.224 155.588 528.921C155.266 528.615 154.851 528.461 154.343 528.461C153.995 528.461 153.669 528.554 153.366 528.74C153.067 528.925 152.824 529.183 152.639 529.512C152.457 529.838 152.366 530.215 152.366 530.643V536.098H151.025ZM168.59 536.279C167.75 536.279 167.024 536.094 166.414 535.723C165.808 535.348 165.34 534.825 165.011 534.154C164.685 533.48 164.522 532.696 164.522 531.802C164.522 530.908 164.685 530.12 165.011 529.438C165.34 528.753 165.799 528.219 166.386 527.836C166.977 527.45 167.666 527.257 168.454 527.257C168.909 527.257 169.358 527.332 169.801 527.484C170.244 527.635 170.647 527.882 171.011 528.223C171.375 528.56 171.664 529.007 171.88 529.563C172.096 530.12 172.204 530.806 172.204 531.62V532.188H165.477V531.029H170.84C170.84 530.537 170.742 530.098 170.545 529.711C170.352 529.325 170.075 529.02 169.715 528.796C169.359 528.573 168.939 528.461 168.454 528.461C167.92 528.461 167.458 528.594 167.068 528.859C166.681 529.12 166.384 529.461 166.176 529.882C165.967 530.302 165.863 530.753 165.863 531.234V532.007C165.863 532.666 165.977 533.224 166.204 533.683C166.435 534.137 166.755 534.484 167.164 534.723C167.573 534.957 168.049 535.075 168.59 535.075C168.943 535.075 169.261 535.026 169.545 534.927C169.833 534.825 170.081 534.673 170.289 534.473C170.498 534.268 170.659 534.014 170.772 533.711L172.068 534.075C171.931 534.514 171.702 534.901 171.38 535.234C171.058 535.563 170.661 535.821 170.187 536.007C169.714 536.188 169.181 536.279 168.59 536.279ZM174.244 536.098V527.37H175.539V528.688H175.63C175.789 528.257 176.077 527.906 176.494 527.637C176.911 527.368 177.38 527.234 177.903 527.234C178.001 527.234 178.125 527.236 178.272 527.24C178.42 527.243 178.532 527.249 178.608 527.257V528.62C178.562 528.609 178.458 528.592 178.295 528.569C178.136 528.543 177.967 528.529 177.789 528.529C177.365 528.529 176.986 528.618 176.653 528.796C176.323 528.971 176.062 529.213 175.869 529.524C175.679 529.83 175.585 530.181 175.585 530.575V536.098H174.244ZM186.038 524.461V536.098H184.697V524.461H186.038ZM192.153 536.279C191.312 536.279 190.587 536.094 189.977 535.723C189.371 535.348 188.903 534.825 188.573 534.154C188.248 533.48 188.085 532.696 188.085 531.802C188.085 530.908 188.248 530.12 188.573 529.438C188.903 528.753 189.361 528.219 189.948 527.836C190.539 527.45 191.229 527.257 192.017 527.257C192.471 527.257 192.92 527.332 193.363 527.484C193.806 527.635 194.21 527.882 194.573 528.223C194.937 528.56 195.227 529.007 195.443 529.563C195.659 530.12 195.767 530.806 195.767 531.62V532.188H189.039V531.029H194.403C194.403 530.537 194.304 530.098 194.108 529.711C193.914 529.325 193.638 529.02 193.278 528.796C192.922 528.573 192.501 528.461 192.017 528.461C191.483 528.461 191.02 528.594 190.63 528.859C190.244 529.12 189.947 529.461 189.738 529.882C189.53 530.302 189.426 530.753 189.426 531.234V532.007C189.426 532.666 189.539 533.224 189.767 533.683C189.998 534.137 190.318 534.484 190.727 534.723C191.136 534.957 191.611 535.075 192.153 535.075C192.505 535.075 192.823 535.026 193.108 534.927C193.395 534.825 193.643 534.673 193.852 534.473C194.06 534.268 194.221 534.014 194.335 533.711L195.63 534.075C195.494 534.514 195.265 534.901 194.943 535.234C194.621 535.563 194.223 535.821 193.75 536.007C193.276 536.188 192.744 536.279 192.153 536.279ZM202.488 524.461H204.17L208.125 534.12H208.261L212.215 524.461H213.897V536.098H212.579V527.257H212.465L208.829 536.098H207.556L203.92 527.257H203.806V536.098H202.488V524.461ZM219.836 536.279C219.109 536.279 218.467 536.096 217.91 535.728C217.353 535.357 216.918 534.834 216.603 534.16C216.289 533.482 216.132 532.681 216.132 531.757C216.132 530.84 216.289 530.045 216.603 529.37C216.918 528.696 217.355 528.175 217.916 527.808C218.476 527.44 219.124 527.257 219.859 527.257C220.427 527.257 220.876 527.351 221.206 527.541C221.539 527.726 221.793 527.938 221.967 528.177C222.145 528.412 222.283 528.605 222.382 528.757H222.495V524.461H223.836V536.098H222.541V534.757H222.382C222.283 534.916 222.143 535.116 221.961 535.359C221.779 535.598 221.52 535.812 221.183 536.001C220.846 536.187 220.397 536.279 219.836 536.279ZM220.018 535.075C220.556 535.075 221.01 534.935 221.382 534.654C221.753 534.37 222.035 533.978 222.228 533.478C222.421 532.974 222.518 532.393 222.518 531.734C222.518 531.082 222.423 530.512 222.234 530.024C222.045 529.531 221.764 529.149 221.393 528.876C221.022 528.599 220.563 528.461 220.018 528.461C219.45 528.461 218.976 528.607 218.598 528.899C218.223 529.187 217.94 529.579 217.751 530.075C217.565 530.567 217.473 531.12 217.473 531.734C217.473 532.355 217.567 532.92 217.757 533.427C217.95 533.931 218.234 534.332 218.609 534.632C218.988 534.927 219.457 535.075 220.018 535.075ZM226.478 539.37V527.37H227.774V528.757H227.933C228.031 528.605 228.168 528.412 228.342 528.177C228.52 527.938 228.774 527.726 229.103 527.541C229.437 527.351 229.887 527.257 230.456 527.257C231.19 527.257 231.838 527.44 232.399 527.808C232.959 528.175 233.397 528.696 233.711 529.37C234.026 530.045 234.183 530.84 234.183 531.757C234.183 532.681 234.026 533.482 233.711 534.16C233.397 534.834 232.961 535.357 232.404 535.728C231.848 536.096 231.206 536.279 230.478 536.279C229.918 536.279 229.469 536.187 229.132 536.001C228.795 535.812 228.535 535.598 228.353 535.359C228.171 535.116 228.031 534.916 227.933 534.757H227.819V539.37H226.478ZM227.796 531.734C227.796 532.393 227.893 532.974 228.086 533.478C228.279 533.978 228.562 534.37 228.933 534.654C229.304 534.935 229.759 535.075 230.296 535.075C230.857 535.075 231.325 534.927 231.7 534.632C232.079 534.332 232.363 533.931 232.552 533.427C232.745 532.92 232.842 532.355 232.842 531.734C232.842 531.12 232.747 530.567 232.558 530.075C232.372 529.579 232.09 529.187 231.711 528.899C231.336 528.607 230.865 528.461 230.296 528.461C229.751 528.461 229.293 528.599 228.921 528.876C228.55 529.149 228.27 529.531 228.081 530.024C227.891 530.512 227.796 531.082 227.796 531.734Z" fill="black"/>
<rect x="78" y="343.705" width="233.471" height="51.3852" rx="6.5" fill="#FCFCFC" stroke="black"/>
<path d="M105.144 375.688V364.051H112.167V365.301H106.554V369.233H111.804V370.483H106.554V374.438H112.258V375.688H105.144ZM114.525 375.688V366.96H115.821V368.324H115.934C116.116 367.858 116.41 367.496 116.815 367.239C117.22 366.977 117.707 366.847 118.275 366.847C118.851 366.847 119.33 366.977 119.713 367.239C120.099 367.496 120.4 367.858 120.616 368.324H120.707C120.93 367.873 121.266 367.515 121.713 367.25C122.16 366.981 122.696 366.847 123.321 366.847C124.101 366.847 124.739 367.091 125.235 367.58C125.732 368.065 125.98 368.82 125.98 369.847V375.688H124.639V369.847C124.639 369.203 124.463 368.743 124.11 368.466C123.758 368.19 123.343 368.051 122.866 368.051C122.252 368.051 121.777 368.237 121.44 368.608C121.103 368.976 120.934 369.441 120.934 370.006V375.688H119.571V369.71C119.571 369.214 119.41 368.815 119.088 368.511C118.766 368.205 118.351 368.051 117.843 368.051C117.495 368.051 117.169 368.144 116.866 368.33C116.567 368.515 116.324 368.773 116.139 369.102C115.957 369.428 115.866 369.805 115.866 370.233V375.688H114.525ZM131 375.892C130.447 375.892 129.945 375.788 129.494 375.58C129.043 375.368 128.685 375.063 128.42 374.665C128.155 374.263 128.022 373.779 128.022 373.21C128.022 372.71 128.121 372.305 128.318 371.994C128.515 371.68 128.778 371.434 129.108 371.256C129.437 371.078 129.801 370.945 130.198 370.858C130.6 370.767 131.003 370.695 131.409 370.642C131.939 370.574 132.369 370.523 132.698 370.489C133.032 370.451 133.274 370.388 133.426 370.301C133.581 370.214 133.659 370.063 133.659 369.847V369.801C133.659 369.241 133.505 368.805 133.198 368.494C132.895 368.184 132.435 368.029 131.818 368.029C131.178 368.029 130.676 368.169 130.312 368.449C129.948 368.729 129.693 369.029 129.545 369.347L128.272 368.892C128.5 368.362 128.803 367.949 129.181 367.654C129.564 367.354 129.981 367.146 130.431 367.029C130.886 366.907 131.333 366.847 131.772 366.847C132.053 366.847 132.375 366.881 132.738 366.949C133.106 367.013 133.46 367.148 133.801 367.352C134.145 367.557 134.431 367.866 134.659 368.279C134.886 368.691 135 369.244 135 369.938V375.688H133.659V374.506H133.59C133.5 374.695 133.348 374.898 133.136 375.114C132.924 375.33 132.642 375.513 132.289 375.665C131.937 375.816 131.507 375.892 131 375.892ZM131.204 374.688C131.734 374.688 132.181 374.583 132.545 374.375C132.912 374.167 133.189 373.898 133.375 373.568C133.564 373.239 133.659 372.892 133.659 372.529V371.301C133.602 371.369 133.477 371.432 133.284 371.489C133.094 371.542 132.875 371.589 132.625 371.631C132.378 371.669 132.138 371.703 131.903 371.733C131.672 371.76 131.484 371.782 131.34 371.801C130.992 371.847 130.666 371.921 130.363 372.023C130.064 372.121 129.822 372.271 129.636 372.472C129.454 372.669 129.363 372.938 129.363 373.279C129.363 373.744 129.536 374.097 129.88 374.335C130.229 374.57 130.67 374.688 131.204 374.688ZM137.447 375.688V366.96H138.788V375.688H137.447ZM138.129 365.506C137.867 365.506 137.642 365.417 137.453 365.239C137.267 365.061 137.174 364.847 137.174 364.597C137.174 364.347 137.267 364.133 137.453 363.955C137.642 363.777 137.867 363.688 138.129 363.688C138.39 363.688 138.614 363.777 138.799 363.955C138.989 364.133 139.083 364.347 139.083 364.597C139.083 364.847 138.989 365.061 138.799 365.239C138.614 365.417 138.39 365.506 138.129 365.506ZM142.585 364.051V375.688H141.244V364.051H142.585Z" fill="black"/>
<rect x="61.5" y="159.5" width="268" height="532" rx="5.5" stroke="black"/>
<rect x="82.5" y="589.5" width="228" height="54" rx="6.5" fill="#141414" stroke="black"/>
<path d="M158.745 611.262V622.898H157.336V611.262H158.745ZM162.729 617.648V622.898H161.388V614.171H162.684V615.534H162.798C163.002 615.091 163.313 614.735 163.729 614.466C164.146 614.193 164.684 614.057 165.343 614.057C165.934 614.057 166.451 614.178 166.894 614.421C167.337 614.659 167.682 615.023 167.928 615.512C168.174 615.996 168.298 616.61 168.298 617.352V622.898H166.957V617.443C166.957 616.758 166.779 616.224 166.423 615.841C166.067 615.455 165.578 615.262 164.957 615.262C164.529 615.262 164.146 615.354 163.809 615.54C163.476 615.726 163.212 615.996 163.019 616.352C162.826 616.709 162.729 617.14 162.729 617.648ZM176.93 616.125L175.725 616.466C175.649 616.265 175.538 616.07 175.39 615.881C175.246 615.688 175.049 615.529 174.799 615.404C174.549 615.279 174.229 615.216 173.839 615.216C173.305 615.216 172.86 615.339 172.504 615.585C172.151 615.828 171.975 616.137 171.975 616.512C171.975 616.845 172.096 617.108 172.339 617.301C172.581 617.495 172.96 617.656 173.475 617.784L174.771 618.102C175.551 618.292 176.132 618.582 176.515 618.972C176.897 619.358 177.089 619.856 177.089 620.466C177.089 620.966 176.945 621.413 176.657 621.807C176.373 622.201 175.975 622.512 175.464 622.739C174.952 622.966 174.358 623.08 173.68 623.08C172.79 623.08 172.053 622.887 171.469 622.5C170.886 622.114 170.517 621.549 170.362 620.807L171.634 620.489C171.755 620.959 171.985 621.311 172.322 621.546C172.663 621.781 173.108 621.898 173.657 621.898C174.282 621.898 174.778 621.765 175.146 621.5C175.517 621.231 175.702 620.909 175.702 620.534C175.702 620.231 175.596 619.977 175.384 619.773C175.172 619.565 174.846 619.409 174.407 619.307L172.952 618.966C172.153 618.777 171.566 618.483 171.191 618.085C170.82 617.684 170.634 617.182 170.634 616.58C170.634 616.087 170.772 615.652 171.049 615.273C171.329 614.894 171.71 614.597 172.191 614.381C172.676 614.165 173.225 614.057 173.839 614.057C174.702 614.057 175.38 614.246 175.873 614.625C176.369 615.004 176.721 615.504 176.93 616.125ZM182.653 623.08C181.835 623.08 181.13 622.887 180.539 622.5C179.948 622.114 179.494 621.582 179.175 620.904C178.857 620.226 178.698 619.451 178.698 618.58C178.698 617.693 178.861 616.911 179.187 616.233C179.516 615.551 179.975 615.019 180.562 614.637C181.153 614.25 181.842 614.057 182.63 614.057C183.244 614.057 183.797 614.171 184.289 614.398C184.781 614.625 185.185 614.943 185.499 615.352C185.814 615.762 186.009 616.239 186.085 616.784H184.744C184.641 616.387 184.414 616.034 184.062 615.727C183.713 615.417 183.244 615.262 182.653 615.262C182.13 615.262 181.672 615.398 181.278 615.671C180.888 615.94 180.583 616.32 180.363 616.813C180.147 617.301 180.039 617.875 180.039 618.534C180.039 619.209 180.145 619.796 180.357 620.296C180.573 620.796 180.876 621.184 181.266 621.46C181.66 621.737 182.122 621.875 182.653 621.875C183.001 621.875 183.317 621.815 183.602 621.693C183.886 621.572 184.126 621.398 184.323 621.171C184.52 620.943 184.66 620.671 184.744 620.352H186.085C186.009 620.868 185.821 621.332 185.522 621.745C185.227 622.154 184.835 622.479 184.346 622.722C183.861 622.96 183.297 623.08 182.653 623.08ZM188.045 622.898V614.171H189.34V615.489H189.431C189.59 615.057 189.878 614.707 190.295 614.438C190.711 614.169 191.181 614.034 191.704 614.034C191.802 614.034 191.925 614.036 192.073 614.04C192.221 614.044 192.333 614.049 192.408 614.057V615.421C192.363 615.409 192.259 615.392 192.096 615.37C191.937 615.343 191.768 615.33 191.59 615.33C191.166 615.33 190.787 615.419 190.454 615.597C190.124 615.771 189.863 616.013 189.67 616.324C189.48 616.631 189.386 616.981 189.386 617.375V622.898H188.045ZM193.998 622.898V614.171H195.339V622.898H193.998ZM194.68 612.716C194.418 612.716 194.193 612.627 194.004 612.449C193.818 612.271 193.725 612.057 193.725 611.807C193.725 611.557 193.818 611.343 194.004 611.165C194.193 610.987 194.418 610.898 194.68 610.898C194.941 610.898 195.165 610.987 195.35 611.165C195.54 611.343 195.634 611.557 195.634 611.807C195.634 612.057 195.54 612.271 195.35 612.449C195.165 612.627 194.941 612.716 194.68 612.716ZM197.795 626.171V614.171H199.09V615.557H199.249C199.348 615.406 199.484 615.212 199.658 614.977C199.836 614.739 200.09 614.527 200.42 614.341C200.753 614.152 201.204 614.057 201.772 614.057C202.507 614.057 203.155 614.241 203.715 614.608C204.276 614.976 204.713 615.496 205.028 616.171C205.342 616.845 205.499 617.64 205.499 618.557C205.499 619.481 205.342 620.282 205.028 620.96C204.713 621.635 204.278 622.157 203.721 622.529C203.164 622.896 202.522 623.08 201.795 623.08C201.234 623.08 200.785 622.987 200.448 622.801C200.111 622.612 199.852 622.398 199.67 622.159C199.488 621.917 199.348 621.716 199.249 621.557H199.136V626.171H197.795ZM199.113 618.534C199.113 619.193 199.21 619.775 199.403 620.279C199.596 620.779 199.878 621.171 200.249 621.455C200.62 621.735 201.075 621.875 201.613 621.875C202.174 621.875 202.641 621.727 203.016 621.432C203.395 621.133 203.679 620.731 203.869 620.227C204.062 619.72 204.158 619.156 204.158 618.534C204.158 617.921 204.064 617.368 203.874 616.875C203.689 616.379 203.406 615.987 203.028 615.699C202.653 615.407 202.181 615.262 201.613 615.262C201.067 615.262 200.609 615.4 200.238 615.676C199.867 615.949 199.586 616.332 199.397 616.824C199.208 617.313 199.113 617.883 199.113 618.534ZM211.34 614.171V615.307H206.817V614.171H211.34ZM208.136 612.08H209.477V620.398C209.477 620.777 209.531 621.061 209.641 621.25C209.755 621.436 209.899 621.561 210.073 621.625C210.251 621.686 210.439 621.716 210.636 621.716C210.783 621.716 210.905 621.709 210.999 621.693C211.094 621.674 211.17 621.659 211.227 621.648L211.499 622.852C211.408 622.887 211.281 622.921 211.119 622.955C210.956 622.993 210.749 623.012 210.499 623.012C210.12 623.012 209.749 622.93 209.386 622.767C209.026 622.604 208.727 622.356 208.488 622.023C208.253 621.69 208.136 621.269 208.136 620.762V612.08ZM213.357 622.898V614.171H214.698V622.898H213.357ZM214.039 612.716C213.778 612.716 213.552 612.627 213.363 612.449C213.177 612.271 213.085 612.057 213.085 611.807C213.085 611.557 213.177 611.343 213.363 611.165C213.552 610.987 213.778 610.898 214.039 610.898C214.3 610.898 214.524 610.987 214.71 611.165C214.899 611.343 214.994 611.557 214.994 611.807C214.994 612.057 214.899 612.271 214.71 612.449C214.524 612.627 214.3 612.716 214.039 612.716ZM220.7 623.08C219.912 623.08 219.22 622.892 218.626 622.517C218.035 622.142 217.573 621.618 217.239 620.943C216.91 620.269 216.745 619.481 216.745 618.58C216.745 617.671 216.91 616.877 217.239 616.199C217.573 615.521 218.035 614.995 218.626 614.62C219.22 614.245 219.912 614.057 220.7 614.057C221.487 614.057 222.177 614.245 222.768 614.62C223.362 614.995 223.825 615.521 224.154 616.199C224.487 616.877 224.654 617.671 224.654 618.58C224.654 619.481 224.487 620.269 224.154 620.943C223.825 621.618 223.362 622.142 222.768 622.517C222.177 622.892 221.487 623.08 220.7 623.08ZM220.7 621.875C221.298 621.875 221.79 621.722 222.177 621.415C222.563 621.108 222.849 620.705 223.035 620.205C223.22 619.705 223.313 619.163 223.313 618.58C223.313 617.996 223.22 617.453 223.035 616.949C222.849 616.445 222.563 616.038 222.177 615.727C221.79 615.417 221.298 615.262 220.7 615.262C220.101 615.262 219.609 615.417 219.222 615.727C218.836 616.038 218.55 616.445 218.364 616.949C218.179 617.453 218.086 617.996 218.086 618.58C218.086 619.163 218.179 619.705 218.364 620.205C218.55 620.705 218.836 621.108 219.222 621.415C219.609 621.722 220.101 621.875 220.7 621.875ZM228.042 617.648V622.898H226.701V614.171H227.996V615.534H228.11C228.315 615.091 228.625 614.735 229.042 614.466C229.459 614.193 229.996 614.057 230.656 614.057C231.246 614.057 231.763 614.178 232.207 614.421C232.65 614.659 232.995 615.023 233.241 615.512C233.487 615.996 233.61 616.61 233.61 617.352V622.898H232.269V617.443C232.269 616.758 232.091 616.224 231.735 615.841C231.379 615.455 230.89 615.262 230.269 615.262C229.841 615.262 229.459 615.354 229.121 615.54C228.788 615.726 228.525 615.996 228.332 616.352C228.138 616.709 228.042 617.14 228.042 617.648Z" fill="white"/>
<path d="M330 35V39H362V35H330ZM330 46.88V50.88H362V46.88H330ZM330 58.88V62.88H362V58.88H330Z" fill="black"/>
</g>
<defs>
<clipPath id="clip0_3_353">
<rect width="393" height="852" fill="white"/>
</clipPath>
</defs>
</svg>
