<svg width="1440" height="1024" viewBox="0 0 1440 1024" fill="none" xmlns="http://www.w3.org/2000/svg">
<g clip-path="url(#clip0_2_260)">
<rect width="1440" height="1024" fill="white"/>
<circle cx="89" cy="52" r="25" fill="#D9D9D9"/>
<path d="M144.818 63V39.7273H152.955C154.576 39.7273 155.913 40.0076 156.966 40.5682C158.019 41.1212 158.803 41.8674 159.318 42.8068C159.833 43.7386 160.091 44.7727 160.091 45.9091C160.091 46.9091 159.913 47.7348 159.557 48.3864C159.208 49.0379 158.746 49.553 158.17 49.9318C157.602 50.3106 156.985 50.5909 156.318 50.7727V51C157.03 51.0455 157.746 51.2955 158.466 51.75C159.186 52.2045 159.788 52.8561 160.273 53.7045C160.758 54.553 161 55.5909 161 56.8182C161 57.9848 160.735 59.0341 160.205 59.9659C159.674 60.8977 158.837 61.6364 157.693 62.1818C156.549 62.7273 155.061 63 153.227 63H144.818ZM147.636 60.5H153.227C155.068 60.5 156.375 60.1439 157.148 59.4318C157.928 58.7121 158.318 57.8409 158.318 56.8182C158.318 56.0303 158.117 55.303 157.716 54.6364C157.314 53.9621 156.742 53.4242 156 53.0227C155.258 52.6136 154.379 52.4091 153.364 52.4091H147.636V60.5ZM147.636 49.9545H152.864C153.712 49.9545 154.477 49.7879 155.159 49.4545C155.848 49.1212 156.394 48.6515 156.795 48.0455C157.205 47.4394 157.409 46.7273 157.409 45.9091C157.409 44.8864 157.053 44.0189 156.341 43.3068C155.629 42.5871 154.5 42.2273 152.955 42.2273H147.636V49.9545ZM170.403 63.4091C169.297 63.4091 168.294 63.2008 167.392 62.7841C166.491 62.3598 165.775 61.75 165.244 60.9545C164.714 60.1515 164.449 59.1818 164.449 58.0455C164.449 57.0455 164.646 56.2348 165.04 55.6136C165.434 54.9848 165.96 54.4924 166.619 54.1364C167.278 53.7803 168.006 53.5152 168.801 53.3409C169.604 53.1591 170.411 53.0152 171.222 52.9091C172.282 52.7727 173.142 52.6705 173.801 52.6023C174.468 52.5265 174.953 52.4015 175.256 52.2273C175.566 52.053 175.722 51.75 175.722 51.3182V51.2273C175.722 50.1061 175.415 49.2348 174.801 48.6136C174.195 47.9924 173.275 47.6818 172.04 47.6818C170.759 47.6818 169.756 47.9621 169.028 48.5227C168.301 49.0833 167.79 49.6818 167.494 50.3182L164.949 49.4091C165.403 48.3485 166.009 47.5227 166.767 46.9318C167.532 46.3333 168.366 45.9167 169.267 45.6818C170.176 45.4394 171.07 45.3182 171.949 45.3182C172.509 45.3182 173.153 45.3864 173.881 45.5227C174.616 45.6515 175.324 45.9205 176.006 46.3295C176.695 46.7386 177.267 47.3561 177.722 48.1818C178.176 49.0076 178.403 50.1136 178.403 51.5V63H175.722V60.6364H175.585C175.403 61.0152 175.1 61.4205 174.676 61.8523C174.252 62.2841 173.688 62.6515 172.983 62.9545C172.278 63.2576 171.419 63.4091 170.403 63.4091ZM170.812 61C171.873 61 172.767 60.7917 173.494 60.375C174.229 59.9583 174.782 59.4205 175.153 58.7614C175.532 58.1023 175.722 57.4091 175.722 56.6818V54.2273C175.608 54.3636 175.358 54.4886 174.972 54.6023C174.593 54.7083 174.153 54.803 173.653 54.8864C173.161 54.9621 172.68 55.0303 172.21 55.0909C171.748 55.1439 171.373 55.1894 171.085 55.2273C170.388 55.3182 169.737 55.4659 169.131 55.6705C168.532 55.8674 168.047 56.1667 167.676 56.5682C167.313 56.9621 167.131 57.5 167.131 58.1818C167.131 59.1136 167.475 59.8182 168.165 60.2955C168.862 60.7652 169.744 61 170.812 61ZM185.98 52.5V63H183.298V45.5455H185.889V48.2727H186.116C186.526 47.3864 187.147 46.6742 187.98 46.1364C188.813 45.5909 189.889 45.3182 191.207 45.3182C192.389 45.3182 193.423 45.5606 194.31 46.0455C195.196 46.5227 195.885 47.25 196.378 48.2273C196.87 49.197 197.116 50.4242 197.116 51.9091V63H194.435V52.0909C194.435 50.7197 194.079 49.6515 193.366 48.8864C192.654 48.1136 191.677 47.7273 190.435 47.7273C189.579 47.7273 188.813 47.9129 188.139 48.2841C187.473 48.6553 186.946 49.197 186.56 49.9091C186.173 50.6212 185.98 51.4848 185.98 52.5ZM204.517 56.6364L204.472 53.3182H205.017L212.653 45.5455H215.972L207.835 53.7727H207.608L204.517 56.6364ZM202.017 63V39.7273H204.699V63H202.017ZM213.108 63L206.29 54.3636L208.199 52.5L216.517 63H213.108ZM219.787 63V39.7273H227.651C229.469 39.7273 230.961 40.0379 232.128 40.6591C233.295 41.2727 234.158 42.1174 234.719 43.1932C235.279 44.2689 235.56 45.4924 235.56 46.8636C235.56 48.2348 235.279 49.4508 234.719 50.5114C234.158 51.572 233.298 52.4053 232.139 53.0114C230.98 53.6098 229.499 53.9091 227.696 53.9091H221.332V51.3636H227.605C228.848 51.3636 229.848 51.1818 230.605 50.8182C231.37 50.4545 231.923 49.9394 232.264 49.2727C232.613 48.5985 232.787 47.7955 232.787 46.8636C232.787 45.9318 232.613 45.1174 232.264 44.4205C231.916 43.7235 231.359 43.1856 230.594 42.8068C229.829 42.4205 228.817 42.2273 227.56 42.2273H222.605V63H219.787ZM230.741 52.5455L236.469 63H233.196L227.56 52.5455H230.741ZM246.795 63.3636C245.22 63.3636 243.837 62.9886 242.648 62.2386C241.466 61.4886 240.542 60.4394 239.875 59.0909C239.216 57.7424 238.886 56.1667 238.886 54.3636C238.886 52.5455 239.216 50.9583 239.875 49.6023C240.542 48.2462 241.466 47.1932 242.648 46.4432C243.837 45.6932 245.22 45.3182 246.795 45.3182C248.371 45.3182 249.75 45.6932 250.932 46.4432C252.121 47.1932 253.045 48.2462 253.705 49.6023C254.371 50.9583 254.705 52.5455 254.705 54.3636C254.705 56.1667 254.371 57.7424 253.705 59.0909C253.045 60.4394 252.121 61.4886 250.932 62.2386C249.75 62.9886 248.371 63.3636 246.795 63.3636ZM246.795 60.9545C247.992 60.9545 248.977 60.6477 249.75 60.0341C250.523 59.4205 251.095 58.6136 251.466 57.6136C251.837 56.6136 252.023 55.5303 252.023 54.3636C252.023 53.197 251.837 52.1098 251.466 51.1023C251.095 50.0947 250.523 49.2803 249.75 48.6591C248.977 48.0379 247.992 47.7273 246.795 47.7273C245.598 47.7273 244.614 48.0379 243.841 48.6591C243.068 49.2803 242.496 50.0947 242.125 51.1023C241.754 52.1098 241.568 53.197 241.568 54.3636C241.568 55.5303 241.754 56.6136 242.125 57.6136C242.496 58.6136 243.068 59.4205 243.841 60.0341C244.614 60.6477 245.598 60.9545 246.795 60.9545ZM265.889 63.3636C264.313 63.3636 262.931 62.9886 261.741 62.2386C260.56 61.4886 259.635 60.4394 258.969 59.0909C258.31 57.7424 257.98 56.1667 257.98 54.3636C257.98 52.5455 258.31 50.9583 258.969 49.6023C259.635 48.2462 260.56 47.1932 261.741 46.4432C262.931 45.6932 264.313 45.3182 265.889 45.3182C267.465 45.3182 268.844 45.6932 270.026 46.4432C271.215 47.1932 272.139 48.2462 272.798 49.6023C273.465 50.9583 273.798 52.5455 273.798 54.3636C273.798 56.1667 273.465 57.7424 272.798 59.0909C272.139 60.4394 271.215 61.4886 270.026 62.2386C268.844 62.9886 267.465 63.3636 265.889 63.3636ZM265.889 60.9545C267.086 60.9545 268.071 60.6477 268.844 60.0341C269.616 59.4205 270.188 58.6136 270.56 57.6136C270.931 56.6136 271.116 55.5303 271.116 54.3636C271.116 53.197 270.931 52.1098 270.56 51.1023C270.188 50.0947 269.616 49.2803 268.844 48.6591C268.071 48.0379 267.086 47.7273 265.889 47.7273C264.692 47.7273 263.707 48.0379 262.935 48.6591C262.162 49.2803 261.59 50.0947 261.219 51.1023C260.848 52.1098 260.662 53.197 260.662 54.3636C260.662 55.5303 260.848 56.6136 261.219 57.6136C261.59 58.6136 262.162 59.4205 262.935 60.0341C263.707 60.6477 264.692 60.9545 265.889 60.9545ZM285.483 45.5455V47.8182H276.438V45.5455H285.483ZM279.074 41.3636H281.756V58C281.756 58.7576 281.866 59.3258 282.085 59.7045C282.313 60.0758 282.6 60.3258 282.949 60.4545C283.305 60.5758 283.68 60.6364 284.074 60.6364C284.369 60.6364 284.612 60.6212 284.801 60.5909C284.991 60.553 285.142 60.5227 285.256 60.5L285.801 62.9091C285.619 62.9773 285.366 63.0455 285.04 63.1136C284.714 63.1894 284.301 63.2273 283.801 63.2273C283.044 63.2273 282.301 63.0644 281.574 62.7386C280.854 62.4129 280.256 61.9167 279.778 61.25C279.309 60.5833 279.074 59.7424 279.074 58.7273V41.3636Z" fill="black"/>
<line x1="-0.0140381" y1="95" x2="1440.01" y2="95" stroke="black"/>
<path d="M869.5 61H864.114V43.5455H869.739C871.432 43.5455 872.881 43.8949 874.085 44.5938C875.29 45.2869 876.213 46.2841 876.855 47.5852C877.497 48.8807 877.818 50.4318 877.818 52.2386C877.818 54.0568 877.494 55.6222 876.847 56.9347C876.199 58.2415 875.256 59.2472 874.017 59.9517C872.778 60.6506 871.273 61 869.5 61ZM866.227 59.125H869.364C870.807 59.125 872.003 58.8466 872.952 58.2898C873.901 57.733 874.608 56.9403 875.074 55.9119C875.54 54.8835 875.773 53.6591 875.773 52.2386C875.773 50.8295 875.543 49.6165 875.082 48.5994C874.622 47.5767 873.935 46.7926 873.02 46.2472C872.105 45.696 870.966 45.4205 869.602 45.4205H866.227V59.125ZM884.943 61.3068C884.114 61.3068 883.361 61.1506 882.685 60.8381C882.009 60.5199 881.472 60.0625 881.074 59.4659C880.676 58.8636 880.477 58.1364 880.477 57.2841C880.477 56.5341 880.625 55.9261 880.92 55.4602C881.216 54.9886 881.611 54.6193 882.105 54.3523C882.599 54.0852 883.145 53.8864 883.741 53.7557C884.344 53.6193 884.949 53.5114 885.557 53.4318C886.352 53.3295 886.997 53.2528 887.491 53.2017C887.991 53.1449 888.355 53.0511 888.582 52.9205C888.815 52.7898 888.932 52.5625 888.932 52.2386V52.1705C888.932 51.3295 888.702 50.6761 888.241 50.2102C887.787 49.7443 887.097 49.5114 886.17 49.5114C885.21 49.5114 884.457 49.7216 883.912 50.142C883.366 50.5625 882.983 51.0114 882.761 51.4886L880.852 50.8068C881.193 50.0114 881.648 49.392 882.216 48.9489C882.79 48.5 883.415 48.1875 884.091 48.0114C884.773 47.8295 885.443 47.7386 886.102 47.7386C886.523 47.7386 887.006 47.7898 887.551 47.892C888.102 47.9886 888.634 48.1903 889.145 48.4972C889.662 48.804 890.091 49.267 890.432 49.8864C890.773 50.5057 890.943 51.3352 890.943 52.375V61H888.932V59.2273H888.83C888.693 59.5114 888.466 59.8153 888.148 60.1392C887.83 60.4631 887.406 60.7386 886.878 60.9659C886.349 61.1932 885.705 61.3068 884.943 61.3068ZM885.25 59.5C886.045 59.5 886.716 59.3438 887.261 59.0312C887.813 58.7188 888.227 58.3153 888.506 57.821C888.79 57.3267 888.932 56.8068 888.932 56.2614V54.4205C888.847 54.5227 888.659 54.6165 888.369 54.7017C888.085 54.7812 887.756 54.8523 887.381 54.9148C887.011 54.9716 886.651 55.0227 886.298 55.0682C885.952 55.108 885.67 55.142 885.455 55.1705C884.932 55.2386 884.443 55.3494 883.989 55.5028C883.54 55.6506 883.176 55.875 882.898 56.1761C882.625 56.4716 882.489 56.875 882.489 57.3864C882.489 58.0852 882.747 58.6136 883.264 58.9716C883.787 59.3239 884.449 59.5 885.25 59.5ZM903.887 50.8409L902.08 51.3523C901.967 51.0511 901.799 50.7585 901.577 50.4744C901.362 50.1847 901.066 49.946 900.691 49.7585C900.316 49.571 899.836 49.4773 899.251 49.4773C898.45 49.4773 897.782 49.6619 897.248 50.0312C896.719 50.3949 896.455 50.858 896.455 51.4205C896.455 51.9205 896.637 52.3153 897.001 52.6051C897.364 52.8949 897.933 53.1364 898.705 53.3295L900.648 53.8068C901.819 54.0909 902.691 54.5256 903.265 55.1108C903.839 55.6903 904.126 56.4375 904.126 57.3523C904.126 58.1023 903.91 58.7727 903.478 59.3636C903.052 59.9545 902.455 60.4205 901.688 60.7614C900.921 61.1023 900.029 61.2727 899.012 61.2727C897.677 61.2727 896.572 60.983 895.697 60.4034C894.822 59.8239 894.268 58.9773 894.035 57.8636L895.944 57.3864C896.126 58.0909 896.469 58.6193 896.975 58.9716C897.487 59.3239 898.154 59.5 898.978 59.5C899.915 59.5 900.66 59.3011 901.211 58.9034C901.768 58.5 902.046 58.017 902.046 57.4545C902.046 57 901.887 56.6193 901.569 56.3125C901.251 56 900.762 55.767 900.103 55.6136L897.921 55.1023C896.722 54.8182 895.842 54.3778 895.279 53.7812C894.722 53.179 894.444 52.4261 894.444 51.5227C894.444 50.7841 894.651 50.1307 895.066 49.5625C895.487 48.9943 896.058 48.5483 896.779 48.2244C897.506 47.9006 898.33 47.7386 899.251 47.7386C900.546 47.7386 901.563 48.0227 902.302 48.5909C903.046 49.1591 903.575 49.9091 903.887 50.8409ZM909.165 53.125V61H907.153V43.5455H909.165V49.9545H909.335C909.642 49.2784 910.102 48.7415 910.716 48.3438C911.335 47.9403 912.159 47.7386 913.188 47.7386C914.08 47.7386 914.861 47.9176 915.531 48.2756C916.202 48.6278 916.722 49.1705 917.091 49.9034C917.466 50.6307 917.653 51.5568 917.653 52.6818V61H915.642V52.8182C915.642 51.7784 915.372 50.9744 914.832 50.4062C914.298 49.8324 913.557 49.5455 912.608 49.5455C911.949 49.5455 911.358 49.6847 910.835 49.9631C910.318 50.2415 909.909 50.6477 909.608 51.1818C909.313 51.7159 909.165 52.3636 909.165 53.125ZM921.606 61V43.5455H923.617V49.9886H923.788C923.935 49.7614 924.14 49.4716 924.401 49.1193C924.668 48.7614 925.049 48.4432 925.543 48.1648C926.043 47.8807 926.719 47.7386 927.572 47.7386C928.674 47.7386 929.646 48.0142 930.487 48.5653C931.327 49.1165 931.984 49.8977 932.455 50.9091C932.927 51.9205 933.163 53.1136 933.163 54.4886C933.163 55.875 932.927 57.0767 932.455 58.0938C931.984 59.1051 931.33 59.8892 930.495 60.446C929.66 60.9972 928.697 61.2727 927.606 61.2727C926.765 61.2727 926.092 61.1335 925.586 60.8551C925.08 60.571 924.691 60.25 924.418 59.892C924.146 59.5284 923.935 59.2273 923.788 58.9886H923.549V61H921.606ZM923.583 54.4545C923.583 55.4432 923.728 56.3153 924.018 57.071C924.308 57.821 924.731 58.4091 925.288 58.8352C925.844 59.2557 926.526 59.4659 927.333 59.4659C928.174 59.4659 928.876 59.2443 929.438 58.8011C930.006 58.3523 930.433 57.75 930.717 56.9943C931.006 56.233 931.151 55.3864 931.151 54.4545C931.151 53.5341 931.009 52.7045 930.725 51.9659C930.447 51.2216 930.023 50.6335 929.455 50.2017C928.893 49.7642 928.185 49.5455 927.333 49.5455C926.515 49.5455 925.827 49.7528 925.271 50.1676C924.714 50.5767 924.293 51.1506 924.009 51.8892C923.725 52.6222 923.583 53.4773 923.583 54.4545ZM941.558 61.2727C940.376 61.2727 939.339 60.9915 938.447 60.429C937.56 59.8665 936.867 59.0795 936.367 58.0682C935.873 57.0568 935.626 55.875 935.626 54.5227C935.626 53.1591 935.873 51.9687 936.367 50.9517C936.867 49.9347 937.56 49.1449 938.447 48.5824C939.339 48.0199 940.376 47.7386 941.558 47.7386C942.739 47.7386 943.773 48.0199 944.66 48.5824C945.552 49.1449 946.245 49.9347 946.739 50.9517C947.239 51.9687 947.489 53.1591 947.489 54.5227C947.489 55.875 947.239 57.0568 946.739 58.0682C946.245 59.0795 945.552 59.8665 944.66 60.429C943.773 60.9915 942.739 61.2727 941.558 61.2727ZM941.558 59.4659C942.455 59.4659 943.194 59.2358 943.773 58.7756C944.353 58.3153 944.782 57.7102 945.06 56.9602C945.339 56.2102 945.478 55.3977 945.478 54.5227C945.478 53.6477 945.339 52.8324 945.06 52.0767C944.782 51.321 944.353 50.7102 943.773 50.2443C943.194 49.7784 942.455 49.5455 941.558 49.5455C940.66 49.5455 939.921 49.7784 939.342 50.2443C938.762 50.7102 938.333 51.321 938.055 52.0767C937.776 52.8324 937.637 53.6477 937.637 54.5227C937.637 55.3977 937.776 56.2102 938.055 56.9602C938.333 57.7102 938.762 58.3153 939.342 58.7756C939.921 59.2358 940.66 59.4659 941.558 59.4659ZM954.412 61.3068C953.582 61.3068 952.83 61.1506 952.153 60.8381C951.477 60.5199 950.94 60.0625 950.543 59.4659C950.145 58.8636 949.946 58.1364 949.946 57.2841C949.946 56.5341 950.094 55.9261 950.389 55.4602C950.685 54.9886 951.08 54.6193 951.574 54.3523C952.068 54.0852 952.614 53.8864 953.21 53.7557C953.813 53.6193 954.418 53.5114 955.026 53.4318C955.821 53.3295 956.466 53.2528 956.96 53.2017C957.46 53.1449 957.824 53.0511 958.051 52.9205C958.284 52.7898 958.401 52.5625 958.401 52.2386V52.1705C958.401 51.3295 958.17 50.6761 957.71 50.2102C957.256 49.7443 956.565 49.5114 955.639 49.5114C954.679 49.5114 953.926 49.7216 953.381 50.142C952.835 50.5625 952.452 51.0114 952.23 51.4886L950.321 50.8068C950.662 50.0114 951.116 49.392 951.685 48.9489C952.259 48.5 952.884 48.1875 953.56 48.0114C954.241 47.8295 954.912 47.7386 955.571 47.7386C955.991 47.7386 956.474 47.7898 957.02 47.892C957.571 47.9886 958.102 48.1903 958.614 48.4972C959.131 48.804 959.56 49.267 959.901 49.8864C960.241 50.5057 960.412 51.3352 960.412 52.375V61H958.401V59.2273H958.298C958.162 59.5114 957.935 59.8153 957.616 60.1392C957.298 60.4631 956.875 60.7386 956.347 60.9659C955.818 61.1932 955.173 61.3068 954.412 61.3068ZM954.719 59.5C955.514 59.5 956.185 59.3438 956.73 59.0312C957.281 58.7188 957.696 58.3153 957.974 57.821C958.259 57.3267 958.401 56.8068 958.401 56.2614V54.4205C958.315 54.5227 958.128 54.6165 957.838 54.7017C957.554 54.7812 957.224 54.8523 956.849 54.9148C956.48 54.9716 956.119 55.0227 955.767 55.0682C955.42 55.108 955.139 55.142 954.923 55.1705C954.401 55.2386 953.912 55.3494 953.457 55.5028C953.009 55.6506 952.645 55.875 952.366 56.1761C952.094 56.4716 951.957 56.875 951.957 57.3864C951.957 58.0852 952.216 58.6136 952.733 58.9716C953.256 59.3239 953.918 59.5 954.719 59.5ZM964.083 61V47.9091H966.026V49.8864H966.163C966.401 49.2386 966.833 48.7131 967.458 48.3097C968.083 47.9062 968.788 47.7045 969.572 47.7045C969.719 47.7045 969.904 47.7074 970.126 47.7131C970.347 47.7187 970.515 47.7273 970.629 47.7386V49.7841C970.56 49.767 970.404 49.7415 970.16 49.7074C969.921 49.6676 969.668 49.6477 969.401 49.6477C968.765 49.6477 968.197 49.7812 967.697 50.0483C967.202 50.3097 966.81 50.6733 966.521 51.1392C966.237 51.5994 966.094 52.125 966.094 52.7159V61H964.083ZM977.558 61.2727C976.467 61.2727 975.504 60.9972 974.668 60.446C973.833 59.8892 973.18 59.1051 972.708 58.0938C972.237 57.0767 972.001 55.875 972.001 54.4886C972.001 53.1136 972.237 51.9205 972.708 50.9091C973.18 49.8977 973.836 49.1165 974.677 48.5653C975.518 48.0142 976.489 47.7386 977.592 47.7386C978.444 47.7386 979.117 47.8807 979.612 48.1648C980.112 48.4432 980.492 48.7614 980.754 49.1193C981.021 49.4716 981.228 49.7614 981.376 49.9886H981.546V43.5455H983.558V61H981.614V58.9886H981.376C981.228 59.2273 981.018 59.5284 980.745 59.892C980.472 60.25 980.083 60.571 979.577 60.8551C979.072 61.1335 978.398 61.2727 977.558 61.2727ZM977.83 59.4659C978.637 59.4659 979.319 59.2557 979.876 58.8352C980.433 58.4091 980.856 57.821 981.146 57.071C981.435 56.3153 981.58 55.4432 981.58 54.4545C981.58 53.4773 981.438 52.6222 981.154 51.8892C980.87 51.1506 980.45 50.5767 979.893 50.1676C979.336 49.7528 978.648 49.5455 977.83 49.5455C976.978 49.5455 976.268 49.7642 975.7 50.2017C975.137 50.6335 974.714 51.2216 974.43 51.9659C974.151 52.7045 974.012 53.5341 974.012 54.4545C974.012 55.3864 974.154 56.233 974.438 56.9943C974.728 57.75 975.154 58.3523 975.717 58.8011C976.285 59.2443 976.989 59.4659 977.83 59.4659Z" fill="black"/>
<rect x="1227" y="32" width="167" height="44" fill="#D9D9D9"/>
<path d="M1268.16 49H1266.05C1265.92 48.392 1265.7 47.858 1265.39 47.3977C1265.08 46.9375 1264.71 46.5511 1264.26 46.2386C1263.83 45.9205 1263.34 45.6818 1262.81 45.5227C1262.27 45.3636 1261.72 45.2841 1261.14 45.2841C1260.08 45.2841 1259.12 45.5511 1258.26 46.0852C1257.41 46.6193 1256.73 47.4062 1256.23 48.446C1255.73 49.4858 1255.48 50.7614 1255.48 52.2727C1255.48 53.7841 1255.73 55.0597 1256.23 56.0994C1256.73 57.1392 1257.41 57.9261 1258.26 58.4602C1259.12 58.9943 1260.08 59.2614 1261.14 59.2614C1261.72 59.2614 1262.27 59.1818 1262.81 59.0227C1263.34 58.8636 1263.83 58.6278 1264.26 58.3153C1264.71 57.9972 1265.08 57.608 1265.39 57.1477C1265.7 56.6818 1265.92 56.1477 1266.05 55.5455H1268.16C1268 56.4375 1267.71 57.2358 1267.29 57.9403C1266.87 58.6449 1266.35 59.2443 1265.72 59.7386C1265.1 60.2273 1264.39 60.5994 1263.62 60.8551C1262.84 61.1108 1262.02 61.2386 1261.14 61.2386C1259.65 61.2386 1258.32 60.875 1257.16 60.1477C1256.01 59.4205 1255.09 58.3864 1254.43 57.0455C1253.76 55.7045 1253.43 54.1136 1253.43 52.2727C1253.43 50.4318 1253.76 48.8409 1254.43 47.5C1255.09 46.1591 1256.01 45.125 1257.16 44.3977C1258.32 43.6705 1259.65 43.3068 1261.14 43.3068C1262.02 43.3068 1262.84 43.4347 1263.62 43.6903C1264.39 43.946 1265.1 44.321 1265.72 44.8153C1266.35 45.304 1266.87 45.9006 1267.29 46.6051C1267.71 47.304 1268 48.1023 1268.16 49ZM1276.62 61.2727C1275.44 61.2727 1274.4 60.9915 1273.51 60.429C1272.62 59.8665 1271.93 59.0795 1271.43 58.0682C1270.94 57.0568 1270.69 55.875 1270.69 54.5227C1270.69 53.1591 1270.94 51.9687 1271.43 50.9517C1271.93 49.9347 1272.62 49.1449 1273.51 48.5824C1274.4 48.0199 1275.44 47.7386 1276.62 47.7386C1277.8 47.7386 1278.84 48.0199 1279.72 48.5824C1280.61 49.1449 1281.31 49.9347 1281.8 50.9517C1282.3 51.9687 1282.55 53.1591 1282.55 54.5227C1282.55 55.875 1282.3 57.0568 1281.8 58.0682C1281.31 59.0795 1280.61 59.8665 1279.72 60.429C1278.84 60.9915 1277.8 61.2727 1276.62 61.2727ZM1276.62 59.4659C1277.52 59.4659 1278.26 59.2358 1278.84 58.7756C1279.42 58.3153 1279.84 57.7102 1280.12 56.9602C1280.4 56.2102 1280.54 55.3977 1280.54 54.5227C1280.54 53.6477 1280.4 52.8324 1280.12 52.0767C1279.84 51.321 1279.42 50.7102 1278.84 50.2443C1278.26 49.7784 1277.52 49.5455 1276.62 49.5455C1275.72 49.5455 1274.98 49.7784 1274.4 50.2443C1273.82 50.7102 1273.4 51.321 1273.12 52.0767C1272.84 52.8324 1272.7 53.6477 1272.7 54.5227C1272.7 55.3977 1272.84 56.2102 1273.12 56.9602C1273.4 57.7102 1273.82 58.3153 1274.4 58.7756C1274.98 59.2358 1275.72 59.4659 1276.62 59.4659ZM1287.63 53.125V61H1285.62V47.9091H1287.57V49.9545H1287.74C1288.04 49.2898 1288.51 48.7557 1289.13 48.3523C1289.76 47.9432 1290.57 47.7386 1291.55 47.7386C1292.44 47.7386 1293.22 47.9205 1293.88 48.2841C1294.55 48.642 1295.06 49.1875 1295.43 49.9205C1295.8 50.6477 1295.99 51.5682 1295.99 52.6818V61H1293.97V52.8182C1293.97 51.7898 1293.71 50.9886 1293.17 50.4148C1292.64 49.8352 1291.91 49.5455 1290.97 49.5455C1290.33 49.5455 1289.76 49.6847 1289.25 49.9631C1288.75 50.2415 1288.36 50.6477 1288.07 51.1818C1287.78 51.7159 1287.63 52.3636 1287.63 53.125ZM1301.67 53.125V61H1299.66V47.9091H1301.6V49.9545H1301.77C1302.08 49.2898 1302.55 48.7557 1303.17 48.3523C1303.8 47.9432 1304.6 47.7386 1305.59 47.7386C1306.48 47.7386 1307.25 47.9205 1307.92 48.2841C1308.58 48.642 1309.1 49.1875 1309.47 49.9205C1309.84 50.6477 1310.02 51.5682 1310.02 52.6818V61H1308.01V52.8182C1308.01 51.7898 1307.75 50.9886 1307.21 50.4148C1306.68 49.8352 1305.95 49.5455 1305.01 49.5455C1304.37 49.5455 1303.8 49.6847 1303.29 49.9631C1302.79 50.2415 1302.4 50.6477 1302.11 51.1818C1301.82 51.7159 1301.67 52.3636 1301.67 53.125ZM1319.19 61.2727C1317.93 61.2727 1316.84 60.9943 1315.92 60.4375C1315.02 59.875 1314.31 59.0909 1313.82 58.0852C1313.33 57.0739 1313.09 55.8977 1313.09 54.5568C1313.09 53.2159 1313.33 52.0341 1313.82 51.0114C1314.31 49.983 1315 49.1818 1315.88 48.608C1316.77 48.0284 1317.8 47.7386 1318.98 47.7386C1319.67 47.7386 1320.34 47.8523 1321 48.0795C1321.67 48.3068 1322.27 48.6761 1322.82 49.1875C1323.37 49.6932 1323.8 50.3636 1324.12 51.1989C1324.45 52.0341 1324.61 53.0625 1324.61 54.2841V55.1364H1314.52V53.3977H1322.56C1322.56 52.6591 1322.42 52 1322.12 51.4205C1321.83 50.8409 1321.42 50.3835 1320.88 50.0483C1320.34 49.7131 1319.71 49.5455 1318.98 49.5455C1318.18 49.5455 1317.49 49.7443 1316.9 50.142C1316.33 50.5341 1315.88 51.0455 1315.57 51.6761C1315.25 52.3068 1315.1 52.983 1315.1 53.7045V54.8636C1315.1 55.8523 1315.27 56.6903 1315.61 57.3778C1315.96 58.0597 1316.44 58.5795 1317.05 58.9375C1317.66 59.2898 1318.38 59.4659 1319.19 59.4659C1319.72 59.4659 1320.19 59.392 1320.62 59.2443C1321.05 59.0909 1321.42 58.8636 1321.74 58.5625C1322.05 58.2557 1322.29 57.875 1322.46 57.4205L1324.4 57.9659C1324.2 58.625 1323.86 59.2045 1323.37 59.7045C1322.89 60.1989 1322.29 60.5852 1321.58 60.8636C1320.87 61.1364 1320.08 61.2727 1319.19 61.2727ZM1328.82 47.9091L1331.95 53.2614L1335.09 47.9091H1337.41L1333.18 54.4545L1337.41 61H1335.09L1331.95 55.9205L1328.82 61H1326.5L1330.66 54.4545L1326.5 47.9091H1328.82ZM1340.28 61V47.9091H1342.29V61H1340.28ZM1341.3 45.7273C1340.91 45.7273 1340.57 45.5938 1340.29 45.3267C1340.01 45.0597 1339.87 44.7386 1339.87 44.3636C1339.87 43.9886 1340.01 43.6676 1340.29 43.4006C1340.57 43.1335 1340.91 43 1341.3 43C1341.69 43 1342.03 43.1335 1342.31 43.4006C1342.59 43.6676 1342.73 43.9886 1342.73 44.3636C1342.73 44.7386 1342.59 45.0597 1342.31 45.3267C1342.03 45.5938 1341.69 45.7273 1341.3 45.7273ZM1351.29 61.2727C1350.11 61.2727 1349.07 60.9915 1348.18 60.429C1347.29 59.8665 1346.6 59.0795 1346.1 58.0682C1345.61 57.0568 1345.36 55.875 1345.36 54.5227C1345.36 53.1591 1345.61 51.9687 1346.1 50.9517C1346.6 49.9347 1347.29 49.1449 1348.18 48.5824C1349.07 48.0199 1350.11 47.7386 1351.29 47.7386C1352.47 47.7386 1353.51 48.0199 1354.39 48.5824C1355.29 49.1449 1355.98 49.9347 1356.47 50.9517C1356.97 51.9687 1357.22 53.1591 1357.22 54.5227C1357.22 55.875 1356.97 57.0568 1356.47 58.0682C1355.98 59.0795 1355.29 59.8665 1354.39 60.429C1353.51 60.9915 1352.47 61.2727 1351.29 61.2727ZM1351.29 59.4659C1352.19 59.4659 1352.93 59.2358 1353.51 58.7756C1354.09 58.3153 1354.52 57.7102 1354.79 56.9602C1355.07 56.2102 1355.21 55.3977 1355.21 54.5227C1355.21 53.6477 1355.07 52.8324 1354.79 52.0767C1354.52 51.321 1354.09 50.7102 1353.51 50.2443C1352.93 49.7784 1352.19 49.5455 1351.29 49.5455C1350.39 49.5455 1349.66 49.7784 1349.08 50.2443C1348.5 50.7102 1348.07 51.321 1347.79 52.0767C1347.51 52.8324 1347.37 53.6477 1347.37 54.5227C1347.37 55.3977 1347.51 56.2102 1347.79 56.9602C1348.07 57.7102 1348.5 58.3153 1349.08 58.7756C1349.66 59.2358 1350.39 59.4659 1351.29 59.4659ZM1362.31 53.125V61H1360.29V47.9091H1362.24V49.9545H1362.41C1362.71 49.2898 1363.18 48.7557 1363.81 48.3523C1364.43 47.9432 1365.24 47.7386 1366.23 47.7386C1367.11 47.7386 1367.89 47.9205 1368.55 48.2841C1369.22 48.642 1369.73 49.1875 1370.1 49.9205C1370.47 50.6477 1370.66 51.5682 1370.66 52.6818V61H1368.65V52.8182C1368.65 51.7898 1368.38 50.9886 1367.85 50.4148C1367.31 49.8352 1366.58 49.5455 1365.65 49.5455C1365 49.5455 1364.43 49.6847 1363.92 49.9631C1363.42 50.2415 1363.03 50.6477 1362.74 51.1818C1362.45 51.7159 1362.31 52.3636 1362.31 53.125Z" fill="black"/>
<rect x="1029" y="32" width="167" height="44" fill="#D9D9D9"/>
<path d="M1058.23 43.5455V61H1056.11V43.5455H1058.23ZM1064.2 53.125V61H1062.19V47.9091H1064.14V49.9545H1064.31C1064.61 49.2898 1065.08 48.7557 1065.7 48.3523C1066.33 47.9432 1067.14 47.7386 1068.12 47.7386C1069.01 47.7386 1069.79 47.9205 1070.45 48.2841C1071.12 48.642 1071.63 49.1875 1072 49.9205C1072.37 50.6477 1072.56 51.5682 1072.56 52.6818V61H1070.54V52.8182C1070.54 51.7898 1070.28 50.9886 1069.74 50.4148C1069.21 49.8352 1068.48 49.5455 1067.54 49.5455C1066.9 49.5455 1066.33 49.6847 1065.82 49.9631C1065.32 50.2415 1064.93 50.6477 1064.64 51.1818C1064.35 51.7159 1064.2 52.3636 1064.2 53.125ZM1085.5 50.8409L1083.7 51.3523C1083.58 51.0511 1083.42 50.7585 1083.19 50.4744C1082.98 50.1847 1082.68 49.946 1082.31 49.7585C1081.93 49.571 1081.45 49.4773 1080.87 49.4773C1080.07 49.4773 1079.4 49.6619 1078.87 50.0312C1078.34 50.3949 1078.07 50.858 1078.07 51.4205C1078.07 51.9205 1078.25 52.3153 1078.62 52.6051C1078.98 52.8949 1079.55 53.1364 1080.32 53.3295L1082.27 53.8068C1083.44 54.0909 1084.31 54.5256 1084.88 55.1108C1085.46 55.6903 1085.74 56.4375 1085.74 57.3523C1085.74 58.1023 1085.53 58.7727 1085.1 59.3636C1084.67 59.9545 1084.07 60.4205 1083.31 60.7614C1082.54 61.1023 1081.65 61.2727 1080.63 61.2727C1079.29 61.2727 1078.19 60.983 1077.31 60.4034C1076.44 59.8239 1075.88 58.9773 1075.65 57.8636L1077.56 57.3864C1077.74 58.0909 1078.09 58.6193 1078.59 58.9716C1079.1 59.3239 1079.77 59.5 1080.6 59.5C1081.53 59.5 1082.28 59.3011 1082.83 58.9034C1083.38 58.5 1083.66 58.017 1083.66 57.4545C1083.66 57 1083.5 56.6193 1083.19 56.3125C1082.87 56 1082.38 55.767 1081.72 55.6136L1079.54 55.1023C1078.34 54.8182 1077.46 54.3778 1076.9 53.7812C1076.34 53.179 1076.06 52.4261 1076.06 51.5227C1076.06 50.7841 1076.27 50.1307 1076.68 49.5625C1077.1 48.9943 1077.67 48.5483 1078.4 48.2244C1079.12 47.9006 1079.95 47.7386 1080.87 47.7386C1082.16 47.7386 1083.18 48.0227 1083.92 48.5909C1084.66 49.1591 1085.19 49.9091 1085.5 50.8409ZM1094.09 61.2727C1092.86 61.2727 1091.8 60.983 1090.92 60.4034C1090.03 59.8239 1089.35 59.0256 1088.87 58.0085C1088.4 56.9915 1088.16 55.8295 1088.16 54.5227C1088.16 53.1932 1088.4 52.0199 1088.89 51.0028C1089.38 49.9801 1090.07 49.1818 1090.95 48.608C1091.84 48.0284 1092.87 47.7386 1094.05 47.7386C1094.98 47.7386 1095.8 47.9091 1096.54 48.25C1097.28 48.5909 1097.89 49.0682 1098.36 49.6818C1098.83 50.2955 1099.12 51.0114 1099.24 51.8295H1097.23C1097.07 51.233 1096.73 50.7045 1096.2 50.2443C1095.68 49.7784 1094.98 49.5455 1094.09 49.5455C1093.3 49.5455 1092.62 49.75 1092.03 50.1591C1091.44 50.5625 1090.98 51.1335 1090.65 51.8722C1090.33 52.6051 1090.17 53.4659 1090.17 54.4545C1090.17 55.4659 1090.33 56.3466 1090.65 57.0966C1090.97 57.8466 1091.42 58.429 1092.01 58.8438C1092.6 59.2585 1093.29 59.4659 1094.09 59.4659C1094.61 59.4659 1095.09 59.375 1095.51 59.1932C1095.94 59.0114 1096.3 58.75 1096.59 58.4091C1096.89 58.0682 1097.1 57.6591 1097.23 57.1818H1099.24C1099.12 57.9545 1098.84 58.6506 1098.39 59.2699C1097.95 59.8835 1097.36 60.3722 1096.63 60.7358C1095.9 61.0938 1095.05 61.2727 1094.09 61.2727ZM1102.18 61V47.9091H1104.12V49.8864H1104.26C1104.5 49.2386 1104.93 48.7131 1105.55 48.3097C1106.18 47.9062 1106.88 47.7045 1107.67 47.7045C1107.81 47.7045 1108 47.7074 1108.22 47.7131C1108.44 47.7187 1108.61 47.7273 1108.72 47.7386V49.7841C1108.65 49.767 1108.5 49.7415 1108.25 49.7074C1108.01 49.6676 1107.76 49.6477 1107.5 49.6477C1106.86 49.6477 1106.29 49.7812 1105.79 50.0483C1105.3 50.3097 1104.9 50.6733 1104.61 51.1392C1104.33 51.5994 1104.19 52.125 1104.19 52.7159V61H1102.18ZM1111.11 61V47.9091H1113.12V61H1111.11ZM1112.13 45.7273C1111.74 45.7273 1111.4 45.5938 1111.12 45.3267C1110.84 45.0597 1110.7 44.7386 1110.7 44.3636C1110.7 43.9886 1110.84 43.6676 1111.12 43.4006C1111.4 43.1335 1111.74 43 1112.13 43C1112.52 43 1112.86 43.1335 1113.13 43.4006C1113.42 43.6676 1113.56 43.9886 1113.56 44.3636C1113.56 44.7386 1113.42 45.0597 1113.13 45.3267C1112.86 45.5938 1112.52 45.7273 1112.13 45.7273ZM1116.8 65.9091V47.9091H1118.75V49.9886H1118.98C1119.13 49.7614 1119.34 49.4716 1119.6 49.1193C1119.86 48.7614 1120.25 48.4432 1120.74 48.1648C1121.24 47.8807 1121.92 47.7386 1122.77 47.7386C1123.87 47.7386 1124.84 48.0142 1125.68 48.5653C1126.52 49.1165 1127.18 49.8977 1127.65 50.9091C1128.12 51.9205 1128.36 53.1136 1128.36 54.4886C1128.36 55.875 1128.12 57.0767 1127.65 58.0938C1127.18 59.1051 1126.53 59.8892 1125.69 60.446C1124.86 60.9972 1123.89 61.2727 1122.8 61.2727C1121.96 61.2727 1121.29 61.1335 1120.78 60.8551C1120.28 60.571 1119.89 60.25 1119.61 59.892C1119.34 59.5284 1119.13 59.2273 1118.98 58.9886H1118.81V65.9091H1116.8ZM1118.78 54.4545C1118.78 55.4432 1118.92 56.3153 1119.21 57.071C1119.5 57.821 1119.93 58.4091 1120.48 58.8352C1121.04 59.2557 1121.72 59.4659 1122.53 59.4659C1123.37 59.4659 1124.07 59.2443 1124.63 58.8011C1125.2 58.3523 1125.63 57.75 1125.91 56.9943C1126.2 56.233 1126.35 55.3864 1126.35 54.4545C1126.35 53.5341 1126.21 52.7045 1125.92 51.9659C1125.64 51.2216 1125.22 50.6335 1124.65 50.2017C1124.09 49.7642 1123.38 49.5455 1122.53 49.5455C1121.71 49.5455 1121.02 49.7528 1120.47 50.1676C1119.91 50.5767 1119.49 51.1506 1119.21 51.8892C1118.92 52.6222 1118.78 53.4773 1118.78 54.4545ZM1137.12 47.9091V49.6136H1130.34V47.9091H1137.12ZM1132.31 44.7727H1134.32V57.25C1134.32 57.8182 1134.41 58.2443 1134.57 58.5284C1134.74 58.8068 1134.96 58.9943 1135.22 59.0909C1135.49 59.1818 1135.77 59.2273 1136.06 59.2273C1136.28 59.2273 1136.47 59.2159 1136.61 59.1932C1136.75 59.1648 1136.86 59.142 1136.95 59.125L1137.36 60.9318C1137.22 60.983 1137.03 61.0341 1136.79 61.0852C1136.54 61.142 1136.23 61.1705 1135.86 61.1705C1135.29 61.1705 1134.73 61.0483 1134.19 60.804C1133.65 60.5597 1133.2 60.1875 1132.84 59.6875C1132.49 59.1875 1132.31 58.5568 1132.31 57.7955V44.7727ZM1140.15 61V47.9091H1142.16V61H1140.15ZM1141.17 45.7273C1140.78 45.7273 1140.44 45.5938 1140.15 45.3267C1139.88 45.0597 1139.74 44.7386 1139.74 44.3636C1139.74 43.9886 1139.88 43.6676 1140.15 43.4006C1140.44 43.1335 1140.78 43 1141.17 43C1141.56 43 1141.9 43.1335 1142.17 43.4006C1142.46 43.6676 1142.6 43.9886 1142.6 44.3636C1142.6 44.7386 1142.46 45.0597 1142.17 45.3267C1141.9 45.5938 1141.56 45.7273 1141.17 45.7273ZM1151.16 61.2727C1149.98 61.2727 1148.94 60.9915 1148.05 60.429C1147.16 59.8665 1146.47 59.0795 1145.97 58.0682C1145.47 57.0568 1145.23 55.875 1145.23 54.5227C1145.23 53.1591 1145.47 51.9687 1145.97 50.9517C1146.47 49.9347 1147.16 49.1449 1148.05 48.5824C1148.94 48.0199 1149.98 47.7386 1151.16 47.7386C1152.34 47.7386 1153.38 48.0199 1154.26 48.5824C1155.15 49.1449 1155.85 49.9347 1156.34 50.9517C1156.84 51.9687 1157.09 53.1591 1157.09 54.5227C1157.09 55.875 1156.84 57.0568 1156.34 58.0682C1155.85 59.0795 1155.15 59.8665 1154.26 60.429C1153.38 60.9915 1152.34 61.2727 1151.16 61.2727ZM1151.16 59.4659C1152.06 59.4659 1152.8 59.2358 1153.38 58.7756C1153.95 58.3153 1154.38 57.7102 1154.66 56.9602C1154.94 56.2102 1155.08 55.3977 1155.08 54.5227C1155.08 53.6477 1154.94 52.8324 1154.66 52.0767C1154.38 51.321 1153.95 50.7102 1153.38 50.2443C1152.8 49.7784 1152.06 49.5455 1151.16 49.5455C1150.26 49.5455 1149.52 49.7784 1148.94 50.2443C1148.36 50.7102 1147.93 51.321 1147.66 52.0767C1147.38 52.8324 1147.24 53.6477 1147.24 54.5227C1147.24 55.3977 1147.38 56.2102 1147.66 56.9602C1147.93 57.7102 1148.36 58.3153 1148.94 58.7756C1149.52 59.2358 1150.26 59.4659 1151.16 59.4659ZM1162.17 53.125V61H1160.16V47.9091H1162.1V49.9545H1162.27C1162.58 49.2898 1163.05 48.7557 1163.67 48.3523C1164.3 47.9432 1165.1 47.7386 1166.09 47.7386C1166.98 47.7386 1167.75 47.9205 1168.42 48.2841C1169.08 48.642 1169.6 49.1875 1169.97 49.9205C1170.34 50.6477 1170.52 51.5682 1170.52 52.6818V61H1168.51V52.8182C1168.51 51.7898 1168.25 50.9886 1167.71 50.4148C1167.18 49.8352 1166.45 49.5455 1165.51 49.5455C1164.87 49.5455 1164.3 49.6847 1163.79 49.9631C1163.29 50.2415 1162.9 50.6477 1162.61 51.1818C1162.32 51.7159 1162.17 52.3636 1162.17 53.125Z" fill="black"/>
<rect x="230" y="213" width="418" height="617" fill="#D9D9D9"/>
<line x1="230.414" y1="212.72" x2="648.414" y2="829.72" stroke="black"/>
<line x1="229.586" y1="829.72" x2="647.586" y2="212.72" stroke="black"/>
<path d="M720.818 263.727H724.182L732.091 283.045H732.364L740.273 263.727H743.636V287H741V269.318H740.773L733.5 287H730.955L723.682 269.318H723.455V287H720.818V263.727ZM756.241 287.364C754.56 287.364 753.109 286.992 751.889 286.25C750.677 285.5 749.741 284.455 749.082 283.114C748.431 281.765 748.105 280.197 748.105 278.409C748.105 276.621 748.431 275.045 749.082 273.682C749.741 272.311 750.658 271.242 751.832 270.477C753.014 269.705 754.393 269.318 755.969 269.318C756.878 269.318 757.776 269.47 758.662 269.773C759.548 270.076 760.355 270.568 761.082 271.25C761.81 271.924 762.389 272.818 762.821 273.932C763.253 275.045 763.469 276.417 763.469 278.045V279.182H750.014V276.864H760.741C760.741 275.879 760.545 275 760.151 274.227C759.764 273.455 759.211 272.845 758.491 272.398C757.779 271.951 756.938 271.727 755.969 271.727C754.901 271.727 753.976 271.992 753.196 272.523C752.423 273.045 751.829 273.727 751.412 274.568C750.995 275.409 750.787 276.311 750.787 277.273V278.818C750.787 280.136 751.014 281.254 751.469 282.17C751.931 283.08 752.571 283.773 753.389 284.25C754.207 284.72 755.158 284.955 756.241 284.955C756.946 284.955 757.582 284.856 758.151 284.659C758.726 284.455 759.223 284.152 759.639 283.75C760.056 283.341 760.378 282.833 760.605 282.227L763.196 282.955C762.923 283.833 762.465 284.606 761.821 285.273C761.177 285.932 760.382 286.447 759.435 286.818C758.488 287.182 757.423 287.364 756.241 287.364ZM779.912 273.455L777.503 274.136C777.351 273.735 777.128 273.345 776.832 272.966C776.545 272.58 776.151 272.261 775.651 272.011C775.151 271.761 774.51 271.636 773.73 271.636C772.662 271.636 771.772 271.883 771.06 272.375C770.355 272.86 770.003 273.477 770.003 274.227C770.003 274.894 770.245 275.42 770.73 275.807C771.215 276.193 771.973 276.515 773.003 276.773L775.594 277.409C777.154 277.788 778.317 278.367 779.082 279.148C779.848 279.92 780.23 280.917 780.23 282.136C780.23 283.136 779.942 284.03 779.366 284.818C778.798 285.606 778.003 286.227 776.98 286.682C775.957 287.136 774.768 287.364 773.412 287.364C771.632 287.364 770.158 286.977 768.991 286.205C767.825 285.432 767.086 284.303 766.776 282.818L769.321 282.182C769.563 283.121 770.022 283.826 770.696 284.295C771.378 284.765 772.268 285 773.366 285C774.616 285 775.609 284.735 776.344 284.205C777.086 283.667 777.457 283.023 777.457 282.273C777.457 281.667 777.245 281.159 776.821 280.75C776.397 280.333 775.745 280.023 774.866 279.818L771.957 279.136C770.359 278.758 769.185 278.17 768.435 277.375C767.692 276.572 767.321 275.568 767.321 274.364C767.321 273.379 767.598 272.508 768.151 271.75C768.711 270.992 769.473 270.398 770.435 269.966C771.404 269.534 772.503 269.318 773.73 269.318C775.457 269.318 776.813 269.697 777.798 270.455C778.791 271.212 779.495 272.212 779.912 273.455ZM796.449 263.727V287H793.631V263.727H796.449ZM804.418 276.5V287H801.736V269.545H804.327V272.273H804.554C804.963 271.386 805.584 270.674 806.418 270.136C807.251 269.591 808.327 269.318 809.645 269.318C810.827 269.318 811.861 269.561 812.747 270.045C813.634 270.523 814.323 271.25 814.815 272.227C815.308 273.197 815.554 274.424 815.554 275.909V287H812.872V276.091C812.872 274.72 812.516 273.652 811.804 272.886C811.092 272.114 810.115 271.727 808.872 271.727C808.016 271.727 807.251 271.913 806.577 272.284C805.91 272.655 805.384 273.197 804.997 273.909C804.611 274.621 804.418 275.485 804.418 276.5ZM828.227 269.545V271.818H818.818V269.545H828.227ZM821.636 287V267.136C821.636 266.136 821.871 265.303 822.341 264.636C822.811 263.97 823.42 263.47 824.17 263.136C824.92 262.803 825.712 262.636 826.545 262.636C827.205 262.636 827.742 262.689 828.159 262.795C828.576 262.902 828.886 263 829.091 263.091L828.318 265.409C828.182 265.364 827.992 265.307 827.75 265.239C827.515 265.17 827.205 265.136 826.818 265.136C825.932 265.136 825.292 265.36 824.898 265.807C824.511 266.254 824.318 266.909 824.318 267.773V287H821.636ZM838.358 287.364C836.782 287.364 835.4 286.989 834.21 286.239C833.028 285.489 832.104 284.439 831.438 283.091C830.778 281.742 830.449 280.167 830.449 278.364C830.449 276.545 830.778 274.958 831.438 273.602C832.104 272.246 833.028 271.193 834.21 270.443C835.4 269.693 836.782 269.318 838.358 269.318C839.934 269.318 841.313 269.693 842.494 270.443C843.684 271.193 844.608 272.246 845.267 273.602C845.934 274.958 846.267 276.545 846.267 278.364C846.267 280.167 845.934 281.742 845.267 283.091C844.608 284.439 843.684 285.489 842.494 286.239C841.313 286.989 839.934 287.364 838.358 287.364ZM838.358 284.955C839.555 284.955 840.54 284.648 841.312 284.034C842.085 283.42 842.657 282.614 843.028 281.614C843.4 280.614 843.585 279.53 843.585 278.364C843.585 277.197 843.4 276.11 843.028 275.102C842.657 274.095 842.085 273.28 841.312 272.659C840.54 272.038 839.555 271.727 838.358 271.727C837.161 271.727 836.176 272.038 835.403 272.659C834.631 273.28 834.059 274.095 833.688 275.102C833.316 276.11 833.131 277.197 833.131 278.364C833.131 279.53 833.316 280.614 833.688 281.614C834.059 282.614 834.631 283.42 835.403 284.034C836.176 284.648 837.161 284.955 838.358 284.955ZM862.724 273.455L860.315 274.136C860.164 273.735 859.94 273.345 859.645 272.966C859.357 272.58 858.963 272.261 858.463 272.011C857.963 271.761 857.323 271.636 856.543 271.636C855.474 271.636 854.584 271.883 853.872 272.375C853.168 272.86 852.815 273.477 852.815 274.227C852.815 274.894 853.058 275.42 853.543 275.807C854.027 276.193 854.785 276.515 855.815 276.773L858.406 277.409C859.967 277.788 861.13 278.367 861.895 279.148C862.66 279.92 863.043 280.917 863.043 282.136C863.043 283.136 862.755 284.03 862.179 284.818C861.611 285.606 860.815 286.227 859.793 286.682C858.77 287.136 857.58 287.364 856.224 287.364C854.444 287.364 852.971 286.977 851.804 286.205C850.637 285.432 849.899 284.303 849.588 282.818L852.134 282.182C852.376 283.121 852.834 283.826 853.509 284.295C854.19 284.765 855.08 285 856.179 285C857.429 285 858.421 284.735 859.156 284.205C859.899 283.667 860.27 283.023 860.27 282.273C860.27 281.667 860.058 281.159 859.634 280.75C859.209 280.333 858.558 280.023 857.679 279.818L854.77 279.136C853.171 278.758 851.997 278.17 851.247 277.375C850.505 276.572 850.134 275.568 850.134 274.364C850.134 273.379 850.41 272.508 850.963 271.75C851.524 270.992 852.285 270.398 853.247 269.966C854.217 269.534 855.315 269.318 856.543 269.318C858.27 269.318 859.626 269.697 860.611 270.455C861.603 271.212 862.308 272.212 862.724 273.455ZM878.034 287.182C877.473 287.182 876.992 286.981 876.591 286.58C876.189 286.178 875.989 285.697 875.989 285.136C875.989 284.576 876.189 284.095 876.591 283.693C876.992 283.292 877.473 283.091 878.034 283.091C878.595 283.091 879.076 283.292 879.477 283.693C879.879 284.095 880.08 284.576 880.08 285.136C880.08 285.508 879.985 285.848 879.795 286.159C879.614 286.47 879.367 286.72 879.057 286.909C878.754 287.091 878.413 287.182 878.034 287.182ZM878.034 274.227C877.473 274.227 876.992 274.027 876.591 273.625C876.189 273.223 875.989 272.742 875.989 272.182C875.989 271.621 876.189 271.14 876.591 270.739C876.992 270.337 877.473 270.136 878.034 270.136C878.595 270.136 879.076 270.337 879.477 270.739C879.879 271.14 880.08 271.621 880.08 272.182C880.08 272.553 879.985 272.894 879.795 273.205C879.614 273.515 879.367 273.765 879.057 273.955C878.754 274.136 878.413 274.227 878.034 274.227Z" fill="black"/>
<rect x="702" y="372" width="484" height="44" fill="#D9D9D9"/>
<rect x="702" y="636" width="484" height="44" fill="#D9D9D9"/>
<rect x="702" y="548" width="484" height="44" fill="#D9D9D9"/>
<rect x="702" y="460" width="484" height="44" fill="#D9D9D9"/>
<rect x="657.5" y="212.5" width="573" height="618" rx="6.5" stroke="black"/>
</g>
<defs>
<clipPath id="clip0_2_260">
<rect width="1440" height="1024" fill="white"/>
</clipPath>
</defs>
</svg>
